<svg version="1.1" xmlns="http://www.w3.org/2000/svg" xmlns:xlink="http://www.w3.org/1999/xlink" stroke-linecap="round" stroke-linejoin="round" stroke-width="0" fill-rule="evenodd" clip-rule="evenodd" id="gFDqMs30wWBy8dtwwff__bottom" viewBox="29081 -79993.009 93485.009 54150.009" width="93.485009mm" height="54.150009mm" class="w-100 h-100"><defs><style>.gFDqMs30wWBy8dtwwff__fr4 {color: #666666;}
.gFDqMs30wWBy8dtwwff__cu {color: #cccccc;}
.gFDqMs30wWBy8dtwwff__cf {color: #cc9933;}
.gFDqMs30wWBy8dtwwff__sm {color: #000000; opacity: 0.75;}
.gFDqMs30wWBy8dtwwff__ss {color: #ffffff;}
.gFDqMs30wWBy8dtwwff__sp {color: #999999;}
.gFDqMs30wWBy8dtwwff__out {color: #000000;}</style><polygon points="-212.13203,-1060.66017 -1060.66017,-212.13203 212.13203,1060.66017 1060.66017,212.13203" id="Vu2QgLzeQwd4xUM5FNHI_pad-15"/><circle cx="0" cy="0" r="850" id="Vu2QgLzeQwd4xUM5FNHI_pad-16"/><circle cx="0" cy="0" r="1700" id="Vu2QgLzeQwd4xUM5FNHI_pad-17"/><circle cx="0" cy="0" r="1000" id="Vu2QgLzeQwd4xUM5FNHI_pad-18"/><circle cx="0" cy="0" r="800" id="Vu2QgLzeQwd4xUM5FNHI_pad-19"/><polygon points="-200,600 400,0 -200,-600 -400,-600 -400,600 -200,600" id="Vu2QgLzeQwd4xUM5FNHI_pad-20"/><polygon points="200,-600 -400,0 200,600 400,600 400,-600 200,-600" id="Vu2QgLzeQwd4xUM5FNHI_pad-21"/><rect x="-800" y="-800" width="1600" height="1600" id="Vu2QgLzeQwd4xUM5FNHI_pad-22"/><polygon points="-250,-600 -250,600 1000,600 400,0 1000,-600 -250,-600" id="Vu2QgLzeQwd4xUM5FNHI_pad-23"/><polygon points="250,600 250,-600 -1000,-600 -400,0 -1000,600 250,600" id="Vu2QgLzeQwd4xUM5FNHI_pad-24"/><circle cx="0" cy="0" r="1200" id="Vu2QgLzeQwd4xUM5FNHI_pad-25"/><circle cx="0" cy="0" r="762" id="Vu2QgLzeQwd4xUM5FNHI_pad-26"/><g id="Vu2QgLzeQwd4xUM5FNHI_pad-27"><polygon points="-381,-381 381,-381 381,381 -381,381"/><circle cx="-381" cy="-381" r="381"/><circle cx="381" cy="-381" r="381"/><circle cx="381" cy="381" r="381"/><circle cx="-381" cy="381" r="381"/><polygon points="-381,-762 381,-762 381,0 -381,0"/><polygon points="762,-381 762,381 0,381 0,-381"/><polygon points="381,0 -381,0 -381,762 381,762"/><polygon points="0,381 0,-381 -762,-381 -762,381"/></g><g id="Vu2QgLzeQwd4xUM5FNHI_pad-28"><polygon points="283.126,-141.421 -141.421,283.126 -283.126,141.421 141.421,-283.126"/><circle cx="283.126" cy="-141.421" r="199.8"/><circle cx="-141.421" cy="283.126" r="199.8"/><circle cx="-283.126" cy="141.421" r="199.8"/><circle cx="141.421" cy="-283.126" r="199.8"/><polygon points="141.84607,-282.70093 -282.70093,141.84607 -0.14107,424.40593 424.40593,-0.14107"/><polygon points="-0.14107,141.84607 -141.84607,0.14107 -424.40593,282.70093 -282.70093,424.40593"/><polygon points="-424.40593,0.14107 0.14107,-424.40593 282.70093,-141.84607 -141.84607,282.70093"/><polygon points="282.70093,-424.40593 424.40593,-282.70093 141.84607,-0.14107 0.14107,-141.84607"/></g><circle cx="0" cy="0" r="325" id="Vu2QgLzeQwd4xUM5FNHI_pad-29"/><g id="Vu2QgLzeQwd4xUM5FNHI_pad-30"><polygon points="141.421,459.619 -459.619,-141.421 -141.421,-459.619 459.619,141.421"/><circle cx="141.421" cy="459.619" r="225"/><circle cx="-459.619" cy="-141.421" r="225"/><circle cx="-141.421" cy="-459.619" r="225"/><circle cx="459.619" cy="141.421" r="225"/><polygon points="300.52003,300.51997 -300.51997,-300.52003 -618.71803,17.67803 -17.67803,618.71803"/><polygon points="-618.71803,-300.52003 -300.52003,-618.71803 17.67803,-300.51997 -300.51997,17.67803"/><polygon points="17.67803,-618.71803 618.71803,-17.67803 300.51997,300.52003 -300.52003,-300.51997"/><polygon points="300.51997,-17.67803 -17.67803,300.51997 300.52003,618.71803 618.71803,300.52003"/></g><g id="Vu2QgLzeQwd4xUM5FNHI_pad-31"><polygon points="-141.421,-353.978 353.978,141.421 141.421,353.978 -353.978,-141.421"/><circle cx="-141.421" cy="-353.978" r="299.7"/><circle cx="353.978" cy="141.421" r="299.7"/><circle cx="141.421" cy="353.978" r="299.7"/><circle cx="-353.978" cy="-141.421" r="299.7"/><polygon points="70.4989,-565.8979 565.8979,-70.4989 142.0581,353.3409 -353.3409,-142.0581"/><polygon points="142.0581,-70.4989 -70.4989,142.0581 353.3409,565.8979 565.8979,353.3409"/><polygon points="353.3409,142.0581 -142.0581,-353.3409 -565.8979,70.4989 -70.4989,565.8979"/><polygon points="-565.8979,-353.3409 -353.3409,-565.8979 70.4989,-142.0581 -142.0581,70.4989"/></g><g id="Vu2QgLzeQwd4xUM5FNHI_pad-32"><polygon points="141.421,353.978 -353.978,-141.421 -141.421,-353.978 353.978,141.421"/><circle cx="141.421" cy="353.978" r="299.7"/><circle cx="-353.978" cy="-141.421" r="299.7"/><circle cx="-141.421" cy="-353.978" r="299.7"/><circle cx="353.978" cy="141.421" r="299.7"/><polygon points="353.3409,142.0581 -142.0581,-353.3409 -565.8979,70.4989 -70.4989,565.8979"/><polygon points="-565.8979,-353.3409 -353.3409,-565.8979 70.4989,-142.0581 -142.0581,70.4989"/><polygon points="70.4989,-565.8979 565.8979,-70.4989 142.0581,353.3409 -353.3409,-142.0581"/><polygon points="142.0581,-70.4989 -70.4989,142.0581 353.3409,565.8979 565.8979,353.3409"/></g><rect x="-650" y="-500" width="1300" height="1000" id="Vu2QgLzeQwd4xUM5FNHI_pad-33"/><rect x="-700" y="-500" width="1400" height="1000" rx="500" ry="500" id="Vu2QgLzeQwd4xUM5FNHI_pad-34"/><mask id="Vu2QgLzeQwd4xUM5FNHI_clear-1" fill="#000" stroke="#000"><g><rect x="32489.904" y="-70868.502" width="88179.696" height="40053.102" fill="#fff"/><path d="M 107080 -32247 106064 -32247 106064 -31231 107080 -31231 107080 -32247" fill="none" stroke-width="100"/><path d="M 107080 -32247 106064 -32247 106064 -31231 107080 -31231 107080 -32247"/><path d="M 107080 -34787 106064 -34787 106064 -33771 107080 -33771 107080 -34787" fill="none" stroke-width="100"/><path d="M 107080 -34787 106064 -34787 106064 -33771 107080 -33771 107080 -34787"/><path d="M 107080 -37327 106064 -37327 106064 -36311 107080 -36311 107080 -37327" fill="none" stroke-width="100"/><path d="M 107080 -37327 106064 -37327 106064 -36311 107080 -36311 107080 -37327"/><path d="M 107080 -39867 106064 -39867 106064 -38851 107080 -38851 107080 -39867" fill="none" stroke-width="100"/><path d="M 107080 -39867 106064 -39867 106064 -38851 107080 -38851 107080 -39867"/><path d="M 107080 -42407 106064 -42407 106064 -41391 107080 -41391 107080 -42407" fill="none" stroke-width="100"/><path d="M 107080 -42407 106064 -42407 106064 -41391 107080 -41391 107080 -42407"/><path d="M 107080 -44947 106064 -44947 106064 -43931 107080 -43931 107080 -44947" fill="none" stroke-width="100"/><path d="M 107080 -44947 106064 -44947 106064 -43931 107080 -43931 107080 -44947"/><path d="M 107080 -47487 106064 -47487 106064 -46471 107080 -46471 107080 -47487" fill="none" stroke-width="100"/><path d="M 107080 -47487 106064 -47487 106064 -46471 107080 -46471 107080 -47487"/><path d="M 107080 -50027 106064 -50027 106064 -49011 107080 -49011 107080 -50027" fill="none" stroke-width="100"/><path d="M 107080 -50027 106064 -50027 106064 -49011 107080 -49011 107080 -50027"/><path d="M 107080 -52567 106064 -52567 106064 -51551 107080 -51551 107080 -52567" fill="none" stroke-width="100"/><path d="M 107080 -52567 106064 -52567 106064 -51551 107080 -51551 107080 -52567"/><path d="M 107080 -55107 106064 -55107 106064 -54091 107080 -54091 107080 -55107" fill="none" stroke-width="100"/><path d="M 107080 -55107 106064 -55107 106064 -54091 107080 -54091 107080 -55107"/><path d="M 107080 -57647 106064 -57647 106064 -56631 107080 -56631 107080 -57647" fill="none" stroke-width="100"/><path d="M 107080 -57647 106064 -57647 106064 -56631 107080 -56631 107080 -57647"/><path d="M 107080 -60187 106064 -60187 106064 -59171 107080 -59171 107080 -60187" fill="none" stroke-width="100"/><path d="M 107080 -60187 106064 -60187 106064 -59171 107080 -59171 107080 -60187"/><path d="M 118256 -32247 117240 -32247 117240 -31231 118256 -31231 118256 -32247" fill="none" stroke-width="100"/><path d="M 118256 -32247 117240 -32247 117240 -31231 118256 -31231 118256 -32247"/><path d="M 118256 -34787 117240 -34787 117240 -33771 118256 -33771 118256 -34787" fill="none" stroke-width="100"/><path d="M 118256 -34787 117240 -34787 117240 -33771 118256 -33771 118256 -34787"/><path d="M 118256 -37327 117240 -37327 117240 -36311 118256 -36311 118256 -37327" fill="none" stroke-width="100"/><path d="M 118256 -37327 117240 -37327 117240 -36311 118256 -36311 118256 -37327"/><path d="M 118256 -39867 117240 -39867 117240 -38851 118256 -38851 118256 -39867" fill="none" stroke-width="100"/><path d="M 118256 -39867 117240 -39867 117240 -38851 118256 -38851 118256 -39867"/><path d="M 118256 -42407 117240 -42407 117240 -41391 118256 -41391 118256 -42407" fill="none" stroke-width="100"/><path d="M 118256 -42407 117240 -42407 117240 -41391 118256 -41391 118256 -42407"/><path d="M 118256 -44947 117240 -44947 117240 -43931 118256 -43931 118256 -44947" fill="none" stroke-width="100"/><path d="M 118256 -44947 117240 -44947 117240 -43931 118256 -43931 118256 -44947"/><path d="M 118256 -47487 117240 -47487 117240 -46471 118256 -46471 118256 -47487" fill="none" stroke-width="100"/><path d="M 118256 -47487 117240 -47487 117240 -46471 118256 -46471 118256 -47487"/><path d="M 118256 -50027 117240 -50027 117240 -49011 118256 -49011 118256 -50027" fill="none" stroke-width="100"/><path d="M 118256 -50027 117240 -50027 117240 -49011 118256 -49011 118256 -50027"/><path d="M 118256 -52567 117240 -52567 117240 -51551 118256 -51551 118256 -52567" fill="none" stroke-width="100"/><path d="M 118256 -52567 117240 -52567 117240 -51551 118256 -51551 118256 -52567"/><path d="M 118256 -55107 117240 -55107 117240 -54091 118256 -54091 118256 -55107" fill="none" stroke-width="100"/><path d="M 118256 -55107 117240 -55107 117240 -54091 118256 -54091 118256 -55107"/><path d="M 118256 -57647 117240 -57647 117240 -56631 118256 -56631 118256 -57647" fill="none" stroke-width="100"/><path d="M 118256 -57647 117240 -57647 117240 -56631 118256 -56631 118256 -57647"/><path d="M 118256 -60187 117240 -60187 117240 -59171 118256 -59171 118256 -60187" fill="none" stroke-width="100"/><path d="M 118256 -60187 117240 -60187 117240 -59171 118256 -59171 118256 -60187"/><use xlink:href="#Vu2QgLzeQwd4xUM5FNHI_pad-15" x="84729.656" y="-64866.856"/><use xlink:href="#Vu2QgLzeQwd4xUM5FNHI_pad-15" x="81335.544" y="-61472.744"/><use xlink:href="#Vu2QgLzeQwd4xUM5FNHI_pad-16" x="70206" y="-52918"/><use xlink:href="#Vu2QgLzeQwd4xUM5FNHI_pad-17" x="75706" y="-52918"/><use xlink:href="#Vu2QgLzeQwd4xUM5FNHI_pad-16" x="81206" y="-52918"/><use xlink:href="#Vu2QgLzeQwd4xUM5FNHI_pad-18" x="75706" y="-47018"/><use xlink:href="#Vu2QgLzeQwd4xUM5FNHI_pad-18" x="70706" y="-49118"/><use xlink:href="#Vu2QgLzeQwd4xUM5FNHI_pad-18" x="80706" y="-49118"/><use xlink:href="#Vu2QgLzeQwd4xUM5FNHI_pad-16" x="106306" y="-69968"/><use xlink:href="#Vu2QgLzeQwd4xUM5FNHI_pad-17" x="111806" y="-69968"/><use xlink:href="#Vu2QgLzeQwd4xUM5FNHI_pad-16" x="117306" y="-69968"/><use xlink:href="#Vu2QgLzeQwd4xUM5FNHI_pad-18" x="111806" y="-64068"/><use xlink:href="#Vu2QgLzeQwd4xUM5FNHI_pad-18" x="106806" y="-66168"/><use xlink:href="#Vu2QgLzeQwd4xUM5FNHI_pad-18" x="116806" y="-66168"/><use xlink:href="#Vu2QgLzeQwd4xUM5FNHI_pad-16" x="88256" y="-69968"/><use xlink:href="#Vu2QgLzeQwd4xUM5FNHI_pad-17" x="93756" y="-69968"/><use xlink:href="#Vu2QgLzeQwd4xUM5FNHI_pad-16" x="99256" y="-69968"/><use xlink:href="#Vu2QgLzeQwd4xUM5FNHI_pad-18" x="93756" y="-64068"/><use xlink:href="#Vu2QgLzeQwd4xUM5FNHI_pad-18" x="88756" y="-66168"/><use xlink:href="#Vu2QgLzeQwd4xUM5FNHI_pad-18" x="98756" y="-66168"/><use xlink:href="#Vu2QgLzeQwd4xUM5FNHI_pad-16" x="88256" y="-52918"/><use xlink:href="#Vu2QgLzeQwd4xUM5FNHI_pad-17" x="93756" y="-52918"/><use xlink:href="#Vu2QgLzeQwd4xUM5FNHI_pad-16" x="99256" y="-52918"/><use xlink:href="#Vu2QgLzeQwd4xUM5FNHI_pad-18" x="93756" y="-47018"/><use xlink:href="#Vu2QgLzeQwd4xUM5FNHI_pad-18" x="88756" y="-49118"/><use xlink:href="#Vu2QgLzeQwd4xUM5FNHI_pad-18" x="98756" y="-49118"/><use xlink:href="#Vu2QgLzeQwd4xUM5FNHI_pad-16" x="88256" y="-35868"/><use xlink:href="#Vu2QgLzeQwd4xUM5FNHI_pad-17" x="93756" y="-35868"/><use xlink:href="#Vu2QgLzeQwd4xUM5FNHI_pad-16" x="99256" y="-35868"/><use xlink:href="#Vu2QgLzeQwd4xUM5FNHI_pad-18" x="93756" y="-29968"/><use xlink:href="#Vu2QgLzeQwd4xUM5FNHI_pad-18" x="88756" y="-32068"/><use xlink:href="#Vu2QgLzeQwd4xUM5FNHI_pad-18" x="98756" y="-32068"/><use xlink:href="#Vu2QgLzeQwd4xUM5FNHI_pad-16" x="70206" y="-35868"/><use xlink:href="#Vu2QgLzeQwd4xUM5FNHI_pad-17" x="75706" y="-35868"/><use xlink:href="#Vu2QgLzeQwd4xUM5FNHI_pad-16" x="81206" y="-35868"/><use xlink:href="#Vu2QgLzeQwd4xUM5FNHI_pad-18" x="75706" y="-29968"/><use xlink:href="#Vu2QgLzeQwd4xUM5FNHI_pad-18" x="70706" y="-32068"/><use xlink:href="#Vu2QgLzeQwd4xUM5FNHI_pad-18" x="80706" y="-32068"/><use xlink:href="#Vu2QgLzeQwd4xUM5FNHI_pad-16" x="34106" y="-52918"/><use xlink:href="#Vu2QgLzeQwd4xUM5FNHI_pad-17" x="39606" y="-52918"/><use xlink:href="#Vu2QgLzeQwd4xUM5FNHI_pad-16" x="45106" y="-52918"/><use xlink:href="#Vu2QgLzeQwd4xUM5FNHI_pad-18" x="39606" y="-47018"/><use xlink:href="#Vu2QgLzeQwd4xUM5FNHI_pad-18" x="34606" y="-49118"/><use xlink:href="#Vu2QgLzeQwd4xUM5FNHI_pad-18" x="44606" y="-49118"/><use xlink:href="#Vu2QgLzeQwd4xUM5FNHI_pad-16" x="34106" y="-35868"/><use xlink:href="#Vu2QgLzeQwd4xUM5FNHI_pad-17" x="39606" y="-35868"/><use xlink:href="#Vu2QgLzeQwd4xUM5FNHI_pad-16" x="45106" y="-35868"/><use xlink:href="#Vu2QgLzeQwd4xUM5FNHI_pad-18" x="39606" y="-29968"/><use xlink:href="#Vu2QgLzeQwd4xUM5FNHI_pad-18" x="34606" y="-32068"/><use xlink:href="#Vu2QgLzeQwd4xUM5FNHI_pad-18" x="44606" y="-32068"/><use xlink:href="#Vu2QgLzeQwd4xUM5FNHI_pad-16" x="52156" y="-35868"/><use xlink:href="#Vu2QgLzeQwd4xUM5FNHI_pad-17" x="57656" y="-35868"/><use xlink:href="#Vu2QgLzeQwd4xUM5FNHI_pad-16" x="63156" y="-35868"/><use xlink:href="#Vu2QgLzeQwd4xUM5FNHI_pad-18" x="57656" y="-29968"/><use xlink:href="#Vu2QgLzeQwd4xUM5FNHI_pad-18" x="52656" y="-32068"/><use xlink:href="#Vu2QgLzeQwd4xUM5FNHI_pad-18" x="62656" y="-32068"/><use xlink:href="#Vu2QgLzeQwd4xUM5FNHI_pad-16" x="52156" y="-52918"/><use xlink:href="#Vu2QgLzeQwd4xUM5FNHI_pad-17" x="57656" y="-52918"/><use xlink:href="#Vu2QgLzeQwd4xUM5FNHI_pad-16" x="63156" y="-52918"/><use xlink:href="#Vu2QgLzeQwd4xUM5FNHI_pad-18" x="57656" y="-47018"/><use xlink:href="#Vu2QgLzeQwd4xUM5FNHI_pad-18" x="52656" y="-49118"/><use xlink:href="#Vu2QgLzeQwd4xUM5FNHI_pad-18" x="62656" y="-49118"/><use xlink:href="#Vu2QgLzeQwd4xUM5FNHI_pad-19" x="104540" y="-31739"/><use xlink:href="#Vu2QgLzeQwd4xUM5FNHI_pad-19" x="104540" y="-34279"/><use xlink:href="#Vu2QgLzeQwd4xUM5FNHI_pad-19" x="104540" y="-36819"/><use xlink:href="#Vu2QgLzeQwd4xUM5FNHI_pad-19" x="104540" y="-39359"/><use xlink:href="#Vu2QgLzeQwd4xUM5FNHI_pad-19" x="104540" y="-41899"/><use xlink:href="#Vu2QgLzeQwd4xUM5FNHI_pad-19" x="104540" y="-44439"/><use xlink:href="#Vu2QgLzeQwd4xUM5FNHI_pad-19" x="104540" y="-46979"/><use xlink:href="#Vu2QgLzeQwd4xUM5FNHI_pad-19" x="104540" y="-49519"/><use xlink:href="#Vu2QgLzeQwd4xUM5FNHI_pad-19" x="104540" y="-52059"/><use xlink:href="#Vu2QgLzeQwd4xUM5FNHI_pad-19" x="104540" y="-54599"/><use xlink:href="#Vu2QgLzeQwd4xUM5FNHI_pad-19" x="104540" y="-57139"/><use xlink:href="#Vu2QgLzeQwd4xUM5FNHI_pad-19" x="104540" y="-59679"/><use xlink:href="#Vu2QgLzeQwd4xUM5FNHI_pad-20" x="106318" y="-31739"/><use xlink:href="#Vu2QgLzeQwd4xUM5FNHI_pad-20" x="106318" y="-34279"/><use xlink:href="#Vu2QgLzeQwd4xUM5FNHI_pad-20" x="106318" y="-36819"/><use xlink:href="#Vu2QgLzeQwd4xUM5FNHI_pad-20" x="106318" y="-39359"/><use xlink:href="#Vu2QgLzeQwd4xUM5FNHI_pad-20" x="106318" y="-41899"/><use xlink:href="#Vu2QgLzeQwd4xUM5FNHI_pad-20" x="106318" y="-44439"/><use xlink:href="#Vu2QgLzeQwd4xUM5FNHI_pad-20" x="106318" y="-46979"/><use xlink:href="#Vu2QgLzeQwd4xUM5FNHI_pad-20" x="106318" y="-49519"/><use xlink:href="#Vu2QgLzeQwd4xUM5FNHI_pad-20" x="106318" y="-52059"/><use xlink:href="#Vu2QgLzeQwd4xUM5FNHI_pad-20" x="106318" y="-54599"/><use xlink:href="#Vu2QgLzeQwd4xUM5FNHI_pad-20" x="106318" y="-57139"/><use xlink:href="#Vu2QgLzeQwd4xUM5FNHI_pad-20" x="106318" y="-59679"/><use xlink:href="#Vu2QgLzeQwd4xUM5FNHI_pad-21" x="118002" y="-31739"/><use xlink:href="#Vu2QgLzeQwd4xUM5FNHI_pad-21" x="118002" y="-34279"/><use xlink:href="#Vu2QgLzeQwd4xUM5FNHI_pad-21" x="118002" y="-36819"/><use xlink:href="#Vu2QgLzeQwd4xUM5FNHI_pad-21" x="118002" y="-39359"/><use xlink:href="#Vu2QgLzeQwd4xUM5FNHI_pad-21" x="118002" y="-41899"/><use xlink:href="#Vu2QgLzeQwd4xUM5FNHI_pad-21" x="118002" y="-44439"/><use xlink:href="#Vu2QgLzeQwd4xUM5FNHI_pad-21" x="118002" y="-46979"/><use xlink:href="#Vu2QgLzeQwd4xUM5FNHI_pad-21" x="118002" y="-49519"/><use xlink:href="#Vu2QgLzeQwd4xUM5FNHI_pad-21" x="118002" y="-52059"/><use xlink:href="#Vu2QgLzeQwd4xUM5FNHI_pad-21" x="118002" y="-54599"/><use xlink:href="#Vu2QgLzeQwd4xUM5FNHI_pad-21" x="118002" y="-57139"/><use xlink:href="#Vu2QgLzeQwd4xUM5FNHI_pad-21" x="118002" y="-59679"/><use xlink:href="#Vu2QgLzeQwd4xUM5FNHI_pad-19" x="119780" y="-31739"/><use xlink:href="#Vu2QgLzeQwd4xUM5FNHI_pad-22" x="119780" y="-31739"/><use xlink:href="#Vu2QgLzeQwd4xUM5FNHI_pad-19" x="119780" y="-34279"/><use xlink:href="#Vu2QgLzeQwd4xUM5FNHI_pad-19" x="119780" y="-36819"/><use xlink:href="#Vu2QgLzeQwd4xUM5FNHI_pad-19" x="119780" y="-39359"/><use xlink:href="#Vu2QgLzeQwd4xUM5FNHI_pad-19" x="119780" y="-41899"/><use xlink:href="#Vu2QgLzeQwd4xUM5FNHI_pad-19" x="119780" y="-44439"/><use xlink:href="#Vu2QgLzeQwd4xUM5FNHI_pad-19" x="119780" y="-46979"/><use xlink:href="#Vu2QgLzeQwd4xUM5FNHI_pad-19" x="119780" y="-49519"/><use xlink:href="#Vu2QgLzeQwd4xUM5FNHI_pad-19" x="119780" y="-52059"/><use xlink:href="#Vu2QgLzeQwd4xUM5FNHI_pad-19" x="119780" y="-54599"/><use xlink:href="#Vu2QgLzeQwd4xUM5FNHI_pad-19" x="119780" y="-57139"/><use xlink:href="#Vu2QgLzeQwd4xUM5FNHI_pad-19" x="119780" y="-59679"/><use xlink:href="#Vu2QgLzeQwd4xUM5FNHI_pad-23" x="116986" y="-31739"/><use xlink:href="#Vu2QgLzeQwd4xUM5FNHI_pad-23" x="116986" y="-34279"/><use xlink:href="#Vu2QgLzeQwd4xUM5FNHI_pad-23" x="116986" y="-36819"/><use xlink:href="#Vu2QgLzeQwd4xUM5FNHI_pad-23" x="116986" y="-39359"/><use xlink:href="#Vu2QgLzeQwd4xUM5FNHI_pad-23" x="116986" y="-41899"/><use xlink:href="#Vu2QgLzeQwd4xUM5FNHI_pad-23" x="116986" y="-44439"/><use xlink:href="#Vu2QgLzeQwd4xUM5FNHI_pad-23" x="116986" y="-46979"/><use xlink:href="#Vu2QgLzeQwd4xUM5FNHI_pad-23" x="116986" y="-49519"/><use xlink:href="#Vu2QgLzeQwd4xUM5FNHI_pad-23" x="116986" y="-52059"/><use xlink:href="#Vu2QgLzeQwd4xUM5FNHI_pad-23" x="116986" y="-54599"/><use xlink:href="#Vu2QgLzeQwd4xUM5FNHI_pad-23" x="116986" y="-57139"/><use xlink:href="#Vu2QgLzeQwd4xUM5FNHI_pad-23" x="116986" y="-59679"/><use xlink:href="#Vu2QgLzeQwd4xUM5FNHI_pad-24" x="107334" y="-59679"/><use xlink:href="#Vu2QgLzeQwd4xUM5FNHI_pad-24" x="107334" y="-57139"/><use xlink:href="#Vu2QgLzeQwd4xUM5FNHI_pad-24" x="107334" y="-54599"/><use xlink:href="#Vu2QgLzeQwd4xUM5FNHI_pad-24" x="107334" y="-52059"/><use xlink:href="#Vu2QgLzeQwd4xUM5FNHI_pad-24" x="107334" y="-49519"/><use xlink:href="#Vu2QgLzeQwd4xUM5FNHI_pad-24" x="107334" y="-46979"/><use xlink:href="#Vu2QgLzeQwd4xUM5FNHI_pad-24" x="107334" y="-44439"/><use xlink:href="#Vu2QgLzeQwd4xUM5FNHI_pad-24" x="107334" y="-41899"/><use xlink:href="#Vu2QgLzeQwd4xUM5FNHI_pad-24" x="107334" y="-39359"/><use xlink:href="#Vu2QgLzeQwd4xUM5FNHI_pad-24" x="107334" y="-36819"/><use xlink:href="#Vu2QgLzeQwd4xUM5FNHI_pad-24" x="107334" y="-34279"/><use xlink:href="#Vu2QgLzeQwd4xUM5FNHI_pad-24" x="107334" y="-31739"/><use xlink:href="#Vu2QgLzeQwd4xUM5FNHI_pad-25" x="48631" y="-44393"/><use xlink:href="#Vu2QgLzeQwd4xUM5FNHI_pad-25" x="84731" y="-44393"/><use xlink:href="#Vu2QgLzeQwd4xUM5FNHI_pad-25" x="111810.8" y="-59283.6"/><use xlink:href="#Vu2QgLzeQwd4xUM5FNHI_pad-26" x="104551.4" y="-28941"/><use xlink:href="#Vu2QgLzeQwd4xUM5FNHI_pad-27" x="119768.6" y="-28941"/><use xlink:href="#Vu2QgLzeQwd4xUM5FNHI_pad-28" x="75934.848" y="-65114.383"/><use xlink:href="#Vu2QgLzeQwd4xUM5FNHI_pad-28" x="77515.939" y="-63533.293"/><use xlink:href="#Vu2QgLzeQwd4xUM5FNHI_pad-29" x="78192.64" y="-65826.44"/><use xlink:href="#Vu2QgLzeQwd4xUM5FNHI_pad-29" x="80313.96" y="-67947.76"/><use xlink:href="#Vu2QgLzeQwd4xUM5FNHI_pad-28" x="82607.107" y="-68624.461"/><use xlink:href="#Vu2QgLzeQwd4xUM5FNHI_pad-28" x="81026.017" y="-70205.552"/><use xlink:href="#Vu2QgLzeQwd4xUM5FNHI_pad-30" x="82258.504" y="-67063.877"/><use xlink:href="#Vu2QgLzeQwd4xUM5FNHI_pad-31" x="80137.183" y="-64942.556"/><use xlink:href="#Vu2QgLzeQwd4xUM5FNHI_pad-32" x="79076.523" y="-63881.896"/><use xlink:href="#Vu2QgLzeQwd4xUM5FNHI_pad-33" x="96356" y="-41268"/><use xlink:href="#Vu2QgLzeQwd4xUM5FNHI_pad-33" x="96356" y="-39868"/><use xlink:href="#Vu2QgLzeQwd4xUM5FNHI_pad-34" x="91156" y="-39868"/><use xlink:href="#Vu2QgLzeQwd4xUM5FNHI_pad-33" x="91156" y="-41268"/><use xlink:href="#Vu2QgLzeQwd4xUM5FNHI_pad-33" x="109206" y="-73968"/><use xlink:href="#Vu2QgLzeQwd4xUM5FNHI_pad-33" x="109206" y="-75368"/><use xlink:href="#Vu2QgLzeQwd4xUM5FNHI_pad-34" x="114406" y="-75368"/><use xlink:href="#Vu2QgLzeQwd4xUM5FNHI_pad-33" x="114406" y="-73968"/><use xlink:href="#Vu2QgLzeQwd4xUM5FNHI_pad-33" x="91156" y="-73968"/><use xlink:href="#Vu2QgLzeQwd4xUM5FNHI_pad-33" x="91156" y="-75368"/><use xlink:href="#Vu2QgLzeQwd4xUM5FNHI_pad-34" x="96356" y="-75368"/><use xlink:href="#Vu2QgLzeQwd4xUM5FNHI_pad-33" x="96356" y="-73968"/><use xlink:href="#Vu2QgLzeQwd4xUM5FNHI_pad-33" x="91156" y="-56918"/><use xlink:href="#Vu2QgLzeQwd4xUM5FNHI_pad-33" x="91156" y="-58318"/><use xlink:href="#Vu2QgLzeQwd4xUM5FNHI_pad-34" x="96356" y="-58318"/><use xlink:href="#Vu2QgLzeQwd4xUM5FNHI_pad-33" x="96356" y="-56918"/><use xlink:href="#Vu2QgLzeQwd4xUM5FNHI_pad-33" x="73106" y="-56918"/><use xlink:href="#Vu2QgLzeQwd4xUM5FNHI_pad-33" x="73106" y="-58318"/><use xlink:href="#Vu2QgLzeQwd4xUM5FNHI_pad-34" x="78306" y="-58318"/><use xlink:href="#Vu2QgLzeQwd4xUM5FNHI_pad-33" x="78306" y="-56918"/><use xlink:href="#Vu2QgLzeQwd4xUM5FNHI_pad-33" x="55056" y="-56918"/><use xlink:href="#Vu2QgLzeQwd4xUM5FNHI_pad-33" x="55056" y="-58318"/><use xlink:href="#Vu2QgLzeQwd4xUM5FNHI_pad-34" x="60256" y="-58318"/><use xlink:href="#Vu2QgLzeQwd4xUM5FNHI_pad-33" x="60256" y="-56918"/><use xlink:href="#Vu2QgLzeQwd4xUM5FNHI_pad-33" x="37006" y="-56918"/><use xlink:href="#Vu2QgLzeQwd4xUM5FNHI_pad-33" x="37006" y="-58318"/><use xlink:href="#Vu2QgLzeQwd4xUM5FNHI_pad-34" x="42206" y="-58318"/><use xlink:href="#Vu2QgLzeQwd4xUM5FNHI_pad-33" x="42206" y="-56918"/><use xlink:href="#Vu2QgLzeQwd4xUM5FNHI_pad-33" x="42206" y="-41268"/><use xlink:href="#Vu2QgLzeQwd4xUM5FNHI_pad-33" x="42206" y="-39868"/><use xlink:href="#Vu2QgLzeQwd4xUM5FNHI_pad-34" x="37006" y="-39868"/><use xlink:href="#Vu2QgLzeQwd4xUM5FNHI_pad-33" x="37006" y="-41268"/><use xlink:href="#Vu2QgLzeQwd4xUM5FNHI_pad-33" x="60256" y="-41268"/><use xlink:href="#Vu2QgLzeQwd4xUM5FNHI_pad-33" x="60256" y="-39868"/><use xlink:href="#Vu2QgLzeQwd4xUM5FNHI_pad-34" x="55056" y="-39868"/><use xlink:href="#Vu2QgLzeQwd4xUM5FNHI_pad-33" x="55056" y="-41268"/><use xlink:href="#Vu2QgLzeQwd4xUM5FNHI_pad-33" x="78306" y="-41268"/><use xlink:href="#Vu2QgLzeQwd4xUM5FNHI_pad-33" x="78306" y="-39868"/><use xlink:href="#Vu2QgLzeQwd4xUM5FNHI_pad-34" x="73106" y="-39868"/><use xlink:href="#Vu2QgLzeQwd4xUM5FNHI_pad-33" x="73106" y="-41268"/></g></mask><polygon points="-212.13203,-1060.66017 -1060.66017,-212.13203 212.13203,1060.66017 1060.66017,212.13203" id="XYSlY2Vin2qxtvybeJL5_pad-11"/><circle cx="0" cy="0" r="850" id="XYSlY2Vin2qxtvybeJL5_pad-12"/><circle cx="0" cy="0" r="1700" id="XYSlY2Vin2qxtvybeJL5_pad-13"/><circle cx="0" cy="0" r="1000" id="XYSlY2Vin2qxtvybeJL5_pad-14"/><circle cx="0" cy="0" r="800" id="XYSlY2Vin2qxtvybeJL5_pad-15"/><polygon points="-200,600 400,0 -200,-600 -400,-600 -400,600 -200,600" id="XYSlY2Vin2qxtvybeJL5_pad-16"/><polygon points="200,-600 -400,0 200,600 400,600 400,-600 200,-600" id="XYSlY2Vin2qxtvybeJL5_pad-17"/><rect x="-800" y="-800" width="1600" height="1600" id="XYSlY2Vin2qxtvybeJL5_pad-18"/><polygon points="-250,-600 -250,600 1000,600 400,0 1000,-600 -250,-600" id="XYSlY2Vin2qxtvybeJL5_pad-19"/><polygon points="250,600 250,-600 -1000,-600 -400,0 -1000,600 250,600" id="XYSlY2Vin2qxtvybeJL5_pad-20"/><circle cx="0" cy="0" r="1200" id="XYSlY2Vin2qxtvybeJL5_pad-21"/><circle cx="0" cy="0" r="762" id="XYSlY2Vin2qxtvybeJL5_pad-22"/><g id="XYSlY2Vin2qxtvybeJL5_pad-23"><polygon points="-381,-381 381,-381 381,381 -381,381"/><circle cx="-381" cy="-381" r="381"/><circle cx="381" cy="-381" r="381"/><circle cx="381" cy="381" r="381"/><circle cx="-381" cy="381" r="381"/><polygon points="-381,-762 381,-762 381,0 -381,0"/><polygon points="762,-381 762,381 0,381 0,-381"/><polygon points="381,0 -381,0 -381,762 381,762"/><polygon points="0,381 0,-381 -762,-381 -762,381"/></g><g id="XYSlY2Vin2qxtvybeJL5_pad-24"><polygon points="283.126,-141.421 -141.421,283.126 -283.126,141.421 141.421,-283.126"/><circle cx="283.126" cy="-141.421" r="199.8"/><circle cx="-141.421" cy="283.126" r="199.8"/><circle cx="-283.126" cy="141.421" r="199.8"/><circle cx="141.421" cy="-283.126" r="199.8"/><polygon points="141.84607,-282.70093 -282.70093,141.84607 -0.14107,424.40593 424.40593,-0.14107"/><polygon points="-0.14107,141.84607 -141.84607,0.14107 -424.40593,282.70093 -282.70093,424.40593"/><polygon points="-424.40593,0.14107 0.14107,-424.40593 282.70093,-141.84607 -141.84607,282.70093"/><polygon points="282.70093,-424.40593 424.40593,-282.70093 141.84607,-0.14107 0.14107,-141.84607"/></g><circle cx="0" cy="0" r="325" id="XYSlY2Vin2qxtvybeJL5_pad-25"/><g id="XYSlY2Vin2qxtvybeJL5_pad-26"><polygon points="141.421,459.619 -459.619,-141.421 -141.421,-459.619 459.619,141.421"/><circle cx="141.421" cy="459.619" r="225"/><circle cx="-459.619" cy="-141.421" r="225"/><circle cx="-141.421" cy="-459.619" r="225"/><circle cx="459.619" cy="141.421" r="225"/><polygon points="300.52003,300.51997 -300.51997,-300.52003 -618.71803,17.67803 -17.67803,618.71803"/><polygon points="-618.71803,-300.52003 -300.52003,-618.71803 17.67803,-300.51997 -300.51997,17.67803"/><polygon points="17.67803,-618.71803 618.71803,-17.67803 300.51997,300.52003 -300.52003,-300.51997"/><polygon points="300.51997,-17.67803 -17.67803,300.51997 300.52003,618.71803 618.71803,300.52003"/></g><g id="XYSlY2Vin2qxtvybeJL5_pad-27"><polygon points="-141.421,-353.978 353.978,141.421 141.421,353.978 -353.978,-141.421"/><circle cx="-141.421" cy="-353.978" r="299.7"/><circle cx="353.978" cy="141.421" r="299.7"/><circle cx="141.421" cy="353.978" r="299.7"/><circle cx="-353.978" cy="-141.421" r="299.7"/><polygon points="70.4989,-565.8979 565.8979,-70.4989 142.0581,353.3409 -353.3409,-142.0581"/><polygon points="142.0581,-70.4989 -70.4989,142.0581 353.3409,565.8979 565.8979,353.3409"/><polygon points="353.3409,142.0581 -142.0581,-353.3409 -565.8979,70.4989 -70.4989,565.8979"/><polygon points="-565.8979,-353.3409 -353.3409,-565.8979 70.4989,-142.0581 -142.0581,70.4989"/></g><g id="XYSlY2Vin2qxtvybeJL5_pad-28"><polygon points="141.421,353.978 -353.978,-141.421 -141.421,-353.978 353.978,141.421"/><circle cx="141.421" cy="353.978" r="299.7"/><circle cx="-353.978" cy="-141.421" r="299.7"/><circle cx="-141.421" cy="-353.978" r="299.7"/><circle cx="353.978" cy="141.421" r="299.7"/><polygon points="353.3409,142.0581 -142.0581,-353.3409 -565.8979,70.4989 -70.4989,565.8979"/><polygon points="-565.8979,-353.3409 -353.3409,-565.8979 70.4989,-142.0581 -142.0581,70.4989"/><polygon points="70.4989,-565.8979 565.8979,-70.4989 142.0581,353.3409 -353.3409,-142.0581"/><polygon points="142.0581,-70.4989 -70.4989,142.0581 353.3409,565.8979 565.8979,353.3409"/></g><rect x="-650" y="-500" width="1300" height="1000" id="XYSlY2Vin2qxtvybeJL5_pad-29"/><rect x="-700" y="-500" width="1400" height="1000" rx="500" ry="500" id="XYSlY2Vin2qxtvybeJL5_pad-30"/><g id="b9agJ7ug4WYZrS9aLdnX_pad-10"><polygon points="-141.421,-353.978 353.978,141.421 141.421,353.978 -353.978,-141.421"/><circle cx="-141.421" cy="-353.978" r="299.7"/><circle cx="353.978" cy="141.421" r="299.7"/><circle cx="141.421" cy="353.978" r="299.7"/><circle cx="-353.978" cy="-141.421" r="299.7"/><polygon points="70.4989,-565.8979 565.8979,-70.4989 142.0581,353.3409 -353.3409,-142.0581"/><polygon points="142.0581,-70.4989 -70.4989,142.0581 353.3409,565.8979 565.8979,353.3409"/><polygon points="353.3409,142.0581 -142.0581,-353.3409 -565.8979,70.4989 -70.4989,565.8979"/><polygon points="-565.8979,-353.3409 -353.3409,-565.8979 70.4989,-142.0581 -142.0581,70.4989"/></g><rect x="-650" y="-500" width="1300" height="1000" id="b9agJ7ug4WYZrS9aLdnX_pad-11"/><rect x="-700" y="-500" width="1400" height="1000" rx="500" ry="500" id="b9agJ7ug4WYZrS9aLdnX_pad-12"/><polygon points="-212.13203,-1060.66017 -1060.66017,-212.13203 212.13203,1060.66017 1060.66017,212.13203" id="oj735TLyqqyQoUsgeccQ_pad-10"/><circle cx="0" cy="0" r="1000" id="oj735TLyqqyQoUsgeccQ_pad-11"/><circle cx="0" cy="0" r="800" id="oj735TLyqqyQoUsgeccQ_pad-12"/><rect x="-800" y="-800" width="1600" height="1600" id="oj735TLyqqyQoUsgeccQ_pad-13"/><polygon points="500,125 500,-125 -500,-125 -500,125 500,125" id="oj735TLyqqyQoUsgeccQ_pad-14"/><polygon points="-200,600 400,0 -200,-600 -400,-600 -400,600 -200,600" id="oj735TLyqqyQoUsgeccQ_pad-15"/><polygon points="200,-600 -400,0 200,600 400,600 400,-600 200,-600" id="oj735TLyqqyQoUsgeccQ_pad-16"/><polygon points="-500,-125 -500,125 500,125 500,-125 -500,-125" id="oj735TLyqqyQoUsgeccQ_pad-17"/><polygon points="-250,-600 -250,600 1000,600 400,0 1000,-600 -250,-600" id="oj735TLyqqyQoUsgeccQ_pad-18"/><polygon points="250,600 250,-600 -1000,-600 -400,0 -1000,600 250,600" id="oj735TLyqqyQoUsgeccQ_pad-19"/><circle cx="0" cy="0" r="1200" id="oj735TLyqqyQoUsgeccQ_pad-20"/><circle cx="0" cy="0" r="762" id="oj735TLyqqyQoUsgeccQ_pad-21"/><g id="oj735TLyqqyQoUsgeccQ_pad-22"><polygon points="-381,-381 381,-381 381,381 -381,381"/><circle cx="-381" cy="-381" r="381"/><circle cx="381" cy="-381" r="381"/><circle cx="381" cy="381" r="381"/><circle cx="-381" cy="381" r="381"/><polygon points="-381,-762 381,-762 381,0 -381,0"/><polygon points="762,-381 762,381 0,381 0,-381"/><polygon points="381,0 -381,0 -381,762 381,762"/><polygon points="0,381 0,-381 -762,-381 -762,381"/></g><g id="oj735TLyqqyQoUsgeccQ_pad-23"><polygon points="283.126,-141.421 -141.421,283.126 -283.126,141.421 141.421,-283.126"/><circle cx="283.126" cy="-141.421" r="199.8"/><circle cx="-141.421" cy="283.126" r="199.8"/><circle cx="-283.126" cy="141.421" r="199.8"/><circle cx="141.421" cy="-283.126" r="199.8"/><polygon points="141.84607,-282.70093 -282.70093,141.84607 -0.14107,424.40593 424.40593,-0.14107"/><polygon points="-0.14107,141.84607 -141.84607,0.14107 -424.40593,282.70093 -282.70093,424.40593"/><polygon points="-424.40593,0.14107 0.14107,-424.40593 282.70093,-141.84607 -141.84607,282.70093"/><polygon points="282.70093,-424.40593 424.40593,-282.70093 141.84607,-0.14107 0.14107,-141.84607"/></g><g id="oj735TLyqqyQoUsgeccQ_pad-24"><polygon points="141.421,459.619 -459.619,-141.421 -141.421,-459.619 459.619,141.421"/><circle cx="141.421" cy="459.619" r="225"/><circle cx="-459.619" cy="-141.421" r="225"/><circle cx="-141.421" cy="-459.619" r="225"/><circle cx="459.619" cy="141.421" r="225"/><polygon points="300.52003,300.51997 -300.51997,-300.52003 -618.71803,17.67803 -17.67803,618.71803"/><polygon points="-618.71803,-300.52003 -300.52003,-618.71803 17.67803,-300.51997 -300.51997,17.67803"/><polygon points="17.67803,-618.71803 618.71803,-17.67803 300.51997,300.52003 -300.52003,-300.51997"/><polygon points="300.51997,-17.67803 -17.67803,300.51997 300.52003,618.71803 618.71803,300.52003"/></g><g id="oj735TLyqqyQoUsgeccQ_pad-25"><polygon points="-141.421,-353.978 353.978,141.421 141.421,353.978 -353.978,-141.421"/><circle cx="-141.421" cy="-353.978" r="299.7"/><circle cx="353.978" cy="141.421" r="299.7"/><circle cx="141.421" cy="353.978" r="299.7"/><circle cx="-353.978" cy="-141.421" r="299.7"/><polygon points="70.4989,-565.8979 565.8979,-70.4989 142.0581,353.3409 -353.3409,-142.0581"/><polygon points="142.0581,-70.4989 -70.4989,142.0581 353.3409,565.8979 565.8979,353.3409"/><polygon points="353.3409,142.0581 -142.0581,-353.3409 -565.8979,70.4989 -70.4989,565.8979"/><polygon points="-565.8979,-353.3409 -353.3409,-565.8979 70.4989,-142.0581 -142.0581,70.4989"/></g><g id="oj735TLyqqyQoUsgeccQ_pad-26"><polygon points="141.421,353.978 -353.978,-141.421 -141.421,-353.978 353.978,141.421"/><circle cx="141.421" cy="353.978" r="299.7"/><circle cx="-353.978" cy="-141.421" r="299.7"/><circle cx="-141.421" cy="-353.978" r="299.7"/><circle cx="353.978" cy="141.421" r="299.7"/><polygon points="353.3409,142.0581 -142.0581,-353.3409 -565.8979,70.4989 -70.4989,565.8979"/><polygon points="-565.8979,-353.3409 -353.3409,-565.8979 70.4989,-142.0581 -142.0581,70.4989"/><polygon points="70.4989,-565.8979 565.8979,-70.4989 142.0581,353.3409 -353.3409,-142.0581"/><polygon points="142.0581,-70.4989 -70.4989,142.0581 353.3409,565.8979 565.8979,353.3409"/></g><rect x="-650" y="-500" width="1300" height="1000" id="oj735TLyqqyQoUsgeccQ_pad-27"/><rect x="-700" y="-500" width="1400" height="1000" rx="500" ry="500" id="oj735TLyqqyQoUsgeccQ_pad-28"/><circle cx="0" cy="0" r="300" id="oj735TLyqqyQoUsgeccQ_pad-29"/><circle cx="0" cy="0" r="325" id="eejEgZ1F8tvv7nS1GZo7_pad-1"/><circle cx="0" cy="0" r="850" id="eejEgZ1F8tvv7nS1GZo7_pad-2"/><circle cx="0" cy="0" r="1050" id="eejEgZ1F8tvv7nS1GZo7_pad-3"/><circle cx="0" cy="0" r="1700" id="eejEgZ1F8tvv7nS1GZo7_pad-4"/><circle cx="0" cy="0" r="150" id="tmb8dofds0aKBAQrrX5F_pad-1"/><circle cx="0" cy="0" r="200" id="tmb8dofds0aKBAQrrX5F_pad-2"/><circle cx="0" cy="0" r="500" id="tmb8dofds0aKBAQrrX5F_pad-3"/><circle cx="0" cy="0" r="550" id="tmb8dofds0aKBAQrrX5F_pad-4"/><circle cx="0" cy="0" r="600" id="tmb8dofds0aKBAQrrX5F_pad-5"/><g id="gFDqMs30wWBy8dtwwff__bottom_silkscreen"><g mask="url(#Vu2QgLzeQwd4xUM5FNHI_clear-1)"><path d="M 35170.857 -38683.895 35170.857 -43683.895 32885.142 -38683.895 32885.142 -43683.895 M 50839.904 -60257.704 51030.38 -60495.8 51601.809 -60733.895 51982.761 -60733.895 52554.19 -60495.8 52935.142 -60019.609 53125.619 -59543.419 53316.095 -58591.038 53316.095 -57876.752 53125.619 -56924.371 52935.142 -56448.18 52554.19 -55971.99 51982.761 -55733.895 51601.809 -55733.895 51030.38 -55971.99 50839.904 -56210.085 M 53030.38 -42255.323 51125.618 -42255.323 M 53411.332 -43683.895 52077.999 -38683.895 50744.665 -43683.895 M 88558.952 -38683.895 87797.047 -38683.895 87416.095 -38921.99 87035.142 -39398.18 86844.666 -40350.561 86844.666 -42017.228 87035.142 -42969.609 87416.095 -43445.8 87797.047 -43683.895 88558.952 -43683.895 88939.904 -43445.8 89320.857 -42969.609 89511.333 -42017.228 89511.333 -40350.561 89320.857 -39398.18 88939.904 -38921.99 88558.952 -38683.895 M 35075.619 -60733.895 35075.619 -55733.895 33551.809 -55733.895 33170.857 -55971.99 32980.38 -56210.085 32789.904 -56686.276 32789.904 -57400.561 32980.38 -57876.752 33170.857 -58114.847 33551.809 -58352.942 35075.619 -58352.942 M 89320.857 -60733.895 89320.857 -55733.895 M 89320.857 -58114.847 87035.142 -58114.847 M 87035.142 -60733.895 87035.142 -55733.895" fill="none" stroke-width="600"/><path d="M 116178.065 -56248.533 109178.065 -52915.199 M 116178.065 -52915.199 109178.065 -56248.533 M 111844.732 -51010.437 111844.732 -47200.914 M 109178.065 -44819.961 116178.065 -44819.961 M 111844.732 -44343.771 109178.065 -42915.199 M 113844.732 -42915.199 111178.065 -44819.961 M 109511.399 -38867.58 109178.065 -39343.771 109178.065 -40296.152 109511.399 -40772.342 110178.065 -41010.438 112844.732 -41010.438 113511.399 -40772.342 113844.732 -40296.152 113844.732 -39343.771 113511.399 -38867.58 112844.732 -38629.485 112178.065 -38629.485 111511.399 -41010.438 M 113844.732 -36962.819 109178.065 -35772.343 M 113844.732 -34581.866 109178.065 -35772.343 107511.399 -36248.533 107178.065 -36486.628 106844.732 -36962.819" fill="none" stroke-width="900"/><path d="M 71270.856 -55733.895 68985.142 -55733.895 M 70127.999 -60733.895 70127.999 -55733.895 M 70985.143 -41064.847 69651.809 -41064.847 M 69080.381 -43683.895 70985.143 -43683.895 70985.143 -38683.895 69080.381 -38683.895" fill="none" stroke-width="600"/><path d="M 83932.6 -63169.8 A 900 900 0 0 0 82132.6 -63169.8 900 900 0 0 0 83932.6 -63169.8 M 118907.8 -30875.4 120609.6 -30875.4 M 118907.8 -32602.6 118907.8 -30875.4 M 120609.6 -32602.6 118907.8 -32602.6 M 120609.6 -32602.6 120609.6 -30875.4" fill="none" stroke-width="120"/><path d="M 82068.702 -70718.502 83084.702 -69702.502 M 76648.318 -63563.698 A 718.42 718.42 0 0 0 75211.478 -63563.698 718.42 718.42 0 0 0 76648.318 -63563.698" fill="none" stroke-width="300"/></g></g><g id="gFDqMs30wWBy8dtwwff__bottom_soldermask"><path d="M 107080 -32247 106064 -32247 106064 -31231 107080 -31231 107080 -32247" fill="none" stroke-width="100"/><path d="M 107080 -32247 106064 -32247 106064 -31231 107080 -31231 107080 -32247"/><path d="M 107080 -34787 106064 -34787 106064 -33771 107080 -33771 107080 -34787" fill="none" stroke-width="100"/><path d="M 107080 -34787 106064 -34787 106064 -33771 107080 -33771 107080 -34787"/><path d="M 107080 -37327 106064 -37327 106064 -36311 107080 -36311 107080 -37327" fill="none" stroke-width="100"/><path d="M 107080 -37327 106064 -37327 106064 -36311 107080 -36311 107080 -37327"/><path d="M 107080 -39867 106064 -39867 106064 -38851 107080 -38851 107080 -39867" fill="none" stroke-width="100"/><path d="M 107080 -39867 106064 -39867 106064 -38851 107080 -38851 107080 -39867"/><path d="M 107080 -42407 106064 -42407 106064 -41391 107080 -41391 107080 -42407" fill="none" stroke-width="100"/><path d="M 107080 -42407 106064 -42407 106064 -41391 107080 -41391 107080 -42407"/><path d="M 107080 -44947 106064 -44947 106064 -43931 107080 -43931 107080 -44947" fill="none" stroke-width="100"/><path d="M 107080 -44947 106064 -44947 106064 -43931 107080 -43931 107080 -44947"/><path d="M 107080 -47487 106064 -47487 106064 -46471 107080 -46471 107080 -47487" fill="none" stroke-width="100"/><path d="M 107080 -47487 106064 -47487 106064 -46471 107080 -46471 107080 -47487"/><path d="M 107080 -50027 106064 -50027 106064 -49011 107080 -49011 107080 -50027" fill="none" stroke-width="100"/><path d="M 107080 -50027 106064 -50027 106064 -49011 107080 -49011 107080 -50027"/><path d="M 107080 -52567 106064 -52567 106064 -51551 107080 -51551 107080 -52567" fill="none" stroke-width="100"/><path d="M 107080 -52567 106064 -52567 106064 -51551 107080 -51551 107080 -52567"/><path d="M 107080 -55107 106064 -55107 106064 -54091 107080 -54091 107080 -55107" fill="none" stroke-width="100"/><path d="M 107080 -55107 106064 -55107 106064 -54091 107080 -54091 107080 -55107"/><path d="M 107080 -57647 106064 -57647 106064 -56631 107080 -56631 107080 -57647" fill="none" stroke-width="100"/><path d="M 107080 -57647 106064 -57647 106064 -56631 107080 -56631 107080 -57647"/><path d="M 107080 -60187 106064 -60187 106064 -59171 107080 -59171 107080 -60187" fill="none" stroke-width="100"/><path d="M 107080 -60187 106064 -60187 106064 -59171 107080 -59171 107080 -60187"/><path d="M 118256 -32247 117240 -32247 117240 -31231 118256 -31231 118256 -32247" fill="none" stroke-width="100"/><path d="M 118256 -32247 117240 -32247 117240 -31231 118256 -31231 118256 -32247"/><path d="M 118256 -34787 117240 -34787 117240 -33771 118256 -33771 118256 -34787" fill="none" stroke-width="100"/><path d="M 118256 -34787 117240 -34787 117240 -33771 118256 -33771 118256 -34787"/><path d="M 118256 -37327 117240 -37327 117240 -36311 118256 -36311 118256 -37327" fill="none" stroke-width="100"/><path d="M 118256 -37327 117240 -37327 117240 -36311 118256 -36311 118256 -37327"/><path d="M 118256 -39867 117240 -39867 117240 -38851 118256 -38851 118256 -39867" fill="none" stroke-width="100"/><path d="M 118256 -39867 117240 -39867 117240 -38851 118256 -38851 118256 -39867"/><path d="M 118256 -42407 117240 -42407 117240 -41391 118256 -41391 118256 -42407" fill="none" stroke-width="100"/><path d="M 118256 -42407 117240 -42407 117240 -41391 118256 -41391 118256 -42407"/><path d="M 118256 -44947 117240 -44947 117240 -43931 118256 -43931 118256 -44947" fill="none" stroke-width="100"/><path d="M 118256 -44947 117240 -44947 117240 -43931 118256 -43931 118256 -44947"/><path d="M 118256 -47487 117240 -47487 117240 -46471 118256 -46471 118256 -47487" fill="none" stroke-width="100"/><path d="M 118256 -47487 117240 -47487 117240 -46471 118256 -46471 118256 -47487"/><path d="M 118256 -50027 117240 -50027 117240 -49011 118256 -49011 118256 -50027" fill="none" stroke-width="100"/><path d="M 118256 -50027 117240 -50027 117240 -49011 118256 -49011 118256 -50027"/><path d="M 118256 -52567 117240 -52567 117240 -51551 118256 -51551 118256 -52567" fill="none" stroke-width="100"/><path d="M 118256 -52567 117240 -52567 117240 -51551 118256 -51551 118256 -52567"/><path d="M 118256 -55107 117240 -55107 117240 -54091 118256 -54091 118256 -55107" fill="none" stroke-width="100"/><path d="M 118256 -55107 117240 -55107 117240 -54091 118256 -54091 118256 -55107"/><path d="M 118256 -57647 117240 -57647 117240 -56631 118256 -56631 118256 -57647" fill="none" stroke-width="100"/><path d="M 118256 -57647 117240 -57647 117240 -56631 118256 -56631 118256 -57647"/><path d="M 118256 -60187 117240 -60187 117240 -59171 118256 -59171 118256 -60187" fill="none" stroke-width="100"/><path d="M 118256 -60187 117240 -60187 117240 -59171 118256 -59171 118256 -60187"/><use xlink:href="#XYSlY2Vin2qxtvybeJL5_pad-11" x="84729.656" y="-64866.856"/><use xlink:href="#XYSlY2Vin2qxtvybeJL5_pad-11" x="81335.544" y="-61472.744"/><use xlink:href="#XYSlY2Vin2qxtvybeJL5_pad-12" x="70206" y="-52918"/><use xlink:href="#XYSlY2Vin2qxtvybeJL5_pad-13" x="75706" y="-52918"/><use xlink:href="#XYSlY2Vin2qxtvybeJL5_pad-12" x="81206" y="-52918"/><use xlink:href="#XYSlY2Vin2qxtvybeJL5_pad-14" x="75706" y="-47018"/><use xlink:href="#XYSlY2Vin2qxtvybeJL5_pad-14" x="70706" y="-49118"/><use xlink:href="#XYSlY2Vin2qxtvybeJL5_pad-14" x="80706" y="-49118"/><use xlink:href="#XYSlY2Vin2qxtvybeJL5_pad-12" x="106306" y="-69968"/><use xlink:href="#XYSlY2Vin2qxtvybeJL5_pad-13" x="111806" y="-69968"/><use xlink:href="#XYSlY2Vin2qxtvybeJL5_pad-12" x="117306" y="-69968"/><use xlink:href="#XYSlY2Vin2qxtvybeJL5_pad-14" x="111806" y="-64068"/><use xlink:href="#XYSlY2Vin2qxtvybeJL5_pad-14" x="106806" y="-66168"/><use xlink:href="#XYSlY2Vin2qxtvybeJL5_pad-14" x="116806" y="-66168"/><use xlink:href="#XYSlY2Vin2qxtvybeJL5_pad-12" x="88256" y="-69968"/><use xlink:href="#XYSlY2Vin2qxtvybeJL5_pad-13" x="93756" y="-69968"/><use xlink:href="#XYSlY2Vin2qxtvybeJL5_pad-12" x="99256" y="-69968"/><use xlink:href="#XYSlY2Vin2qxtvybeJL5_pad-14" x="93756" y="-64068"/><use xlink:href="#XYSlY2Vin2qxtvybeJL5_pad-14" x="88756" y="-66168"/><use xlink:href="#XYSlY2Vin2qxtvybeJL5_pad-14" x="98756" y="-66168"/><use xlink:href="#XYSlY2Vin2qxtvybeJL5_pad-12" x="88256" y="-52918"/><use xlink:href="#XYSlY2Vin2qxtvybeJL5_pad-13" x="93756" y="-52918"/><use xlink:href="#XYSlY2Vin2qxtvybeJL5_pad-12" x="99256" y="-52918"/><use xlink:href="#XYSlY2Vin2qxtvybeJL5_pad-14" x="93756" y="-47018"/><use xlink:href="#XYSlY2Vin2qxtvybeJL5_pad-14" x="88756" y="-49118"/><use xlink:href="#XYSlY2Vin2qxtvybeJL5_pad-14" x="98756" y="-49118"/><use xlink:href="#XYSlY2Vin2qxtvybeJL5_pad-12" x="88256" y="-35868"/><use xlink:href="#XYSlY2Vin2qxtvybeJL5_pad-13" x="93756" y="-35868"/><use xlink:href="#XYSlY2Vin2qxtvybeJL5_pad-12" x="99256" y="-35868"/><use xlink:href="#XYSlY2Vin2qxtvybeJL5_pad-14" x="93756" y="-29968"/><use xlink:href="#XYSlY2Vin2qxtvybeJL5_pad-14" x="88756" y="-32068"/><use xlink:href="#XYSlY2Vin2qxtvybeJL5_pad-14" x="98756" y="-32068"/><use xlink:href="#XYSlY2Vin2qxtvybeJL5_pad-12" x="70206" y="-35868"/><use xlink:href="#XYSlY2Vin2qxtvybeJL5_pad-13" x="75706" y="-35868"/><use xlink:href="#XYSlY2Vin2qxtvybeJL5_pad-12" x="81206" y="-35868"/><use xlink:href="#XYSlY2Vin2qxtvybeJL5_pad-14" x="75706" y="-29968"/><use xlink:href="#XYSlY2Vin2qxtvybeJL5_pad-14" x="70706" y="-32068"/><use xlink:href="#XYSlY2Vin2qxtvybeJL5_pad-14" x="80706" y="-32068"/><use xlink:href="#XYSlY2Vin2qxtvybeJL5_pad-12" x="34106" y="-52918"/><use xlink:href="#XYSlY2Vin2qxtvybeJL5_pad-13" x="39606" y="-52918"/><use xlink:href="#XYSlY2Vin2qxtvybeJL5_pad-12" x="45106" y="-52918"/><use xlink:href="#XYSlY2Vin2qxtvybeJL5_pad-14" x="39606" y="-47018"/><use xlink:href="#XYSlY2Vin2qxtvybeJL5_pad-14" x="34606" y="-49118"/><use xlink:href="#XYSlY2Vin2qxtvybeJL5_pad-14" x="44606" y="-49118"/><use xlink:href="#XYSlY2Vin2qxtvybeJL5_pad-12" x="34106" y="-35868"/><use xlink:href="#XYSlY2Vin2qxtvybeJL5_pad-13" x="39606" y="-35868"/><use xlink:href="#XYSlY2Vin2qxtvybeJL5_pad-12" x="45106" y="-35868"/><use xlink:href="#XYSlY2Vin2qxtvybeJL5_pad-14" x="39606" y="-29968"/><use xlink:href="#XYSlY2Vin2qxtvybeJL5_pad-14" x="34606" y="-32068"/><use xlink:href="#XYSlY2Vin2qxtvybeJL5_pad-14" x="44606" y="-32068"/><use xlink:href="#XYSlY2Vin2qxtvybeJL5_pad-12" x="52156" y="-35868"/><use xlink:href="#XYSlY2Vin2qxtvybeJL5_pad-13" x="57656" y="-35868"/><use xlink:href="#XYSlY2Vin2qxtvybeJL5_pad-12" x="63156" y="-35868"/><use xlink:href="#XYSlY2Vin2qxtvybeJL5_pad-14" x="57656" y="-29968"/><use xlink:href="#XYSlY2Vin2qxtvybeJL5_pad-14" x="52656" y="-32068"/><use xlink:href="#XYSlY2Vin2qxtvybeJL5_pad-14" x="62656" y="-32068"/><use xlink:href="#XYSlY2Vin2qxtvybeJL5_pad-12" x="52156" y="-52918"/><use xlink:href="#XYSlY2Vin2qxtvybeJL5_pad-13" x="57656" y="-52918"/><use xlink:href="#XYSlY2Vin2qxtvybeJL5_pad-12" x="63156" y="-52918"/><use xlink:href="#XYSlY2Vin2qxtvybeJL5_pad-14" x="57656" y="-47018"/><use xlink:href="#XYSlY2Vin2qxtvybeJL5_pad-14" x="52656" y="-49118"/><use xlink:href="#XYSlY2Vin2qxtvybeJL5_pad-14" x="62656" y="-49118"/><use xlink:href="#XYSlY2Vin2qxtvybeJL5_pad-15" x="104540" y="-31739"/><use xlink:href="#XYSlY2Vin2qxtvybeJL5_pad-15" x="104540" y="-34279"/><use xlink:href="#XYSlY2Vin2qxtvybeJL5_pad-15" x="104540" y="-36819"/><use xlink:href="#XYSlY2Vin2qxtvybeJL5_pad-15" x="104540" y="-39359"/><use xlink:href="#XYSlY2Vin2qxtvybeJL5_pad-15" x="104540" y="-41899"/><use xlink:href="#XYSlY2Vin2qxtvybeJL5_pad-15" x="104540" y="-44439"/><use xlink:href="#XYSlY2Vin2qxtvybeJL5_pad-15" x="104540" y="-46979"/><use xlink:href="#XYSlY2Vin2qxtvybeJL5_pad-15" x="104540" y="-49519"/><use xlink:href="#XYSlY2Vin2qxtvybeJL5_pad-15" x="104540" y="-52059"/><use xlink:href="#XYSlY2Vin2qxtvybeJL5_pad-15" x="104540" y="-54599"/><use xlink:href="#XYSlY2Vin2qxtvybeJL5_pad-15" x="104540" y="-57139"/><use xlink:href="#XYSlY2Vin2qxtvybeJL5_pad-15" x="104540" y="-59679"/><use xlink:href="#XYSlY2Vin2qxtvybeJL5_pad-16" x="106318" y="-31739"/><use xlink:href="#XYSlY2Vin2qxtvybeJL5_pad-16" x="106318" y="-34279"/><use xlink:href="#XYSlY2Vin2qxtvybeJL5_pad-16" x="106318" y="-36819"/><use xlink:href="#XYSlY2Vin2qxtvybeJL5_pad-16" x="106318" y="-39359"/><use xlink:href="#XYSlY2Vin2qxtvybeJL5_pad-16" x="106318" y="-41899"/><use xlink:href="#XYSlY2Vin2qxtvybeJL5_pad-16" x="106318" y="-44439"/><use xlink:href="#XYSlY2Vin2qxtvybeJL5_pad-16" x="106318" y="-46979"/><use xlink:href="#XYSlY2Vin2qxtvybeJL5_pad-16" x="106318" y="-49519"/><use xlink:href="#XYSlY2Vin2qxtvybeJL5_pad-16" x="106318" y="-52059"/><use xlink:href="#XYSlY2Vin2qxtvybeJL5_pad-16" x="106318" y="-54599"/><use xlink:href="#XYSlY2Vin2qxtvybeJL5_pad-16" x="106318" y="-57139"/><use xlink:href="#XYSlY2Vin2qxtvybeJL5_pad-16" x="106318" y="-59679"/><use xlink:href="#XYSlY2Vin2qxtvybeJL5_pad-17" x="118002" y="-31739"/><use xlink:href="#XYSlY2Vin2qxtvybeJL5_pad-17" x="118002" y="-34279"/><use xlink:href="#XYSlY2Vin2qxtvybeJL5_pad-17" x="118002" y="-36819"/><use xlink:href="#XYSlY2Vin2qxtvybeJL5_pad-17" x="118002" y="-39359"/><use xlink:href="#XYSlY2Vin2qxtvybeJL5_pad-17" x="118002" y="-41899"/><use xlink:href="#XYSlY2Vin2qxtvybeJL5_pad-17" x="118002" y="-44439"/><use xlink:href="#XYSlY2Vin2qxtvybeJL5_pad-17" x="118002" y="-46979"/><use xlink:href="#XYSlY2Vin2qxtvybeJL5_pad-17" x="118002" y="-49519"/><use xlink:href="#XYSlY2Vin2qxtvybeJL5_pad-17" x="118002" y="-52059"/><use xlink:href="#XYSlY2Vin2qxtvybeJL5_pad-17" x="118002" y="-54599"/><use xlink:href="#XYSlY2Vin2qxtvybeJL5_pad-17" x="118002" y="-57139"/><use xlink:href="#XYSlY2Vin2qxtvybeJL5_pad-17" x="118002" y="-59679"/><use xlink:href="#XYSlY2Vin2qxtvybeJL5_pad-15" x="119780" y="-31739"/><use xlink:href="#XYSlY2Vin2qxtvybeJL5_pad-18" x="119780" y="-31739"/><use xlink:href="#XYSlY2Vin2qxtvybeJL5_pad-15" x="119780" y="-34279"/><use xlink:href="#XYSlY2Vin2qxtvybeJL5_pad-15" x="119780" y="-36819"/><use xlink:href="#XYSlY2Vin2qxtvybeJL5_pad-15" x="119780" y="-39359"/><use xlink:href="#XYSlY2Vin2qxtvybeJL5_pad-15" x="119780" y="-41899"/><use xlink:href="#XYSlY2Vin2qxtvybeJL5_pad-15" x="119780" y="-44439"/><use xlink:href="#XYSlY2Vin2qxtvybeJL5_pad-15" x="119780" y="-46979"/><use xlink:href="#XYSlY2Vin2qxtvybeJL5_pad-15" x="119780" y="-49519"/><use xlink:href="#XYSlY2Vin2qxtvybeJL5_pad-15" x="119780" y="-52059"/><use xlink:href="#XYSlY2Vin2qxtvybeJL5_pad-15" x="119780" y="-54599"/><use xlink:href="#XYSlY2Vin2qxtvybeJL5_pad-15" x="119780" y="-57139"/><use xlink:href="#XYSlY2Vin2qxtvybeJL5_pad-15" x="119780" y="-59679"/><use xlink:href="#XYSlY2Vin2qxtvybeJL5_pad-19" x="116986" y="-31739"/><use xlink:href="#XYSlY2Vin2qxtvybeJL5_pad-19" x="116986" y="-34279"/><use xlink:href="#XYSlY2Vin2qxtvybeJL5_pad-19" x="116986" y="-36819"/><use xlink:href="#XYSlY2Vin2qxtvybeJL5_pad-19" x="116986" y="-39359"/><use xlink:href="#XYSlY2Vin2qxtvybeJL5_pad-19" x="116986" y="-41899"/><use xlink:href="#XYSlY2Vin2qxtvybeJL5_pad-19" x="116986" y="-44439"/><use xlink:href="#XYSlY2Vin2qxtvybeJL5_pad-19" x="116986" y="-46979"/><use xlink:href="#XYSlY2Vin2qxtvybeJL5_pad-19" x="116986" y="-49519"/><use xlink:href="#XYSlY2Vin2qxtvybeJL5_pad-19" x="116986" y="-52059"/><use xlink:href="#XYSlY2Vin2qxtvybeJL5_pad-19" x="116986" y="-54599"/><use xlink:href="#XYSlY2Vin2qxtvybeJL5_pad-19" x="116986" y="-57139"/><use xlink:href="#XYSlY2Vin2qxtvybeJL5_pad-19" x="116986" y="-59679"/><use xlink:href="#XYSlY2Vin2qxtvybeJL5_pad-20" x="107334" y="-59679"/><use xlink:href="#XYSlY2Vin2qxtvybeJL5_pad-20" x="107334" y="-57139"/><use xlink:href="#XYSlY2Vin2qxtvybeJL5_pad-20" x="107334" y="-54599"/><use xlink:href="#XYSlY2Vin2qxtvybeJL5_pad-20" x="107334" y="-52059"/><use xlink:href="#XYSlY2Vin2qxtvybeJL5_pad-20" x="107334" y="-49519"/><use xlink:href="#XYSlY2Vin2qxtvybeJL5_pad-20" x="107334" y="-46979"/><use xlink:href="#XYSlY2Vin2qxtvybeJL5_pad-20" x="107334" y="-44439"/><use xlink:href="#XYSlY2Vin2qxtvybeJL5_pad-20" x="107334" y="-41899"/><use xlink:href="#XYSlY2Vin2qxtvybeJL5_pad-20" x="107334" y="-39359"/><use xlink:href="#XYSlY2Vin2qxtvybeJL5_pad-20" x="107334" y="-36819"/><use xlink:href="#XYSlY2Vin2qxtvybeJL5_pad-20" x="107334" y="-34279"/><use xlink:href="#XYSlY2Vin2qxtvybeJL5_pad-20" x="107334" y="-31739"/><use xlink:href="#XYSlY2Vin2qxtvybeJL5_pad-21" x="48631" y="-44393"/><use xlink:href="#XYSlY2Vin2qxtvybeJL5_pad-21" x="84731" y="-44393"/><use xlink:href="#XYSlY2Vin2qxtvybeJL5_pad-21" x="111810.8" y="-59283.6"/><use xlink:href="#XYSlY2Vin2qxtvybeJL5_pad-22" x="104551.4" y="-28941"/><use xlink:href="#XYSlY2Vin2qxtvybeJL5_pad-23" x="119768.6" y="-28941"/><use xlink:href="#XYSlY2Vin2qxtvybeJL5_pad-24" x="75934.848" y="-65114.383"/><use xlink:href="#XYSlY2Vin2qxtvybeJL5_pad-24" x="77515.939" y="-63533.293"/><use xlink:href="#XYSlY2Vin2qxtvybeJL5_pad-25" x="78192.64" y="-65826.44"/><use xlink:href="#XYSlY2Vin2qxtvybeJL5_pad-25" x="80313.96" y="-67947.76"/><use xlink:href="#XYSlY2Vin2qxtvybeJL5_pad-24" x="82607.107" y="-68624.461"/><use xlink:href="#XYSlY2Vin2qxtvybeJL5_pad-24" x="81026.017" y="-70205.552"/><use xlink:href="#XYSlY2Vin2qxtvybeJL5_pad-26" x="82258.504" y="-67063.877"/><use xlink:href="#XYSlY2Vin2qxtvybeJL5_pad-27" x="80137.183" y="-64942.556"/><use xlink:href="#XYSlY2Vin2qxtvybeJL5_pad-28" x="79076.523" y="-63881.896"/><use xlink:href="#XYSlY2Vin2qxtvybeJL5_pad-29" x="96356" y="-41268"/><use xlink:href="#XYSlY2Vin2qxtvybeJL5_pad-29" x="96356" y="-39868"/><use xlink:href="#XYSlY2Vin2qxtvybeJL5_pad-30" x="91156" y="-39868"/><use xlink:href="#XYSlY2Vin2qxtvybeJL5_pad-29" x="91156" y="-41268"/><use xlink:href="#XYSlY2Vin2qxtvybeJL5_pad-29" x="109206" y="-73968"/><use xlink:href="#XYSlY2Vin2qxtvybeJL5_pad-29" x="109206" y="-75368"/><use xlink:href="#XYSlY2Vin2qxtvybeJL5_pad-30" x="114406" y="-75368"/><use xlink:href="#XYSlY2Vin2qxtvybeJL5_pad-29" x="114406" y="-73968"/><use xlink:href="#XYSlY2Vin2qxtvybeJL5_pad-29" x="91156" y="-73968"/><use xlink:href="#XYSlY2Vin2qxtvybeJL5_pad-29" x="91156" y="-75368"/><use xlink:href="#XYSlY2Vin2qxtvybeJL5_pad-30" x="96356" y="-75368"/><use xlink:href="#XYSlY2Vin2qxtvybeJL5_pad-29" x="96356" y="-73968"/><use xlink:href="#XYSlY2Vin2qxtvybeJL5_pad-29" x="91156" y="-56918"/><use xlink:href="#XYSlY2Vin2qxtvybeJL5_pad-29" x="91156" y="-58318"/><use xlink:href="#XYSlY2Vin2qxtvybeJL5_pad-30" x="96356" y="-58318"/><use xlink:href="#XYSlY2Vin2qxtvybeJL5_pad-29" x="96356" y="-56918"/><use xlink:href="#XYSlY2Vin2qxtvybeJL5_pad-29" x="73106" y="-56918"/><use xlink:href="#XYSlY2Vin2qxtvybeJL5_pad-29" x="73106" y="-58318"/><use xlink:href="#XYSlY2Vin2qxtvybeJL5_pad-30" x="78306" y="-58318"/><use xlink:href="#XYSlY2Vin2qxtvybeJL5_pad-29" x="78306" y="-56918"/><use xlink:href="#XYSlY2Vin2qxtvybeJL5_pad-29" x="55056" y="-56918"/><use xlink:href="#XYSlY2Vin2qxtvybeJL5_pad-29" x="55056" y="-58318"/><use xlink:href="#XYSlY2Vin2qxtvybeJL5_pad-30" x="60256" y="-58318"/><use xlink:href="#XYSlY2Vin2qxtvybeJL5_pad-29" x="60256" y="-56918"/><use xlink:href="#XYSlY2Vin2qxtvybeJL5_pad-29" x="37006" y="-56918"/><use xlink:href="#XYSlY2Vin2qxtvybeJL5_pad-29" x="37006" y="-58318"/><use xlink:href="#XYSlY2Vin2qxtvybeJL5_pad-30" x="42206" y="-58318"/><use xlink:href="#XYSlY2Vin2qxtvybeJL5_pad-29" x="42206" y="-56918"/><use xlink:href="#XYSlY2Vin2qxtvybeJL5_pad-29" x="42206" y="-41268"/><use xlink:href="#XYSlY2Vin2qxtvybeJL5_pad-29" x="42206" y="-39868"/><use xlink:href="#XYSlY2Vin2qxtvybeJL5_pad-30" x="37006" y="-39868"/><use xlink:href="#XYSlY2Vin2qxtvybeJL5_pad-29" x="37006" y="-41268"/><use xlink:href="#XYSlY2Vin2qxtvybeJL5_pad-29" x="60256" y="-41268"/><use xlink:href="#XYSlY2Vin2qxtvybeJL5_pad-29" x="60256" y="-39868"/><use xlink:href="#XYSlY2Vin2qxtvybeJL5_pad-30" x="55056" y="-39868"/><use xlink:href="#XYSlY2Vin2qxtvybeJL5_pad-29" x="55056" y="-41268"/><use xlink:href="#XYSlY2Vin2qxtvybeJL5_pad-29" x="78306" y="-41268"/><use xlink:href="#XYSlY2Vin2qxtvybeJL5_pad-29" x="78306" y="-39868"/><use xlink:href="#XYSlY2Vin2qxtvybeJL5_pad-30" x="73106" y="-39868"/><use xlink:href="#XYSlY2Vin2qxtvybeJL5_pad-29" x="73106" y="-41268"/></g><g id="gFDqMs30wWBy8dtwwff__bottom_solderpaste"><use xlink:href="#b9agJ7ug4WYZrS9aLdnX_pad-10" x="80137.183" y="-64942.556"/><use xlink:href="#b9agJ7ug4WYZrS9aLdnX_pad-11" x="96356" y="-41268"/><use xlink:href="#b9agJ7ug4WYZrS9aLdnX_pad-11" x="96356" y="-39868"/><use xlink:href="#b9agJ7ug4WYZrS9aLdnX_pad-12" x="91156" y="-39868"/><use xlink:href="#b9agJ7ug4WYZrS9aLdnX_pad-11" x="91156" y="-41268"/><use xlink:href="#b9agJ7ug4WYZrS9aLdnX_pad-11" x="109206" y="-73968"/><use xlink:href="#b9agJ7ug4WYZrS9aLdnX_pad-11" x="109206" y="-75368"/><use xlink:href="#b9agJ7ug4WYZrS9aLdnX_pad-12" x="114406" y="-75368"/><use xlink:href="#b9agJ7ug4WYZrS9aLdnX_pad-11" x="114406" y="-73968"/><use xlink:href="#b9agJ7ug4WYZrS9aLdnX_pad-11" x="91156" y="-73968"/><use xlink:href="#b9agJ7ug4WYZrS9aLdnX_pad-11" x="91156" y="-75368"/><use xlink:href="#b9agJ7ug4WYZrS9aLdnX_pad-12" x="96356" y="-75368"/><use xlink:href="#b9agJ7ug4WYZrS9aLdnX_pad-11" x="96356" y="-73968"/><use xlink:href="#b9agJ7ug4WYZrS9aLdnX_pad-11" x="91156" y="-56918"/><use xlink:href="#b9agJ7ug4WYZrS9aLdnX_pad-11" x="91156" y="-58318"/><use xlink:href="#b9agJ7ug4WYZrS9aLdnX_pad-12" x="96356" y="-58318"/><use xlink:href="#b9agJ7ug4WYZrS9aLdnX_pad-11" x="96356" y="-56918"/><use xlink:href="#b9agJ7ug4WYZrS9aLdnX_pad-11" x="73106" y="-56918"/><use xlink:href="#b9agJ7ug4WYZrS9aLdnX_pad-11" x="73106" y="-58318"/><use xlink:href="#b9agJ7ug4WYZrS9aLdnX_pad-12" x="78306" y="-58318"/><use xlink:href="#b9agJ7ug4WYZrS9aLdnX_pad-11" x="78306" y="-56918"/><use xlink:href="#b9agJ7ug4WYZrS9aLdnX_pad-11" x="55056" y="-56918"/><use xlink:href="#b9agJ7ug4WYZrS9aLdnX_pad-11" x="55056" y="-58318"/><use xlink:href="#b9agJ7ug4WYZrS9aLdnX_pad-12" x="60256" y="-58318"/><use xlink:href="#b9agJ7ug4WYZrS9aLdnX_pad-11" x="60256" y="-56918"/><use xlink:href="#b9agJ7ug4WYZrS9aLdnX_pad-11" x="37006" y="-56918"/><use xlink:href="#b9agJ7ug4WYZrS9aLdnX_pad-11" x="37006" y="-58318"/><use xlink:href="#b9agJ7ug4WYZrS9aLdnX_pad-12" x="42206" y="-58318"/><use xlink:href="#b9agJ7ug4WYZrS9aLdnX_pad-11" x="42206" y="-56918"/><use xlink:href="#b9agJ7ug4WYZrS9aLdnX_pad-11" x="42206" y="-41268"/><use xlink:href="#b9agJ7ug4WYZrS9aLdnX_pad-11" x="42206" y="-39868"/><use xlink:href="#b9agJ7ug4WYZrS9aLdnX_pad-12" x="37006" y="-39868"/><use xlink:href="#b9agJ7ug4WYZrS9aLdnX_pad-11" x="37006" y="-41268"/><use xlink:href="#b9agJ7ug4WYZrS9aLdnX_pad-11" x="60256" y="-41268"/><use xlink:href="#b9agJ7ug4WYZrS9aLdnX_pad-11" x="60256" y="-39868"/><use xlink:href="#b9agJ7ug4WYZrS9aLdnX_pad-12" x="55056" y="-39868"/><use xlink:href="#b9agJ7ug4WYZrS9aLdnX_pad-11" x="55056" y="-41268"/><use xlink:href="#b9agJ7ug4WYZrS9aLdnX_pad-11" x="78306" y="-41268"/><use xlink:href="#b9agJ7ug4WYZrS9aLdnX_pad-11" x="78306" y="-39868"/><use xlink:href="#b9agJ7ug4WYZrS9aLdnX_pad-12" x="73106" y="-39868"/><use xlink:href="#b9agJ7ug4WYZrS9aLdnX_pad-11" x="73106" y="-41268"/></g><g id="gFDqMs30wWBy8dtwwff__bottom_copper"><use xlink:href="#oj735TLyqqyQoUsgeccQ_pad-10" x="84729.656" y="-64866.856"/><use xlink:href="#oj735TLyqqyQoUsgeccQ_pad-10" x="81335.544" y="-61472.744"/><use xlink:href="#oj735TLyqqyQoUsgeccQ_pad-11" x="75706" y="-47018"/><use xlink:href="#oj735TLyqqyQoUsgeccQ_pad-11" x="70706" y="-49118"/><use xlink:href="#oj735TLyqqyQoUsgeccQ_pad-11" x="80706" y="-49118"/><use xlink:href="#oj735TLyqqyQoUsgeccQ_pad-11" x="111806" y="-64068"/><use xlink:href="#oj735TLyqqyQoUsgeccQ_pad-11" x="106806" y="-66168"/><use xlink:href="#oj735TLyqqyQoUsgeccQ_pad-11" x="116806" y="-66168"/><use xlink:href="#oj735TLyqqyQoUsgeccQ_pad-11" x="93756" y="-64068"/><use xlink:href="#oj735TLyqqyQoUsgeccQ_pad-11" x="88756" y="-66168"/><use xlink:href="#oj735TLyqqyQoUsgeccQ_pad-11" x="98756" y="-66168"/><use xlink:href="#oj735TLyqqyQoUsgeccQ_pad-11" x="93756" y="-47018"/><use xlink:href="#oj735TLyqqyQoUsgeccQ_pad-11" x="88756" y="-49118"/><use xlink:href="#oj735TLyqqyQoUsgeccQ_pad-11" x="98756" y="-49118"/><use xlink:href="#oj735TLyqqyQoUsgeccQ_pad-11" x="93756" y="-29968"/><use xlink:href="#oj735TLyqqyQoUsgeccQ_pad-11" x="88756" y="-32068"/><use xlink:href="#oj735TLyqqyQoUsgeccQ_pad-11" x="98756" y="-32068"/><use xlink:href="#oj735TLyqqyQoUsgeccQ_pad-11" x="75706" y="-29968"/><use xlink:href="#oj735TLyqqyQoUsgeccQ_pad-11" x="70706" y="-32068"/><use xlink:href="#oj735TLyqqyQoUsgeccQ_pad-11" x="80706" y="-32068"/><use xlink:href="#oj735TLyqqyQoUsgeccQ_pad-11" x="39606" y="-47018"/><use xlink:href="#oj735TLyqqyQoUsgeccQ_pad-11" x="34606" y="-49118"/><use xlink:href="#oj735TLyqqyQoUsgeccQ_pad-11" x="44606" y="-49118"/><use xlink:href="#oj735TLyqqyQoUsgeccQ_pad-11" x="39606" y="-29968"/><use xlink:href="#oj735TLyqqyQoUsgeccQ_pad-11" x="34606" y="-32068"/><use xlink:href="#oj735TLyqqyQoUsgeccQ_pad-11" x="44606" y="-32068"/><use xlink:href="#oj735TLyqqyQoUsgeccQ_pad-11" x="57656" y="-29968"/><use xlink:href="#oj735TLyqqyQoUsgeccQ_pad-11" x="52656" y="-32068"/><use xlink:href="#oj735TLyqqyQoUsgeccQ_pad-11" x="62656" y="-32068"/><use xlink:href="#oj735TLyqqyQoUsgeccQ_pad-11" x="57656" y="-47018"/><use xlink:href="#oj735TLyqqyQoUsgeccQ_pad-11" x="52656" y="-49118"/><use xlink:href="#oj735TLyqqyQoUsgeccQ_pad-11" x="62656" y="-49118"/><use xlink:href="#oj735TLyqqyQoUsgeccQ_pad-12" x="104540" y="-31739"/><use xlink:href="#oj735TLyqqyQoUsgeccQ_pad-13" x="104540" y="-31739"/><use xlink:href="#oj735TLyqqyQoUsgeccQ_pad-12" x="104540" y="-34279"/><use xlink:href="#oj735TLyqqyQoUsgeccQ_pad-12" x="104540" y="-36819"/><use xlink:href="#oj735TLyqqyQoUsgeccQ_pad-12" x="104540" y="-39359"/><use xlink:href="#oj735TLyqqyQoUsgeccQ_pad-12" x="104540" y="-41899"/><use xlink:href="#oj735TLyqqyQoUsgeccQ_pad-12" x="104540" y="-44439"/><use xlink:href="#oj735TLyqqyQoUsgeccQ_pad-12" x="104540" y="-46979"/><use xlink:href="#oj735TLyqqyQoUsgeccQ_pad-12" x="104540" y="-49519"/><use xlink:href="#oj735TLyqqyQoUsgeccQ_pad-12" x="104540" y="-52059"/><use xlink:href="#oj735TLyqqyQoUsgeccQ_pad-12" x="104540" y="-54599"/><use xlink:href="#oj735TLyqqyQoUsgeccQ_pad-12" x="104540" y="-57139"/><use xlink:href="#oj735TLyqqyQoUsgeccQ_pad-12" x="104540" y="-59679"/><use xlink:href="#oj735TLyqqyQoUsgeccQ_pad-14" x="105810" y="-31739"/><use xlink:href="#oj735TLyqqyQoUsgeccQ_pad-14" x="105810" y="-34279"/><use xlink:href="#oj735TLyqqyQoUsgeccQ_pad-14" x="105810" y="-36819"/><use xlink:href="#oj735TLyqqyQoUsgeccQ_pad-14" x="105810" y="-39359"/><use xlink:href="#oj735TLyqqyQoUsgeccQ_pad-14" x="105810" y="-41899"/><use xlink:href="#oj735TLyqqyQoUsgeccQ_pad-14" x="105810" y="-44439"/><use xlink:href="#oj735TLyqqyQoUsgeccQ_pad-14" x="105810" y="-46979"/><use xlink:href="#oj735TLyqqyQoUsgeccQ_pad-14" x="105810" y="-49519"/><use xlink:href="#oj735TLyqqyQoUsgeccQ_pad-14" x="105810" y="-52059"/><use xlink:href="#oj735TLyqqyQoUsgeccQ_pad-14" x="105810" y="-54599"/><use xlink:href="#oj735TLyqqyQoUsgeccQ_pad-14" x="105810" y="-57139"/><use xlink:href="#oj735TLyqqyQoUsgeccQ_pad-14" x="105810" y="-59679"/><use xlink:href="#oj735TLyqqyQoUsgeccQ_pad-15" x="106318" y="-31739"/><use xlink:href="#oj735TLyqqyQoUsgeccQ_pad-15" x="106318" y="-34279"/><use xlink:href="#oj735TLyqqyQoUsgeccQ_pad-15" x="106318" y="-36819"/><use xlink:href="#oj735TLyqqyQoUsgeccQ_pad-15" x="106318" y="-39359"/><use xlink:href="#oj735TLyqqyQoUsgeccQ_pad-15" x="106318" y="-41899"/><use xlink:href="#oj735TLyqqyQoUsgeccQ_pad-15" x="106318" y="-44439"/><use xlink:href="#oj735TLyqqyQoUsgeccQ_pad-15" x="106318" y="-46979"/><use xlink:href="#oj735TLyqqyQoUsgeccQ_pad-15" x="106318" y="-49519"/><use xlink:href="#oj735TLyqqyQoUsgeccQ_pad-15" x="106318" y="-52059"/><use xlink:href="#oj735TLyqqyQoUsgeccQ_pad-15" x="106318" y="-54599"/><use xlink:href="#oj735TLyqqyQoUsgeccQ_pad-15" x="106318" y="-57139"/><use xlink:href="#oj735TLyqqyQoUsgeccQ_pad-15" x="106318" y="-59679"/><use xlink:href="#oj735TLyqqyQoUsgeccQ_pad-16" x="118002" y="-31739"/><use xlink:href="#oj735TLyqqyQoUsgeccQ_pad-16" x="118002" y="-34279"/><use xlink:href="#oj735TLyqqyQoUsgeccQ_pad-16" x="118002" y="-36819"/><use xlink:href="#oj735TLyqqyQoUsgeccQ_pad-16" x="118002" y="-39359"/><use xlink:href="#oj735TLyqqyQoUsgeccQ_pad-16" x="118002" y="-41899"/><use xlink:href="#oj735TLyqqyQoUsgeccQ_pad-16" x="118002" y="-44439"/><use xlink:href="#oj735TLyqqyQoUsgeccQ_pad-16" x="118002" y="-46979"/><use xlink:href="#oj735TLyqqyQoUsgeccQ_pad-16" x="118002" y="-49519"/><use xlink:href="#oj735TLyqqyQoUsgeccQ_pad-16" x="118002" y="-52059"/><use xlink:href="#oj735TLyqqyQoUsgeccQ_pad-16" x="118002" y="-54599"/><use xlink:href="#oj735TLyqqyQoUsgeccQ_pad-16" x="118002" y="-57139"/><use xlink:href="#oj735TLyqqyQoUsgeccQ_pad-16" x="118002" y="-59679"/><use xlink:href="#oj735TLyqqyQoUsgeccQ_pad-17" x="118510" y="-31739"/><use xlink:href="#oj735TLyqqyQoUsgeccQ_pad-17" x="118510" y="-34279"/><use xlink:href="#oj735TLyqqyQoUsgeccQ_pad-17" x="118510" y="-36819"/><use xlink:href="#oj735TLyqqyQoUsgeccQ_pad-17" x="118510" y="-39359"/><use xlink:href="#oj735TLyqqyQoUsgeccQ_pad-17" x="118510" y="-41899"/><use xlink:href="#oj735TLyqqyQoUsgeccQ_pad-17" x="118510" y="-44439"/><use xlink:href="#oj735TLyqqyQoUsgeccQ_pad-17" x="118510" y="-46979"/><use xlink:href="#oj735TLyqqyQoUsgeccQ_pad-17" x="118510" y="-49519"/><use xlink:href="#oj735TLyqqyQoUsgeccQ_pad-17" x="118510" y="-52059"/><use xlink:href="#oj735TLyqqyQoUsgeccQ_pad-17" x="118510" y="-54599"/><use xlink:href="#oj735TLyqqyQoUsgeccQ_pad-17" x="118510" y="-57139"/><use xlink:href="#oj735TLyqqyQoUsgeccQ_pad-17" x="118510" y="-59679"/><use xlink:href="#oj735TLyqqyQoUsgeccQ_pad-12" x="119780" y="-31739"/><use xlink:href="#oj735TLyqqyQoUsgeccQ_pad-13" x="119780" y="-31739"/><use xlink:href="#oj735TLyqqyQoUsgeccQ_pad-12" x="119780" y="-34279"/><use xlink:href="#oj735TLyqqyQoUsgeccQ_pad-12" x="119780" y="-36819"/><use xlink:href="#oj735TLyqqyQoUsgeccQ_pad-12" x="119780" y="-39359"/><use xlink:href="#oj735TLyqqyQoUsgeccQ_pad-12" x="119780" y="-41899"/><use xlink:href="#oj735TLyqqyQoUsgeccQ_pad-12" x="119780" y="-44439"/><use xlink:href="#oj735TLyqqyQoUsgeccQ_pad-12" x="119780" y="-46979"/><use xlink:href="#oj735TLyqqyQoUsgeccQ_pad-12" x="119780" y="-49519"/><use xlink:href="#oj735TLyqqyQoUsgeccQ_pad-12" x="119780" y="-52059"/><use xlink:href="#oj735TLyqqyQoUsgeccQ_pad-12" x="119780" y="-54599"/><use xlink:href="#oj735TLyqqyQoUsgeccQ_pad-12" x="119780" y="-57139"/><use xlink:href="#oj735TLyqqyQoUsgeccQ_pad-12" x="119780" y="-59679"/><use xlink:href="#oj735TLyqqyQoUsgeccQ_pad-18" x="116986" y="-31739"/><use xlink:href="#oj735TLyqqyQoUsgeccQ_pad-18" x="116986" y="-34279"/><use xlink:href="#oj735TLyqqyQoUsgeccQ_pad-18" x="116986" y="-36819"/><use xlink:href="#oj735TLyqqyQoUsgeccQ_pad-18" x="116986" y="-39359"/><use xlink:href="#oj735TLyqqyQoUsgeccQ_pad-18" x="116986" y="-41899"/><use xlink:href="#oj735TLyqqyQoUsgeccQ_pad-18" x="116986" y="-44439"/><use xlink:href="#oj735TLyqqyQoUsgeccQ_pad-18" x="116986" y="-46979"/><use xlink:href="#oj735TLyqqyQoUsgeccQ_pad-18" x="116986" y="-49519"/><use xlink:href="#oj735TLyqqyQoUsgeccQ_pad-18" x="116986" y="-52059"/><use xlink:href="#oj735TLyqqyQoUsgeccQ_pad-18" x="116986" y="-54599"/><use xlink:href="#oj735TLyqqyQoUsgeccQ_pad-18" x="116986" y="-57139"/><use xlink:href="#oj735TLyqqyQoUsgeccQ_pad-18" x="116986" y="-59679"/><use xlink:href="#oj735TLyqqyQoUsgeccQ_pad-19" x="107334" y="-59679"/><use xlink:href="#oj735TLyqqyQoUsgeccQ_pad-19" x="107334" y="-57139"/><use xlink:href="#oj735TLyqqyQoUsgeccQ_pad-19" x="107334" y="-54599"/><use xlink:href="#oj735TLyqqyQoUsgeccQ_pad-19" x="107334" y="-52059"/><use xlink:href="#oj735TLyqqyQoUsgeccQ_pad-19" x="107334" y="-49519"/><use xlink:href="#oj735TLyqqyQoUsgeccQ_pad-19" x="107334" y="-46979"/><use xlink:href="#oj735TLyqqyQoUsgeccQ_pad-19" x="107334" y="-44439"/><use xlink:href="#oj735TLyqqyQoUsgeccQ_pad-19" x="107334" y="-41899"/><use xlink:href="#oj735TLyqqyQoUsgeccQ_pad-19" x="107334" y="-39359"/><use xlink:href="#oj735TLyqqyQoUsgeccQ_pad-19" x="107334" y="-36819"/><use xlink:href="#oj735TLyqqyQoUsgeccQ_pad-19" x="107334" y="-34279"/><use xlink:href="#oj735TLyqqyQoUsgeccQ_pad-19" x="107334" y="-31739"/><use xlink:href="#oj735TLyqqyQoUsgeccQ_pad-20" x="48631" y="-44393"/><use xlink:href="#oj735TLyqqyQoUsgeccQ_pad-20" x="84731" y="-44393"/><use xlink:href="#oj735TLyqqyQoUsgeccQ_pad-20" x="111810.8" y="-59283.6"/><use xlink:href="#oj735TLyqqyQoUsgeccQ_pad-21" x="104551.4" y="-28941"/><use xlink:href="#oj735TLyqqyQoUsgeccQ_pad-22" x="119768.6" y="-28941"/><use xlink:href="#oj735TLyqqyQoUsgeccQ_pad-23" x="75934.848" y="-65114.383"/><use xlink:href="#oj735TLyqqyQoUsgeccQ_pad-23" x="77515.939" y="-63533.293"/><use xlink:href="#oj735TLyqqyQoUsgeccQ_pad-23" x="82607.107" y="-68624.461"/><use xlink:href="#oj735TLyqqyQoUsgeccQ_pad-23" x="81026.017" y="-70205.552"/><use xlink:href="#oj735TLyqqyQoUsgeccQ_pad-24" x="82258.504" y="-67063.877"/><use xlink:href="#oj735TLyqqyQoUsgeccQ_pad-25" x="80137.183" y="-64942.556"/><use xlink:href="#oj735TLyqqyQoUsgeccQ_pad-26" x="79076.523" y="-63881.896"/><use xlink:href="#oj735TLyqqyQoUsgeccQ_pad-27" x="96356" y="-41268"/><use xlink:href="#oj735TLyqqyQoUsgeccQ_pad-27" x="96356" y="-39868"/><use xlink:href="#oj735TLyqqyQoUsgeccQ_pad-28" x="91156" y="-39868"/><use xlink:href="#oj735TLyqqyQoUsgeccQ_pad-27" x="91156" y="-41268"/><use xlink:href="#oj735TLyqqyQoUsgeccQ_pad-27" x="109206" y="-73968"/><use xlink:href="#oj735TLyqqyQoUsgeccQ_pad-27" x="109206" y="-75368"/><use xlink:href="#oj735TLyqqyQoUsgeccQ_pad-28" x="114406" y="-75368"/><use xlink:href="#oj735TLyqqyQoUsgeccQ_pad-27" x="114406" y="-73968"/><use xlink:href="#oj735TLyqqyQoUsgeccQ_pad-27" x="91156" y="-73968"/><use xlink:href="#oj735TLyqqyQoUsgeccQ_pad-27" x="91156" y="-75368"/><use xlink:href="#oj735TLyqqyQoUsgeccQ_pad-28" x="96356" y="-75368"/><use xlink:href="#oj735TLyqqyQoUsgeccQ_pad-27" x="96356" y="-73968"/><use xlink:href="#oj735TLyqqyQoUsgeccQ_pad-27" x="91156" y="-56918"/><use xlink:href="#oj735TLyqqyQoUsgeccQ_pad-27" x="91156" y="-58318"/><use xlink:href="#oj735TLyqqyQoUsgeccQ_pad-28" x="96356" y="-58318"/><use xlink:href="#oj735TLyqqyQoUsgeccQ_pad-27" x="96356" y="-56918"/><use xlink:href="#oj735TLyqqyQoUsgeccQ_pad-27" x="73106" y="-56918"/><use xlink:href="#oj735TLyqqyQoUsgeccQ_pad-27" x="73106" y="-58318"/><use xlink:href="#oj735TLyqqyQoUsgeccQ_pad-28" x="78306" y="-58318"/><use xlink:href="#oj735TLyqqyQoUsgeccQ_pad-27" x="78306" y="-56918"/><use xlink:href="#oj735TLyqqyQoUsgeccQ_pad-27" x="55056" y="-56918"/><use xlink:href="#oj735TLyqqyQoUsgeccQ_pad-27" x="55056" y="-58318"/><use xlink:href="#oj735TLyqqyQoUsgeccQ_pad-28" x="60256" y="-58318"/><use xlink:href="#oj735TLyqqyQoUsgeccQ_pad-27" x="60256" y="-56918"/><use xlink:href="#oj735TLyqqyQoUsgeccQ_pad-27" x="37006" y="-56918"/><use xlink:href="#oj735TLyqqyQoUsgeccQ_pad-27" x="37006" y="-58318"/><use xlink:href="#oj735TLyqqyQoUsgeccQ_pad-28" x="42206" y="-58318"/><use xlink:href="#oj735TLyqqyQoUsgeccQ_pad-27" x="42206" y="-56918"/><use xlink:href="#oj735TLyqqyQoUsgeccQ_pad-27" x="42206" y="-41268"/><use xlink:href="#oj735TLyqqyQoUsgeccQ_pad-27" x="42206" y="-39868"/><use xlink:href="#oj735TLyqqyQoUsgeccQ_pad-28" x="37006" y="-39868"/><use xlink:href="#oj735TLyqqyQoUsgeccQ_pad-27" x="37006" y="-41268"/><use xlink:href="#oj735TLyqqyQoUsgeccQ_pad-27" x="60256" y="-41268"/><use xlink:href="#oj735TLyqqyQoUsgeccQ_pad-27" x="60256" y="-39868"/><use xlink:href="#oj735TLyqqyQoUsgeccQ_pad-28" x="55056" y="-39868"/><use xlink:href="#oj735TLyqqyQoUsgeccQ_pad-27" x="55056" y="-41268"/><use xlink:href="#oj735TLyqqyQoUsgeccQ_pad-27" x="78306" y="-41268"/><use xlink:href="#oj735TLyqqyQoUsgeccQ_pad-27" x="78306" y="-39868"/><use xlink:href="#oj735TLyqqyQoUsgeccQ_pad-28" x="73106" y="-39868"/><use xlink:href="#oj735TLyqqyQoUsgeccQ_pad-27" x="73106" y="-41268"/><use xlink:href="#oj735TLyqqyQoUsgeccQ_pad-29" x="115036.6" y="-35922.7"/><use xlink:href="#oj735TLyqqyQoUsgeccQ_pad-29" x="109492.8" y="-50056.7"/><use xlink:href="#oj735TLyqqyQoUsgeccQ_pad-29" x="115310.2" y="-47196.1"/><use xlink:href="#oj735TLyqqyQoUsgeccQ_pad-29" x="109492.8" y="-44335.5"/><use xlink:href="#oj735TLyqqyQoUsgeccQ_pad-29" x="108086.6" y="-41842.1"/><use xlink:href="#oj735TLyqqyQoUsgeccQ_pad-29" x="106256.9" y="-35549"/><use xlink:href="#oj735TLyqqyQoUsgeccQ_pad-29" x="108173.6" y="-59087.7"/><use xlink:href="#oj735TLyqqyQoUsgeccQ_pad-29" x="108266.8" y="-56638.6"/><use xlink:href="#oj735TLyqqyQoUsgeccQ_pad-29" x="113272.5" y="-54599"/><use xlink:href="#oj735TLyqqyQoUsgeccQ_pad-29" x="80659.7" y="-46895.5"/><use xlink:href="#oj735TLyqqyQoUsgeccQ_pad-29" x="108707" y="-50825.7"/><use xlink:href="#oj735TLyqqyQoUsgeccQ_pad-29" x="106607.9" y="-40629"/><use xlink:href="#oj735TLyqqyQoUsgeccQ_pad-29" x="98233.5" y="-42355.7"/><use xlink:href="#oj735TLyqqyQoUsgeccQ_pad-29" x="89897.1" y="-52039.1"/><use xlink:href="#oj735TLyqqyQoUsgeccQ_pad-29" x="97752.4" y="-56586.7"/><use xlink:href="#oj735TLyqqyQoUsgeccQ_pad-29" x="42258.2" y="-44438"/><use xlink:href="#oj735TLyqqyQoUsgeccQ_pad-29" x="88005.2" y="-40756.3"/><use xlink:href="#oj735TLyqqyQoUsgeccQ_pad-29" x="114406" y="-72489.6"/><use xlink:href="#oj735TLyqqyQoUsgeccQ_pad-29" x="116774" y="-61604.2"/><use xlink:href="#oj735TLyqqyQoUsgeccQ_pad-29" x="108106.6" y="-32383.1"/><use xlink:href="#oj735TLyqqyQoUsgeccQ_pad-29" x="79657.9" y="-66581.4"/><use xlink:href="#oj735TLyqqyQoUsgeccQ_pad-29" x="109092.5" y="-76961.9"/><use xlink:href="#oj735TLyqqyQoUsgeccQ_pad-29" x="71308.6" y="-56589.3"/><use xlink:href="#oj735TLyqqyQoUsgeccQ_pad-29" x="92169.7" y="-59555.9"/><use xlink:href="#oj735TLyqqyQoUsgeccQ_pad-29" x="74890.4" y="-59884.9"/><use xlink:href="#oj735TLyqqyQoUsgeccQ_pad-29" x="59693.1" y="-55678.4"/><use xlink:href="#oj735TLyqqyQoUsgeccQ_pad-29" x="50938.8" y="-58638.5"/><use xlink:href="#oj735TLyqqyQoUsgeccQ_pad-29" x="39229.6" y="-44335.5"/><use xlink:href="#oj735TLyqqyQoUsgeccQ_pad-29" x="42410.3" y="-59443.4"/><use xlink:href="#oj735TLyqqyQoUsgeccQ_pad-29" x="37841.9" y="-38318.6"/><use xlink:href="#oj735TLyqqyQoUsgeccQ_pad-29" x="63190.1" y="-38844.7"/><use xlink:href="#oj735TLyqqyQoUsgeccQ_pad-29" x="72659.5" y="-42726.7"/><use xlink:href="#oj735TLyqqyQoUsgeccQ_pad-29" x="61508.5" y="-38615.5"/><use xlink:href="#oj735TLyqqyQoUsgeccQ_pad-29" x="74084.3" y="-38319.7"/><use xlink:href="#oj735TLyqqyQoUsgeccQ_pad-29" x="89008.4" y="-41135.1"/><use xlink:href="#oj735TLyqqyQoUsgeccQ_pad-29" x="97494.5" y="-55779.3"/><path d="M 94765.1 -55177.7 103226.8 -46716 M 103226.8 -43206 103391.4 -43041.4 M 106847.6 -38207.1 107334 -37720.7 M 103391.4 -43041.4 103391.4 -38920.2 M 103226.8 -46716 103226.8 -43206 M 91311.4 -55177.7 94765.1 -55177.7 M 84092.1 -64229.2 84729.7 -63591.6 M 107917.9 -43041.4 115036.6 -35922.7 M 103391.4 -43041.4 107917.9 -43041.4 M 107334 -36819 107334 -37720.7 M 84729.7 -61759.4 91311.4 -55177.7 M 84729.7 -64866.9 84092.1 -64229.2 M 104104.5 -38207.1 106847.6 -38207.1 M 103391.4 -38920.2 104104.5 -38207.1 M 84729.7 -63591.6 84729.7 -61759.4 M 107334 -49519 108955.1 -49519 109492.8 -50056.7 M 107334 -46979 115093.1 -46979 115310.2 -47196.1 M 109389.3 -44439 109492.8 -44335.5 M 107334 -44439 109389.3 -44439 M 108086.6 -41842.1 107942.6 -41842.1 107885.7 -41899 M 107942.6 -36147.7 107343.9 -35549 M 107942.6 -41842.1 107942.6 -36147.7 M 107334 -41899 107885.7 -41899 M 107343.9 -35549 106256.9 -35549 M 107334 -59679 107885.7 -59679 M 107885.7 -59375.6 107885.7 -59679 M 108173.6 -59087.7 107885.7 -59375.6 M 107885.7 -57139 107885.7 -57019.7 108266.8 -56638.6 M 107334 -57139 107885.7 -57139 M 80659.7 -46895.5 80537.2 -47018 80659.7 -46895.5 M 113236.5 -54599 113237.8 -54597.7 M 107334 -54599 113236.5 -54599 M 75706 -47018 80537.2 -47018 M 113237.8 -54597.7 113272.5 -54597.7 113272.5 -54599 M 80537.2 -47018 80659.7 -46895.5 M 107334 -52059 107885.7 -52059 M 108707 -50825.7 107885.7 -51647 107885.7 -52059 M 114165.3 -54599 116434.3 -54599 M 104696.3 -64068 114165.3 -54599 M 93756 -64068 104696.3 -64068 M 116986 -54599 116434.3 -54599 M 111806 -64068 111806 -61767.3 116434.3 -57139 M 116986 -57139 116434.3 -57139" fill="none" stroke-width="200"/><path d="M 97357.7 -41268 97357.7 -41479.9 M 42206 -50602.9 45791.7 -50602.9 M 89897.1 -50749 90122 -50524.1 M 91156 -56918 91156 -56066.3 M 60256 -46986.9 62791.9 -46986.9 M 95504.9 -55124.6 97768.1 -55124.6 M 98146.3 -55502.8 98146.3 -56192.8 M 91156 -56066.3 91381 -55841.3 M 37006 -52262 38665.1 -50602.9 M 78306 -42119.7 74160 -46265.7 M 96356 -41268 97357.7 -41268 M 71017.4 -57260.7 71761.6 -57260.7 M 66802.2 -50997.2 66802.2 -53045.5 M 74160 -46265.7 71533.7 -46265.7 66802.2 -50997.2 M 94788.2 -55841.3 95504.9 -55124.6 M 90122 -42375.6 88261.1 -42375.6 M 38665.1 -50602.9 42206 -50602.9 M 52106.8 -56918 55056 -56918 55056 -52186.9 M 78306 -41268 78306 -42119.7 M 106607.9 -40629 106926.2 -40310.7 M 42206 -44438 42258.2 -44438 M 37006 -56918 37006 -52262 M 42206 -41268 42206 -42119.7 M 97521.9 -41644.1 98233.5 -42355.7 M 107334 -39359 107334 -40310.7 M 96356 -42119.7 96100.1 -42375.6 M 42206 -44438 42206 -50602.9 M 42206 -42119.7 42206 -44438 M 96356 -41268 96356 -42119.7 M 88005.2 -42119.7 88005.2 -40756.3 M 88261.1 -42375.6 88005.2 -42119.7 M 96100.1 -42375.6 90122 -42375.6 M 90122 -50524.1 90122 -42375.6 M 62791.9 -46986.9 66802.2 -50997.2 M 89897.1 -52039.1 89897.1 -50749 M 66802.2 -53045.5 71017.4 -57260.7 M 98233.5 -42355.7 97521.9 -41644.1 M 98146.3 -56192.8 97752.4 -56586.7 M 97357.7 -41479.9 98233.5 -42355.7 M 91381 -55841.3 94788.2 -55841.3 M 73106 -56918 72104.3 -56918 M 71761.6 -57260.7 72104.3 -56918 M 60256 -46986.9 60256 -41268 M 106926.2 -40310.7 107334 -40310.7 M 45791.7 -50602.9 52106.8 -56918 M 97768.1 -55124.6 98146.3 -55502.8 M 55056 -52186.9 60256 -46986.9 M 78306 -42119.7 88005.2 -42119.7" fill="none" stroke-width="300"/><path d="M 114406 -73968 114406 -72489.6 M 116986 -61392.2 116986 -59679 M 116774 -61604.2 116986 -61392.2" fill="none" stroke-width="200"/><path d="M 93370.8 -50031.5 93503.8 -50031.5 M 82258.5 -63174.9 91050.5 -54382.9 91050.5 -52351.8 M 107334 -31739 107935.7 -31739 M 82258.5 -67063.9 82258.5 -63174.9 M 104059.2 -33119 106905.7 -33119 M 93503.8 -50031.5 102736.2 -40799.1 M 107334 -31739 107334 -32690.7 M 91050.5 -52351.8 93370.8 -50031.5 M 102736.2 -34442 104059.2 -33119 M 102736.2 -40799.1 102736.2 -34442 M 108106.6 -32383.1 107935.7 -32212.2 M 106905.7 -33119 107334 -32690.7 M 107935.7 -32212.2 107935.7 -31739 M 107334 -34279 107935.7 -34279 M 113273.7 -28941 119768.6 -28941 M 107935.7 -34279 113273.7 -28941 M 80017.4 -66221.9 79657.9 -66581.4 M 93168.6 -49529.8 101119.7 -41578.7 M 90548.8 -52038.5 93057.5 -49529.8 M 101119.7 -41578.7 101119.7 -32372.7 M 80137.2 -66102.1 79657.9 -66581.4 M 80137.2 -64051.6 90548.8 -53640 M 93057.5 -49529.8 93168.6 -49529.8 M 79657.9 -66581.4 80017.4 -66221.9 M 90548.8 -53640 90548.8 -52038.5 M 80137.2 -64942.6 80137.2 -66102.1 M 80137.2 -64942.6 80137.2 -64051.6 M 101119.7 -32372.7 104551.4 -28941" fill="none" stroke-width="300"/><path d="M 109206 -75368 109206 -76848.4 M 97756 -75368 109206 -75368 M 109206 -76848.4 109092.5 -76961.9 M 96356 -73968 97756 -75368 M 78074 -55884.3 72013.6 -55884.3 M 91156 -59137.3 91751.1 -59137.3 M 78306 -56918 78306 -56116.3 M 91156 -58318 91156 -58718.8 M 71308.6 -56589.3 71404.8 -56493.1 M 91156 -58718.8 91156 -59137.3 M 91751.1 -59137.3 92169.7 -59555.9 M 71404.8 -56493.1 71308.6 -56589.3 M 78306 -56116.3 78074 -55884.3 M 72013.6 -55884.3 71308.6 -56589.3 M 60131 -56116.3 60256 -56116.3 M 73106 -59119.7 73871.2 -59884.9 M 60256 -56918 60256 -56116.3 M 74890.4 -59884.9 74763.5 -59884.9 M 59693.1 -55678.4 60131 -56116.3 M 74763.5 -59884.9 74890.4 -59884.9 M 60256 -56918 61656 -58318 M 73106 -58318 73106 -59119.7 M 61656 -58318 73106 -58318 M 73871.2 -59884.9 74890.4 -59884.9 M 50938.8 -58318 43606 -58318 M 50938.8 -58318 50938.8 -58638.5 M 55056 -58318 50938.8 -58318 M 43606 -58318 42206 -56918 M 36054.3 -43021.4 37006 -42069.7 M 42410.3 -59443.4 41593.1 -59443.4 M 37655.6 -59443.4 42410.3 -59443.4 M 36054.3 -58318 36054.3 -43021.4 M 37006 -58318 36530.2 -58318 37655.6 -59443.4 M 36530.2 -58318 36054.3 -58318 M 37006 -42113.5 37006 -42069.7 M 39228 -44335.5 37006 -42113.5 M 37006 -41268 37006 -42069.7 M 39228 -44335.5 39229.6 -44335.5 M 41593.1 -59443.4 42410.3 -59443.4 M 55745.9 -30725.9 52134.3 -30725.9 M 42206 -39868 42206 -39066.3 M 51340.3 -32727.5 53583.5 -34970.7 M 41458.3 -38318.6 37841.9 -38318.6 M 52134.3 -30725.9 51340.3 -31519.9 M 63190.1 -38844.7 63190.1 -38170.1 M 42206 -39868 53583.5 -39868 M 51340.3 -31519.9 51340.3 -32727.5 M 53583.5 -39868 53656 -39868 M 63190.1 -38170.1 55745.9 -30725.9 M 53656 -39868 55056 -41268 M 53583.5 -34970.7 53583.5 -39868 M 42206 -39066.3 41458.3 -38318.6 M 73106 -42280.2 73106 -41268 M 60256 -39868 60256 -39066.3 M 61057.7 -39066.3 60256 -39066.3 M 61508.5 -38615.5 61057.7 -39066.3 M 73106 -41268 71706 -39868 60256 -39868 M 72659.5 -42726.7 73106 -42280.2 M 89008.4 -41135.1 90071.4 -41135.1 M 89008.4 -41135.1 89008.4 -40908.6 M 78306 -39868 78306 -39066.3 M 90071.4 -41135.1 90204.3 -41268 M 89008.4 -40908.6 87967.8 -39868 M 74084.3 -38319.7 77559.4 -38319.7 78306 -39066.3 M 91156 -41268 90204.3 -41268 M 87967.8 -39868 78306 -39868 M 96693 -55779.3 96356 -56116.3 M 96356 -56918 96356 -56116.3 M 97494.5 -55779.3 96693 -55779.3" fill="none" stroke-width="200"/><path d="M 79032.5 -59169.7 79032.5 -58041.9 M 78306 -59169.7 79032.5 -59169.7 M 96107.7 -76468 91404.3 -76468 M 36480.2 -33942.2 34606 -32068 M 75506 -32068 80706 -32068 M 116986 -39359 116986 -40310.7 M 96356 -58318 96356 -59169.7 M 91156 -34468 88756 -32068 M 115457.7 -67656.8 110117.2 -67656.8 M 35580.2 -50092.2 34606 -49118 M 91156 -73968 91156 -67966.3 M 60256 -59169.7 59978.7 -59447 M 43072.1 -59724.8 42692.3 -60104.6 M 91156 -75368 91156 -76219.7 M 115457.7 -75368 115457.7 -67656.8 M 37058.2 -60104.6 35580.2 -58626.6 M 36480.2 -39868 36480.2 -33942.2 M 120961.5 -62012.5 116806 -66168 M 91156 -39868 91156 -34468 M 91156 -75368 91156 -73968 M 109206 -73968 109206 -68568 M 80706 -49118 79307.7 -50516.3 M 79032.5 -58041.9 79307.7 -57766.7 M 117304.3 -40629 120178.1 -40629 M 42301.3 -58318 43072.1 -59088.8 M 59978.7 -59447 43072.1 -59447 M 42206 -58318 42301.3 -58318 M 73106 -39868 73106 -34468 M 89357.7 -66168 88756 -66168 M 92954.3 -66168 91156 -67966.3 M 55056 -39868 55056 -39016.3 M 109206 -68568 106806 -66168 M 55056 -34468 52656 -32068 M 120178.1 -40629 120961.5 -41412.4 M 37006 -39868 36480.2 -39868 M 116986 -36819 116986 -39359 M 36480.2 -39868 35954.3 -39868 M 96356 -59169.7 89357.7 -66168 M 43072.1 -59088.8 43072.1 -59447 M 110117.2 -67656.8 109206 -68568 M 60256 -58318 60256 -59169.7 M 106806 -66168 98756 -66168 M 35580.2 -58626.6 35580.2 -50092.2 M 43072.1 -59447 43072.1 -59724.8 M 96356 -75368 96356 -76219.7 M 91156 -67966.3 89357.7 -66168 M 55056 -39016.3 55056 -34468 M 73106 -34468 70706 -32068 M 34606 -49118 34606 -41216.3 M 91404.3 -76468 91156 -76219.7 M 34606 -41216.3 35954.3 -39868 M 42692.3 -60104.6 37058.2 -60104.6 M 72104.3 -50516.3 70706 -49118 M 96356 -76219.7 96107.7 -76468 M 73106 -34468 75506 -32068 M 114406 -75368 115457.7 -75368 M 120961.5 -41412.4 120961.5 -62012.5 M 98756 -66168 92954.3 -66168 M 115457.7 -67656.8 115457.7 -67516.3 M 78306 -58318 78306 -59169.7 M 79307.7 -57766.7 79307.7 -50516.3 M 115457.7 -67516.3 116806 -66168 M 79307.7 -50516.3 72104.3 -50516.3 M 79032.5 -59169.7 81335.5 -61472.7 M 116986 -40310.7 117304.3 -40629" fill="none" stroke-width="300"/></g><g id="gFDqMs30wWBy8dtwwff__bottom_drill1"><use xlink:href="#eejEgZ1F8tvv7nS1GZo7_pad-1" x="78193" y="-65826"/><use xlink:href="#eejEgZ1F8tvv7nS1GZo7_pad-1" x="80314" y="-67948"/><use xlink:href="#eejEgZ1F8tvv7nS1GZo7_pad-2" x="34106" y="-35868"/><use xlink:href="#eejEgZ1F8tvv7nS1GZo7_pad-2" x="34106" y="-52918"/><use xlink:href="#eejEgZ1F8tvv7nS1GZo7_pad-2" x="45106" y="-35868"/><use xlink:href="#eejEgZ1F8tvv7nS1GZo7_pad-2" x="45106" y="-52918"/><use xlink:href="#eejEgZ1F8tvv7nS1GZo7_pad-2" x="52156" y="-35868"/><use xlink:href="#eejEgZ1F8tvv7nS1GZo7_pad-2" x="52156" y="-52918"/><use xlink:href="#eejEgZ1F8tvv7nS1GZo7_pad-2" x="63156" y="-35868"/><use xlink:href="#eejEgZ1F8tvv7nS1GZo7_pad-2" x="63156" y="-52918"/><use xlink:href="#eejEgZ1F8tvv7nS1GZo7_pad-2" x="70206" y="-35868"/><use xlink:href="#eejEgZ1F8tvv7nS1GZo7_pad-2" x="70206" y="-52918"/><use xlink:href="#eejEgZ1F8tvv7nS1GZo7_pad-2" x="81206" y="-35868"/><use xlink:href="#eejEgZ1F8tvv7nS1GZo7_pad-2" x="81206" y="-52918"/><use xlink:href="#eejEgZ1F8tvv7nS1GZo7_pad-2" x="88256" y="-35868"/><use xlink:href="#eejEgZ1F8tvv7nS1GZo7_pad-2" x="88256" y="-52918"/><use xlink:href="#eejEgZ1F8tvv7nS1GZo7_pad-2" x="88256" y="-69968"/><use xlink:href="#eejEgZ1F8tvv7nS1GZo7_pad-2" x="99256" y="-35868"/><use xlink:href="#eejEgZ1F8tvv7nS1GZo7_pad-2" x="99256" y="-52918"/><use xlink:href="#eejEgZ1F8tvv7nS1GZo7_pad-2" x="99256" y="-69968"/><use xlink:href="#eejEgZ1F8tvv7nS1GZo7_pad-2" x="106306" y="-69968"/><use xlink:href="#eejEgZ1F8tvv7nS1GZo7_pad-2" x="117306" y="-69968"/><use xlink:href="#eejEgZ1F8tvv7nS1GZo7_pad-3" x="48631" y="-44393"/><use xlink:href="#eejEgZ1F8tvv7nS1GZo7_pad-3" x="84731" y="-44393"/><use xlink:href="#eejEgZ1F8tvv7nS1GZo7_pad-3" x="111811" y="-59284"/><use xlink:href="#eejEgZ1F8tvv7nS1GZo7_pad-4" x="39606" y="-35868"/><use xlink:href="#eejEgZ1F8tvv7nS1GZo7_pad-4" x="39606" y="-52918"/><use xlink:href="#eejEgZ1F8tvv7nS1GZo7_pad-4" x="57656" y="-35868"/><use xlink:href="#eejEgZ1F8tvv7nS1GZo7_pad-4" x="57656" y="-52918"/><use xlink:href="#eejEgZ1F8tvv7nS1GZo7_pad-4" x="75706" y="-35868"/><use xlink:href="#eejEgZ1F8tvv7nS1GZo7_pad-4" x="75706" y="-52918"/><use xlink:href="#eejEgZ1F8tvv7nS1GZo7_pad-4" x="93756" y="-35868"/><use xlink:href="#eejEgZ1F8tvv7nS1GZo7_pad-4" x="93756" y="-52918"/><use xlink:href="#eejEgZ1F8tvv7nS1GZo7_pad-4" x="93756" y="-69968"/><use xlink:href="#eejEgZ1F8tvv7nS1GZo7_pad-4" x="111806" y="-69968"/></g><g id="gFDqMs30wWBy8dtwwff__bottom_drill2"><use xlink:href="#tmb8dofds0aKBAQrrX5F_pad-1" x="37842" y="-38319"/><use xlink:href="#tmb8dofds0aKBAQrrX5F_pad-1" x="39230" y="-44335"/><use xlink:href="#tmb8dofds0aKBAQrrX5F_pad-1" x="42258" y="-44438"/><use xlink:href="#tmb8dofds0aKBAQrrX5F_pad-1" x="42410" y="-59443"/><use xlink:href="#tmb8dofds0aKBAQrrX5F_pad-1" x="50939" y="-58639"/><use xlink:href="#tmb8dofds0aKBAQrrX5F_pad-1" x="59693" y="-55678"/><use xlink:href="#tmb8dofds0aKBAQrrX5F_pad-1" x="61508" y="-38615"/><use xlink:href="#tmb8dofds0aKBAQrrX5F_pad-1" x="63190" y="-38845"/><use xlink:href="#tmb8dofds0aKBAQrrX5F_pad-1" x="71309" y="-56589"/><use xlink:href="#tmb8dofds0aKBAQrrX5F_pad-1" x="72659" y="-42727"/><use xlink:href="#tmb8dofds0aKBAQrrX5F_pad-1" x="74084" y="-38320"/><use xlink:href="#tmb8dofds0aKBAQrrX5F_pad-1" x="74890" y="-59885"/><use xlink:href="#tmb8dofds0aKBAQrrX5F_pad-1" x="79658" y="-66581"/><use xlink:href="#tmb8dofds0aKBAQrrX5F_pad-1" x="80660" y="-46895"/><use xlink:href="#tmb8dofds0aKBAQrrX5F_pad-1" x="88005" y="-40756"/><use xlink:href="#tmb8dofds0aKBAQrrX5F_pad-1" x="89008" y="-41135"/><use xlink:href="#tmb8dofds0aKBAQrrX5F_pad-1" x="89897" y="-52039"/><use xlink:href="#tmb8dofds0aKBAQrrX5F_pad-1" x="92170" y="-59556"/><use xlink:href="#tmb8dofds0aKBAQrrX5F_pad-1" x="97495" y="-55779"/><use xlink:href="#tmb8dofds0aKBAQrrX5F_pad-1" x="97752" y="-56587"/><use xlink:href="#tmb8dofds0aKBAQrrX5F_pad-1" x="98233" y="-42356"/><use xlink:href="#tmb8dofds0aKBAQrrX5F_pad-1" x="106257" y="-35549"/><use xlink:href="#tmb8dofds0aKBAQrrX5F_pad-1" x="106608" y="-40629"/><use xlink:href="#tmb8dofds0aKBAQrrX5F_pad-1" x="108087" y="-41842"/><use xlink:href="#tmb8dofds0aKBAQrrX5F_pad-1" x="108107" y="-32383"/><use xlink:href="#tmb8dofds0aKBAQrrX5F_pad-1" x="108174" y="-59088"/><use xlink:href="#tmb8dofds0aKBAQrrX5F_pad-1" x="108267" y="-56639"/><use xlink:href="#tmb8dofds0aKBAQrrX5F_pad-1" x="108707" y="-50826"/><use xlink:href="#tmb8dofds0aKBAQrrX5F_pad-1" x="109093" y="-76962"/><use xlink:href="#tmb8dofds0aKBAQrrX5F_pad-1" x="109493" y="-44335"/><use xlink:href="#tmb8dofds0aKBAQrrX5F_pad-1" x="109493" y="-50057"/><use xlink:href="#tmb8dofds0aKBAQrrX5F_pad-1" x="113272" y="-54599"/><use xlink:href="#tmb8dofds0aKBAQrrX5F_pad-1" x="114406" y="-72490"/><use xlink:href="#tmb8dofds0aKBAQrrX5F_pad-1" x="115037" y="-35923"/><use xlink:href="#tmb8dofds0aKBAQrrX5F_pad-1" x="115310" y="-47196"/><use xlink:href="#tmb8dofds0aKBAQrrX5F_pad-1" x="116774" y="-61604"/><use xlink:href="#tmb8dofds0aKBAQrrX5F_pad-2" x="75935" y="-65114"/><use xlink:href="#tmb8dofds0aKBAQrrX5F_pad-2" x="77516" y="-63533"/><use xlink:href="#tmb8dofds0aKBAQrrX5F_pad-2" x="79077" y="-63882"/><use xlink:href="#tmb8dofds0aKBAQrrX5F_pad-2" x="81026" y="-70206"/><use xlink:href="#tmb8dofds0aKBAQrrX5F_pad-2" x="81336" y="-61473"/><use xlink:href="#tmb8dofds0aKBAQrrX5F_pad-2" x="82259" y="-67064"/><use xlink:href="#tmb8dofds0aKBAQrrX5F_pad-2" x="82607" y="-68624"/><use xlink:href="#tmb8dofds0aKBAQrrX5F_pad-2" x="84730" y="-64867"/><use xlink:href="#tmb8dofds0aKBAQrrX5F_pad-3" x="104551" y="-28941"/><use xlink:href="#tmb8dofds0aKBAQrrX5F_pad-3" x="119769" y="-28941"/><use xlink:href="#tmb8dofds0aKBAQrrX5F_pad-4" x="104540" y="-31739"/><use xlink:href="#tmb8dofds0aKBAQrrX5F_pad-4" x="104540" y="-31739"/><use xlink:href="#tmb8dofds0aKBAQrrX5F_pad-4" x="104540" y="-34279"/><use xlink:href="#tmb8dofds0aKBAQrrX5F_pad-4" x="104540" y="-36819"/><use xlink:href="#tmb8dofds0aKBAQrrX5F_pad-4" x="104540" y="-39359"/><use xlink:href="#tmb8dofds0aKBAQrrX5F_pad-4" x="104540" y="-41899"/><use xlink:href="#tmb8dofds0aKBAQrrX5F_pad-4" x="104540" y="-44439"/><use xlink:href="#tmb8dofds0aKBAQrrX5F_pad-4" x="104540" y="-46979"/><use xlink:href="#tmb8dofds0aKBAQrrX5F_pad-4" x="104540" y="-49519"/><use xlink:href="#tmb8dofds0aKBAQrrX5F_pad-4" x="104540" y="-52059"/><use xlink:href="#tmb8dofds0aKBAQrrX5F_pad-4" x="104540" y="-54599"/><use xlink:href="#tmb8dofds0aKBAQrrX5F_pad-4" x="104540" y="-57139"/><use xlink:href="#tmb8dofds0aKBAQrrX5F_pad-4" x="104540" y="-59679"/><use xlink:href="#tmb8dofds0aKBAQrrX5F_pad-4" x="119780" y="-31739"/><use xlink:href="#tmb8dofds0aKBAQrrX5F_pad-4" x="119780" y="-31739"/><use xlink:href="#tmb8dofds0aKBAQrrX5F_pad-4" x="119780" y="-34279"/><use xlink:href="#tmb8dofds0aKBAQrrX5F_pad-4" x="119780" y="-36819"/><use xlink:href="#tmb8dofds0aKBAQrrX5F_pad-4" x="119780" y="-39359"/><use xlink:href="#tmb8dofds0aKBAQrrX5F_pad-4" x="119780" y="-41899"/><use xlink:href="#tmb8dofds0aKBAQrrX5F_pad-4" x="119780" y="-44439"/><use xlink:href="#tmb8dofds0aKBAQrrX5F_pad-4" x="119780" y="-46979"/><use xlink:href="#tmb8dofds0aKBAQrrX5F_pad-4" x="119780" y="-49519"/><use xlink:href="#tmb8dofds0aKBAQrrX5F_pad-4" x="119780" y="-52059"/><use xlink:href="#tmb8dofds0aKBAQrrX5F_pad-4" x="119780" y="-54599"/><use xlink:href="#tmb8dofds0aKBAQrrX5F_pad-4" x="119780" y="-57139"/><use xlink:href="#tmb8dofds0aKBAQrrX5F_pad-4" x="119780" y="-59679"/><use xlink:href="#tmb8dofds0aKBAQrrX5F_pad-5" x="34606" y="-32068"/><use xlink:href="#tmb8dofds0aKBAQrrX5F_pad-5" x="34606" y="-49118"/><use xlink:href="#tmb8dofds0aKBAQrrX5F_pad-5" x="39606" y="-29968"/><use xlink:href="#tmb8dofds0aKBAQrrX5F_pad-5" x="39606" y="-47018"/><use xlink:href="#tmb8dofds0aKBAQrrX5F_pad-5" x="44606" y="-32068"/><use xlink:href="#tmb8dofds0aKBAQrrX5F_pad-5" x="44606" y="-49118"/><use xlink:href="#tmb8dofds0aKBAQrrX5F_pad-5" x="52656" y="-32068"/><use xlink:href="#tmb8dofds0aKBAQrrX5F_pad-5" x="52656" y="-49118"/><use xlink:href="#tmb8dofds0aKBAQrrX5F_pad-5" x="57656" y="-29968"/><use xlink:href="#tmb8dofds0aKBAQrrX5F_pad-5" x="57656" y="-47018"/><use xlink:href="#tmb8dofds0aKBAQrrX5F_pad-5" x="62656" y="-32068"/><use xlink:href="#tmb8dofds0aKBAQrrX5F_pad-5" x="62656" y="-49118"/><use xlink:href="#tmb8dofds0aKBAQrrX5F_pad-5" x="70706" y="-32068"/><use xlink:href="#tmb8dofds0aKBAQrrX5F_pad-5" x="70706" y="-49118"/><use xlink:href="#tmb8dofds0aKBAQrrX5F_pad-5" x="75706" y="-29968"/><use xlink:href="#tmb8dofds0aKBAQrrX5F_pad-5" x="75706" y="-47018"/><use xlink:href="#tmb8dofds0aKBAQrrX5F_pad-5" x="80706" y="-32068"/><use xlink:href="#tmb8dofds0aKBAQrrX5F_pad-5" x="80706" y="-49118"/><use xlink:href="#tmb8dofds0aKBAQrrX5F_pad-5" x="88756" y="-32068"/><use xlink:href="#tmb8dofds0aKBAQrrX5F_pad-5" x="88756" y="-49118"/><use xlink:href="#tmb8dofds0aKBAQrrX5F_pad-5" x="88756" y="-66168"/><use xlink:href="#tmb8dofds0aKBAQrrX5F_pad-5" x="93756" y="-29968"/><use xlink:href="#tmb8dofds0aKBAQrrX5F_pad-5" x="93756" y="-47018"/><use xlink:href="#tmb8dofds0aKBAQrrX5F_pad-5" x="93756" y="-64068"/><use xlink:href="#tmb8dofds0aKBAQrrX5F_pad-5" x="98756" y="-32068"/><use xlink:href="#tmb8dofds0aKBAQrrX5F_pad-5" x="98756" y="-49118"/><use xlink:href="#tmb8dofds0aKBAQrrX5F_pad-5" x="98756" y="-66168"/><use xlink:href="#tmb8dofds0aKBAQrrX5F_pad-5" x="106806" y="-66168"/><use xlink:href="#tmb8dofds0aKBAQrrX5F_pad-5" x="111806" y="-64068"/><use xlink:href="#tmb8dofds0aKBAQrrX5F_pad-5" x="116806" y="-66168"/></g><clipPath id="gFDqMs30wWBy8dtwwff__bottom_outline"><path d="M 122566.009 -77992.999 122566.009 -61151.251 122566 -27843 A 2000 2000 0 0 1 120566.009 -25843 L 31081 -25843 A 2000 2000 0 0 1 29081 -27843 L 29081 -44393 29081.001 -60942.999 A 1999.999 1999.999 0 0 1 31081 -62942.999 L 48631 -62942.999 66231 -62942.998 A 17000.002 17000.002 0 0 0 83141.263 -78198.259 1999.9980002 1999.9980002 0 0 1 85130.669 -79992.998 L 102780.999 -79992.999 120566.009 -79993.009 A 2000.009 2000.009 0 0 1 122566.009 -77992.999 M 92106 -39143 95406 -39143 95406 -41993 92106 -41993 92106 -39143 M 110156 -73243 113456 -73243 113456 -76093 110156 -76093 110156 -73243 M 92106 -73243 95406 -73243 95406 -76093 92106 -76093 92106 -73243 M 92106 -56193 95406 -56193 95406 -59043 92106 -59043 92106 -56193 M 74056 -56193 77356 -56193 77356 -59043 74056 -59043 74056 -56193 M 56006 -56193 59306 -56193 59306 -59043 56006 -59043 56006 -56193 M 37956 -56193 41256 -56193 41256 -59043 37956 -59043 37956 -56193 M 37956 -39143 41256 -39143 41256 -41993 37956 -41993 37956 -39143 M 56006 -39143 59306 -39143 59306 -41993 56006 -41993 56006 -39143 M 74056 -39143 77356 -39143 77356 -41993 74056 -41993 74056 -39143" fill="none" stroke-width="200"/></clipPath><mask id="gFDqMs30wWBy8dtwwff__bottom_mech-mask"><g fill="#000" stroke="#000"><rect x="29081" y="-79993.009" width="93485.009" height="54150.009" fill="#fff"/><use xlink:href="#gFDqMs30wWBy8dtwwff__bottom_drill1"/><use xlink:href="#gFDqMs30wWBy8dtwwff__bottom_drill2"/></g></mask><mask id="gFDqMs30wWBy8dtwwff__bottom_cf-mask"><g fill="#fff" stroke="#fff"><use xlink:href="#gFDqMs30wWBy8dtwwff__bottom_soldermask"/></g></mask><mask id="gFDqMs30wWBy8dtwwff__bottom_sm-mask"><g fill="#000" stroke="#000"><rect x="29081" y="-79993.009" width="93485.009" height="54150.009" fill="#fff"/><use xlink:href="#gFDqMs30wWBy8dtwwff__bottom_soldermask"/></g></mask></defs><g transform="translate(0,-105836.00900000002) scale(1,-1)"><g mask="url(#gFDqMs30wWBy8dtwwff__bottom_mech-mask)" clip-path="url(#gFDqMs30wWBy8dtwwff__bottom_outline)" transform="translate(151647.00900000002,0) scale(-1,1)"><rect x="29081" y="-79993.009" width="93485.009" height="54150.009" fill="currentColor" class="gFDqMs30wWBy8dtwwff__fr4"/><use xlink:href="#gFDqMs30wWBy8dtwwff__bottom_copper" fill="currentColor" stroke="currentColor" class="gFDqMs30wWBy8dtwwff__cu"/><use xlink:href="#gFDqMs30wWBy8dtwwff__bottom_copper" fill="currentColor" stroke="currentColor" class="gFDqMs30wWBy8dtwwff__cf" mask="url(#gFDqMs30wWBy8dtwwff__bottom_cf-mask)"/><g mask="url(#gFDqMs30wWBy8dtwwff__bottom_sm-mask)"><rect x="29081" y="-79993.009" width="93485.009" height="54150.009" fill="currentColor" class="gFDqMs30wWBy8dtwwff__sm"/><use xlink:href="#gFDqMs30wWBy8dtwwff__bottom_silkscreen" fill="currentColor" stroke="currentColor" class="gFDqMs30wWBy8dtwwff__ss"/></g><use xlink:href="#gFDqMs30wWBy8dtwwff__bottom_solderpaste" fill="currentColor" stroke="currentColor" class="gFDqMs30wWBy8dtwwff__sp"/></g></g></svg>