<svg version="1.1" xmlns="http://www.w3.org/2000/svg" xmlns:xlink="http://www.w3.org/1999/xlink" stroke-linecap="round" stroke-linejoin="round" stroke-width="0" fill-rule="evenodd" clip-rule="evenodd" id="gFDqMs30wWBy8dtwwff__top" viewBox="29081 -79993.009 93485.009 54150.009" width="93.485009mm" height="54.150009mm" class="w-100 h-100"><defs><style>.gFDqMs30wWBy8dtwwff__fr4 {color: #666666;}
.gFDqMs30wWBy8dtwwff__cu {color: #cccccc;}
.gFDqMs30wWBy8dtwwff__cf {color: #cc9933;}
.gFDqMs30wWBy8dtwwff__sm {color: #000000; opacity: 0.75;}
.gFDqMs30wWBy8dtwwff__ss {color: #ffffff;}
.gFDqMs30wWBy8dtwwff__sp {color: #999999;}
.gFDqMs30wWBy8dtwwff__out {color: #000000;}</style><polygon points="-212.13203,-1060.66017 -1060.66017,-212.13203 212.13203,1060.66017 1060.66017,212.13203" id="Fd5C15SM7FQ8FFDbtW0r_pad-11"/><circle cx="0" cy="0" r="850" id="Fd5C15SM7FQ8FFDbtW0r_pad-12"/><circle cx="0" cy="0" r="1700" id="Fd5C15SM7FQ8FFDbtW0r_pad-13"/><circle cx="0" cy="0" r="1000" id="Fd5C15SM7FQ8FFDbtW0r_pad-14"/><circle cx="0" cy="0" r="800" id="Fd5C15SM7FQ8FFDbtW0r_pad-15"/><rect x="-800" y="-800" width="1600" height="1600" id="Fd5C15SM7FQ8FFDbtW0r_pad-16"/><polygon points="-200,600 400,0 -200,-600 -400,-600 -400,600 -200,600" id="Fd5C15SM7FQ8FFDbtW0r_pad-17"/><polygon points="200,-600 -400,0 200,600 400,600 400,-600 200,-600" id="Fd5C15SM7FQ8FFDbtW0r_pad-18"/><polygon points="250,600 250,-600 -1000,-600 -400,0 -1000,600 250,600" id="Fd5C15SM7FQ8FFDbtW0r_pad-19"/><polygon points="-250,-600 -250,600 1000,600 400,0 1000,-600 -250,-600" id="Fd5C15SM7FQ8FFDbtW0r_pad-20"/><circle cx="0" cy="0" r="1200" id="Fd5C15SM7FQ8FFDbtW0r_pad-21"/><circle cx="0" cy="0" r="762" id="Fd5C15SM7FQ8FFDbtW0r_pad-22"/><g id="Fd5C15SM7FQ8FFDbtW0r_pad-23"><polygon points="-381,-381 381,-381 381,381 -381,381"/><circle cx="-381" cy="-381" r="381"/><circle cx="381" cy="-381" r="381"/><circle cx="381" cy="381" r="381"/><circle cx="-381" cy="381" r="381"/><polygon points="-381,-762 381,-762 381,0 -381,0"/><polygon points="762,-381 762,381 0,381 0,-381"/><polygon points="381,0 -381,0 -381,762 381,762"/><polygon points="0,381 0,-381 -762,-381 -762,381"/></g><g id="Fd5C15SM7FQ8FFDbtW0r_pad-24"><polygon points="283.126,-141.421 -141.421,283.126 -283.126,141.421 141.421,-283.126"/><circle cx="283.126" cy="-141.421" r="199.8"/><circle cx="-141.421" cy="283.126" r="199.8"/><circle cx="-283.126" cy="141.421" r="199.8"/><circle cx="141.421" cy="-283.126" r="199.8"/><polygon points="141.84607,-282.70093 -282.70093,141.84607 -0.14107,424.40593 424.40593,-0.14107"/><polygon points="-0.14107,141.84607 -141.84607,0.14107 -424.40593,282.70093 -282.70093,424.40593"/><polygon points="-424.40593,0.14107 0.14107,-424.40593 282.70093,-141.84607 -141.84607,282.70093"/><polygon points="282.70093,-424.40593 424.40593,-282.70093 141.84607,-0.14107 0.14107,-141.84607"/></g><circle cx="0" cy="0" r="325" id="Fd5C15SM7FQ8FFDbtW0r_pad-25"/><g id="Fd5C15SM7FQ8FFDbtW0r_pad-26"><polygon points="141.421,459.619 -459.619,-141.421 -141.421,-459.619 459.619,141.421"/><circle cx="141.421" cy="459.619" r="225"/><circle cx="-459.619" cy="-141.421" r="225"/><circle cx="-141.421" cy="-459.619" r="225"/><circle cx="459.619" cy="141.421" r="225"/><polygon points="300.52003,300.51997 -300.51997,-300.52003 -618.71803,17.67803 -17.67803,618.71803"/><polygon points="-618.71803,-300.52003 -300.52003,-618.71803 17.67803,-300.51997 -300.51997,17.67803"/><polygon points="17.67803,-618.71803 618.71803,-17.67803 300.51997,300.52003 -300.52003,-300.51997"/><polygon points="300.51997,-17.67803 -17.67803,300.51997 300.52003,618.71803 618.71803,300.52003"/></g><g id="Fd5C15SM7FQ8FFDbtW0r_pad-27"><polygon points="141.421,353.978 -353.978,-141.421 -141.421,-353.978 353.978,141.421"/><circle cx="141.421" cy="353.978" r="299.7"/><circle cx="-353.978" cy="-141.421" r="299.7"/><circle cx="-141.421" cy="-353.978" r="299.7"/><circle cx="353.978" cy="141.421" r="299.7"/><polygon points="353.3409,142.0581 -142.0581,-353.3409 -565.8979,70.4989 -70.4989,565.8979"/><polygon points="-565.8979,-353.3409 -353.3409,-565.8979 70.4989,-142.0581 -142.0581,70.4989"/><polygon points="70.4989,-565.8979 565.8979,-70.4989 142.0581,353.3409 -353.3409,-142.0581"/><polygon points="142.0581,-70.4989 -70.4989,142.0581 353.3409,565.8979 565.8979,353.3409"/></g><rect x="-650" y="-500" width="1300" height="1000" id="Fd5C15SM7FQ8FFDbtW0r_pad-28"/><rect x="-700" y="-500" width="1400" height="1000" rx="500" ry="500" id="Fd5C15SM7FQ8FFDbtW0r_pad-29"/><polygon points="-212.13203,-1060.66017 -1060.66017,-212.13203 212.13203,1060.66017 1060.66017,212.13203" id="e4kyK8dLdrKpe9Cm8FH-_pad-17"/><circle cx="0" cy="0" r="850" id="e4kyK8dLdrKpe9Cm8FH-_pad-18"/><circle cx="0" cy="0" r="1700" id="e4kyK8dLdrKpe9Cm8FH-_pad-19"/><circle cx="0" cy="0" r="1000" id="e4kyK8dLdrKpe9Cm8FH-_pad-20"/><circle cx="0" cy="0" r="800" id="e4kyK8dLdrKpe9Cm8FH-_pad-21"/><rect x="-800" y="-800" width="1600" height="1600" id="e4kyK8dLdrKpe9Cm8FH-_pad-22"/><polygon points="-200,600 400,0 -200,-600 -400,-600 -400,600 -200,600" id="e4kyK8dLdrKpe9Cm8FH-_pad-23"/><polygon points="200,-600 -400,0 200,600 400,600 400,-600 200,-600" id="e4kyK8dLdrKpe9Cm8FH-_pad-24"/><polygon points="250,600 250,-600 -1000,-600 -400,0 -1000,600 250,600" id="e4kyK8dLdrKpe9Cm8FH-_pad-25"/><polygon points="-250,-600 -250,600 1000,600 400,0 1000,-600 -250,-600" id="e4kyK8dLdrKpe9Cm8FH-_pad-26"/><circle cx="0" cy="0" r="1200" id="e4kyK8dLdrKpe9Cm8FH-_pad-27"/><circle cx="0" cy="0" r="762" id="e4kyK8dLdrKpe9Cm8FH-_pad-28"/><g id="e4kyK8dLdrKpe9Cm8FH-_pad-29"><polygon points="-381,-381 381,-381 381,381 -381,381"/><circle cx="-381" cy="-381" r="381"/><circle cx="381" cy="-381" r="381"/><circle cx="381" cy="381" r="381"/><circle cx="-381" cy="381" r="381"/><polygon points="-381,-762 381,-762 381,0 -381,0"/><polygon points="762,-381 762,381 0,381 0,-381"/><polygon points="381,0 -381,0 -381,762 381,762"/><polygon points="0,381 0,-381 -762,-381 -762,381"/></g><g id="e4kyK8dLdrKpe9Cm8FH-_pad-30"><polygon points="283.126,-141.421 -141.421,283.126 -283.126,141.421 141.421,-283.126"/><circle cx="283.126" cy="-141.421" r="199.8"/><circle cx="-141.421" cy="283.126" r="199.8"/><circle cx="-283.126" cy="141.421" r="199.8"/><circle cx="141.421" cy="-283.126" r="199.8"/><polygon points="141.84607,-282.70093 -282.70093,141.84607 -0.14107,424.40593 424.40593,-0.14107"/><polygon points="-0.14107,141.84607 -141.84607,0.14107 -424.40593,282.70093 -282.70093,424.40593"/><polygon points="-424.40593,0.14107 0.14107,-424.40593 282.70093,-141.84607 -141.84607,282.70093"/><polygon points="282.70093,-424.40593 424.40593,-282.70093 141.84607,-0.14107 0.14107,-141.84607"/></g><circle cx="0" cy="0" r="325" id="e4kyK8dLdrKpe9Cm8FH-_pad-31"/><g id="e4kyK8dLdrKpe9Cm8FH-_pad-32"><polygon points="141.421,459.619 -459.619,-141.421 -141.421,-459.619 459.619,141.421"/><circle cx="141.421" cy="459.619" r="225"/><circle cx="-459.619" cy="-141.421" r="225"/><circle cx="-141.421" cy="-459.619" r="225"/><circle cx="459.619" cy="141.421" r="225"/><polygon points="300.52003,300.51997 -300.51997,-300.52003 -618.71803,17.67803 -17.67803,618.71803"/><polygon points="-618.71803,-300.52003 -300.52003,-618.71803 17.67803,-300.51997 -300.51997,17.67803"/><polygon points="17.67803,-618.71803 618.71803,-17.67803 300.51997,300.52003 -300.52003,-300.51997"/><polygon points="300.51997,-17.67803 -17.67803,300.51997 300.52003,618.71803 618.71803,300.52003"/></g><g id="e4kyK8dLdrKpe9Cm8FH-_pad-33"><polygon points="141.421,353.978 -353.978,-141.421 -141.421,-353.978 353.978,141.421"/><circle cx="141.421" cy="353.978" r="299.7"/><circle cx="-353.978" cy="-141.421" r="299.7"/><circle cx="-141.421" cy="-353.978" r="299.7"/><circle cx="353.978" cy="141.421" r="299.7"/><polygon points="353.3409,142.0581 -142.0581,-353.3409 -565.8979,70.4989 -70.4989,565.8979"/><polygon points="-565.8979,-353.3409 -353.3409,-565.8979 70.4989,-142.0581 -142.0581,70.4989"/><polygon points="70.4989,-565.8979 565.8979,-70.4989 142.0581,353.3409 -353.3409,-142.0581"/><polygon points="142.0581,-70.4989 -70.4989,142.0581 353.3409,565.8979 565.8979,353.3409"/></g><rect x="-650" y="-500" width="1300" height="1000" id="e4kyK8dLdrKpe9Cm8FH-_pad-34"/><rect x="-700" y="-500" width="1400" height="1000" rx="500" ry="500" id="e4kyK8dLdrKpe9Cm8FH-_pad-35"/><mask id="e4kyK8dLdrKpe9Cm8FH-_clear-1" fill="#000" stroke="#000"><g><rect x="32491.18" y="-70867.865" width="86497.987" height="42805.365" fill="#fff"/><path d="M 107080 -32247 106064 -32247 106064 -31231 107080 -31231 107080 -32247" fill="none" stroke-width="100"/><path d="M 107080 -32247 106064 -32247 106064 -31231 107080 -31231 107080 -32247"/><path d="M 107080 -34787 106064 -34787 106064 -33771 107080 -33771 107080 -34787" fill="none" stroke-width="100"/><path d="M 107080 -34787 106064 -34787 106064 -33771 107080 -33771 107080 -34787"/><path d="M 107080 -37327 106064 -37327 106064 -36311 107080 -36311 107080 -37327" fill="none" stroke-width="100"/><path d="M 107080 -37327 106064 -37327 106064 -36311 107080 -36311 107080 -37327"/><path d="M 107080 -39867 106064 -39867 106064 -38851 107080 -38851 107080 -39867" fill="none" stroke-width="100"/><path d="M 107080 -39867 106064 -39867 106064 -38851 107080 -38851 107080 -39867"/><path d="M 107080 -42407 106064 -42407 106064 -41391 107080 -41391 107080 -42407" fill="none" stroke-width="100"/><path d="M 107080 -42407 106064 -42407 106064 -41391 107080 -41391 107080 -42407"/><path d="M 107080 -44947 106064 -44947 106064 -43931 107080 -43931 107080 -44947" fill="none" stroke-width="100"/><path d="M 107080 -44947 106064 -44947 106064 -43931 107080 -43931 107080 -44947"/><path d="M 107080 -47487 106064 -47487 106064 -46471 107080 -46471 107080 -47487" fill="none" stroke-width="100"/><path d="M 107080 -47487 106064 -47487 106064 -46471 107080 -46471 107080 -47487"/><path d="M 107080 -50027 106064 -50027 106064 -49011 107080 -49011 107080 -50027" fill="none" stroke-width="100"/><path d="M 107080 -50027 106064 -50027 106064 -49011 107080 -49011 107080 -50027"/><path d="M 107080 -52567 106064 -52567 106064 -51551 107080 -51551 107080 -52567" fill="none" stroke-width="100"/><path d="M 107080 -52567 106064 -52567 106064 -51551 107080 -51551 107080 -52567"/><path d="M 107080 -55107 106064 -55107 106064 -54091 107080 -54091 107080 -55107" fill="none" stroke-width="100"/><path d="M 107080 -55107 106064 -55107 106064 -54091 107080 -54091 107080 -55107"/><path d="M 107080 -57647 106064 -57647 106064 -56631 107080 -56631 107080 -57647" fill="none" stroke-width="100"/><path d="M 107080 -57647 106064 -57647 106064 -56631 107080 -56631 107080 -57647"/><path d="M 107080 -60187 106064 -60187 106064 -59171 107080 -59171 107080 -60187" fill="none" stroke-width="100"/><path d="M 107080 -60187 106064 -60187 106064 -59171 107080 -59171 107080 -60187"/><path d="M 118256 -32247 117240 -32247 117240 -31231 118256 -31231 118256 -32247" fill="none" stroke-width="100"/><path d="M 118256 -32247 117240 -32247 117240 -31231 118256 -31231 118256 -32247"/><path d="M 118256 -34787 117240 -34787 117240 -33771 118256 -33771 118256 -34787" fill="none" stroke-width="100"/><path d="M 118256 -34787 117240 -34787 117240 -33771 118256 -33771 118256 -34787"/><path d="M 118256 -37327 117240 -37327 117240 -36311 118256 -36311 118256 -37327" fill="none" stroke-width="100"/><path d="M 118256 -37327 117240 -37327 117240 -36311 118256 -36311 118256 -37327"/><path d="M 118256 -39867 117240 -39867 117240 -38851 118256 -38851 118256 -39867" fill="none" stroke-width="100"/><path d="M 118256 -39867 117240 -39867 117240 -38851 118256 -38851 118256 -39867"/><path d="M 118256 -42407 117240 -42407 117240 -41391 118256 -41391 118256 -42407" fill="none" stroke-width="100"/><path d="M 118256 -42407 117240 -42407 117240 -41391 118256 -41391 118256 -42407"/><path d="M 118256 -44947 117240 -44947 117240 -43931 118256 -43931 118256 -44947" fill="none" stroke-width="100"/><path d="M 118256 -44947 117240 -44947 117240 -43931 118256 -43931 118256 -44947"/><path d="M 118256 -47487 117240 -47487 117240 -46471 118256 -46471 118256 -47487" fill="none" stroke-width="100"/><path d="M 118256 -47487 117240 -47487 117240 -46471 118256 -46471 118256 -47487"/><path d="M 118256 -50027 117240 -50027 117240 -49011 118256 -49011 118256 -50027" fill="none" stroke-width="100"/><path d="M 118256 -50027 117240 -50027 117240 -49011 118256 -49011 118256 -50027"/><path d="M 118256 -52567 117240 -52567 117240 -51551 118256 -51551 118256 -52567" fill="none" stroke-width="100"/><path d="M 118256 -52567 117240 -52567 117240 -51551 118256 -51551 118256 -52567"/><path d="M 118256 -55107 117240 -55107 117240 -54091 118256 -54091 118256 -55107" fill="none" stroke-width="100"/><path d="M 118256 -55107 117240 -55107 117240 -54091 118256 -54091 118256 -55107"/><path d="M 118256 -57647 117240 -57647 117240 -56631 118256 -56631 118256 -57647" fill="none" stroke-width="100"/><path d="M 118256 -57647 117240 -57647 117240 -56631 118256 -56631 118256 -57647"/><path d="M 118256 -60187 117240 -60187 117240 -59171 118256 -59171 118256 -60187" fill="none" stroke-width="100"/><path d="M 118256 -60187 117240 -60187 117240 -59171 118256 -59171 118256 -60187"/><use xlink:href="#e4kyK8dLdrKpe9Cm8FH-_pad-17" x="84729.656" y="-64866.856"/><use xlink:href="#e4kyK8dLdrKpe9Cm8FH-_pad-17" x="81335.544" y="-61472.744"/><use xlink:href="#e4kyK8dLdrKpe9Cm8FH-_pad-18" x="70206" y="-52918"/><use xlink:href="#e4kyK8dLdrKpe9Cm8FH-_pad-19" x="75706" y="-52918"/><use xlink:href="#e4kyK8dLdrKpe9Cm8FH-_pad-18" x="81206" y="-52918"/><use xlink:href="#e4kyK8dLdrKpe9Cm8FH-_pad-20" x="75706" y="-47018"/><use xlink:href="#e4kyK8dLdrKpe9Cm8FH-_pad-20" x="70706" y="-49118"/><use xlink:href="#e4kyK8dLdrKpe9Cm8FH-_pad-20" x="80706" y="-49118"/><use xlink:href="#e4kyK8dLdrKpe9Cm8FH-_pad-18" x="106306" y="-69968"/><use xlink:href="#e4kyK8dLdrKpe9Cm8FH-_pad-19" x="111806" y="-69968"/><use xlink:href="#e4kyK8dLdrKpe9Cm8FH-_pad-18" x="117306" y="-69968"/><use xlink:href="#e4kyK8dLdrKpe9Cm8FH-_pad-20" x="111806" y="-64068"/><use xlink:href="#e4kyK8dLdrKpe9Cm8FH-_pad-20" x="106806" y="-66168"/><use xlink:href="#e4kyK8dLdrKpe9Cm8FH-_pad-20" x="116806" y="-66168"/><use xlink:href="#e4kyK8dLdrKpe9Cm8FH-_pad-18" x="88256" y="-69968"/><use xlink:href="#e4kyK8dLdrKpe9Cm8FH-_pad-19" x="93756" y="-69968"/><use xlink:href="#e4kyK8dLdrKpe9Cm8FH-_pad-18" x="99256" y="-69968"/><use xlink:href="#e4kyK8dLdrKpe9Cm8FH-_pad-20" x="93756" y="-64068"/><use xlink:href="#e4kyK8dLdrKpe9Cm8FH-_pad-20" x="88756" y="-66168"/><use xlink:href="#e4kyK8dLdrKpe9Cm8FH-_pad-20" x="98756" y="-66168"/><use xlink:href="#e4kyK8dLdrKpe9Cm8FH-_pad-18" x="88256" y="-52918"/><use xlink:href="#e4kyK8dLdrKpe9Cm8FH-_pad-19" x="93756" y="-52918"/><use xlink:href="#e4kyK8dLdrKpe9Cm8FH-_pad-18" x="99256" y="-52918"/><use xlink:href="#e4kyK8dLdrKpe9Cm8FH-_pad-20" x="93756" y="-47018"/><use xlink:href="#e4kyK8dLdrKpe9Cm8FH-_pad-20" x="88756" y="-49118"/><use xlink:href="#e4kyK8dLdrKpe9Cm8FH-_pad-20" x="98756" y="-49118"/><use xlink:href="#e4kyK8dLdrKpe9Cm8FH-_pad-18" x="88256" y="-35868"/><use xlink:href="#e4kyK8dLdrKpe9Cm8FH-_pad-19" x="93756" y="-35868"/><use xlink:href="#e4kyK8dLdrKpe9Cm8FH-_pad-18" x="99256" y="-35868"/><use xlink:href="#e4kyK8dLdrKpe9Cm8FH-_pad-20" x="93756" y="-29968"/><use xlink:href="#e4kyK8dLdrKpe9Cm8FH-_pad-20" x="88756" y="-32068"/><use xlink:href="#e4kyK8dLdrKpe9Cm8FH-_pad-20" x="98756" y="-32068"/><use xlink:href="#e4kyK8dLdrKpe9Cm8FH-_pad-18" x="70206" y="-35868"/><use xlink:href="#e4kyK8dLdrKpe9Cm8FH-_pad-19" x="75706" y="-35868"/><use xlink:href="#e4kyK8dLdrKpe9Cm8FH-_pad-18" x="81206" y="-35868"/><use xlink:href="#e4kyK8dLdrKpe9Cm8FH-_pad-20" x="75706" y="-29968"/><use xlink:href="#e4kyK8dLdrKpe9Cm8FH-_pad-20" x="70706" y="-32068"/><use xlink:href="#e4kyK8dLdrKpe9Cm8FH-_pad-20" x="80706" y="-32068"/><use xlink:href="#e4kyK8dLdrKpe9Cm8FH-_pad-18" x="34106" y="-52918"/><use xlink:href="#e4kyK8dLdrKpe9Cm8FH-_pad-19" x="39606" y="-52918"/><use xlink:href="#e4kyK8dLdrKpe9Cm8FH-_pad-18" x="45106" y="-52918"/><use xlink:href="#e4kyK8dLdrKpe9Cm8FH-_pad-20" x="39606" y="-47018"/><use xlink:href="#e4kyK8dLdrKpe9Cm8FH-_pad-20" x="34606" y="-49118"/><use xlink:href="#e4kyK8dLdrKpe9Cm8FH-_pad-20" x="44606" y="-49118"/><use xlink:href="#e4kyK8dLdrKpe9Cm8FH-_pad-18" x="34106" y="-35868"/><use xlink:href="#e4kyK8dLdrKpe9Cm8FH-_pad-19" x="39606" y="-35868"/><use xlink:href="#e4kyK8dLdrKpe9Cm8FH-_pad-18" x="45106" y="-35868"/><use xlink:href="#e4kyK8dLdrKpe9Cm8FH-_pad-20" x="39606" y="-29968"/><use xlink:href="#e4kyK8dLdrKpe9Cm8FH-_pad-20" x="34606" y="-32068"/><use xlink:href="#e4kyK8dLdrKpe9Cm8FH-_pad-20" x="44606" y="-32068"/><use xlink:href="#e4kyK8dLdrKpe9Cm8FH-_pad-18" x="52156" y="-35868"/><use xlink:href="#e4kyK8dLdrKpe9Cm8FH-_pad-19" x="57656" y="-35868"/><use xlink:href="#e4kyK8dLdrKpe9Cm8FH-_pad-18" x="63156" y="-35868"/><use xlink:href="#e4kyK8dLdrKpe9Cm8FH-_pad-20" x="57656" y="-29968"/><use xlink:href="#e4kyK8dLdrKpe9Cm8FH-_pad-20" x="52656" y="-32068"/><use xlink:href="#e4kyK8dLdrKpe9Cm8FH-_pad-20" x="62656" y="-32068"/><use xlink:href="#e4kyK8dLdrKpe9Cm8FH-_pad-18" x="52156" y="-52918"/><use xlink:href="#e4kyK8dLdrKpe9Cm8FH-_pad-19" x="57656" y="-52918"/><use xlink:href="#e4kyK8dLdrKpe9Cm8FH-_pad-18" x="63156" y="-52918"/><use xlink:href="#e4kyK8dLdrKpe9Cm8FH-_pad-20" x="57656" y="-47018"/><use xlink:href="#e4kyK8dLdrKpe9Cm8FH-_pad-20" x="52656" y="-49118"/><use xlink:href="#e4kyK8dLdrKpe9Cm8FH-_pad-20" x="62656" y="-49118"/><use xlink:href="#e4kyK8dLdrKpe9Cm8FH-_pad-21" x="104540" y="-31739"/><use xlink:href="#e4kyK8dLdrKpe9Cm8FH-_pad-22" x="104540" y="-31739"/><use xlink:href="#e4kyK8dLdrKpe9Cm8FH-_pad-21" x="104540" y="-34279"/><use xlink:href="#e4kyK8dLdrKpe9Cm8FH-_pad-21" x="104540" y="-36819"/><use xlink:href="#e4kyK8dLdrKpe9Cm8FH-_pad-21" x="104540" y="-39359"/><use xlink:href="#e4kyK8dLdrKpe9Cm8FH-_pad-21" x="104540" y="-41899"/><use xlink:href="#e4kyK8dLdrKpe9Cm8FH-_pad-21" x="104540" y="-44439"/><use xlink:href="#e4kyK8dLdrKpe9Cm8FH-_pad-21" x="104540" y="-46979"/><use xlink:href="#e4kyK8dLdrKpe9Cm8FH-_pad-21" x="104540" y="-49519"/><use xlink:href="#e4kyK8dLdrKpe9Cm8FH-_pad-21" x="104540" y="-52059"/><use xlink:href="#e4kyK8dLdrKpe9Cm8FH-_pad-21" x="104540" y="-54599"/><use xlink:href="#e4kyK8dLdrKpe9Cm8FH-_pad-21" x="104540" y="-57139"/><use xlink:href="#e4kyK8dLdrKpe9Cm8FH-_pad-21" x="104540" y="-59679"/><use xlink:href="#e4kyK8dLdrKpe9Cm8FH-_pad-23" x="106318" y="-31739"/><use xlink:href="#e4kyK8dLdrKpe9Cm8FH-_pad-23" x="106318" y="-34279"/><use xlink:href="#e4kyK8dLdrKpe9Cm8FH-_pad-23" x="106318" y="-36819"/><use xlink:href="#e4kyK8dLdrKpe9Cm8FH-_pad-23" x="106318" y="-39359"/><use xlink:href="#e4kyK8dLdrKpe9Cm8FH-_pad-23" x="106318" y="-41899"/><use xlink:href="#e4kyK8dLdrKpe9Cm8FH-_pad-23" x="106318" y="-44439"/><use xlink:href="#e4kyK8dLdrKpe9Cm8FH-_pad-23" x="106318" y="-46979"/><use xlink:href="#e4kyK8dLdrKpe9Cm8FH-_pad-23" x="106318" y="-49519"/><use xlink:href="#e4kyK8dLdrKpe9Cm8FH-_pad-23" x="106318" y="-52059"/><use xlink:href="#e4kyK8dLdrKpe9Cm8FH-_pad-23" x="106318" y="-54599"/><use xlink:href="#e4kyK8dLdrKpe9Cm8FH-_pad-23" x="106318" y="-57139"/><use xlink:href="#e4kyK8dLdrKpe9Cm8FH-_pad-23" x="106318" y="-59679"/><use xlink:href="#e4kyK8dLdrKpe9Cm8FH-_pad-24" x="118002" y="-31739"/><use xlink:href="#e4kyK8dLdrKpe9Cm8FH-_pad-24" x="118002" y="-34279"/><use xlink:href="#e4kyK8dLdrKpe9Cm8FH-_pad-24" x="118002" y="-36819"/><use xlink:href="#e4kyK8dLdrKpe9Cm8FH-_pad-24" x="118002" y="-39359"/><use xlink:href="#e4kyK8dLdrKpe9Cm8FH-_pad-24" x="118002" y="-41899"/><use xlink:href="#e4kyK8dLdrKpe9Cm8FH-_pad-24" x="118002" y="-44439"/><use xlink:href="#e4kyK8dLdrKpe9Cm8FH-_pad-24" x="118002" y="-46979"/><use xlink:href="#e4kyK8dLdrKpe9Cm8FH-_pad-24" x="118002" y="-49519"/><use xlink:href="#e4kyK8dLdrKpe9Cm8FH-_pad-24" x="118002" y="-52059"/><use xlink:href="#e4kyK8dLdrKpe9Cm8FH-_pad-24" x="118002" y="-54599"/><use xlink:href="#e4kyK8dLdrKpe9Cm8FH-_pad-24" x="118002" y="-57139"/><use xlink:href="#e4kyK8dLdrKpe9Cm8FH-_pad-24" x="118002" y="-59679"/><use xlink:href="#e4kyK8dLdrKpe9Cm8FH-_pad-21" x="119780" y="-31739"/><use xlink:href="#e4kyK8dLdrKpe9Cm8FH-_pad-21" x="119780" y="-34279"/><use xlink:href="#e4kyK8dLdrKpe9Cm8FH-_pad-21" x="119780" y="-36819"/><use xlink:href="#e4kyK8dLdrKpe9Cm8FH-_pad-21" x="119780" y="-39359"/><use xlink:href="#e4kyK8dLdrKpe9Cm8FH-_pad-21" x="119780" y="-41899"/><use xlink:href="#e4kyK8dLdrKpe9Cm8FH-_pad-21" x="119780" y="-44439"/><use xlink:href="#e4kyK8dLdrKpe9Cm8FH-_pad-21" x="119780" y="-46979"/><use xlink:href="#e4kyK8dLdrKpe9Cm8FH-_pad-21" x="119780" y="-49519"/><use xlink:href="#e4kyK8dLdrKpe9Cm8FH-_pad-21" x="119780" y="-52059"/><use xlink:href="#e4kyK8dLdrKpe9Cm8FH-_pad-21" x="119780" y="-54599"/><use xlink:href="#e4kyK8dLdrKpe9Cm8FH-_pad-21" x="119780" y="-57139"/><use xlink:href="#e4kyK8dLdrKpe9Cm8FH-_pad-21" x="119780" y="-59679"/><use xlink:href="#e4kyK8dLdrKpe9Cm8FH-_pad-25" x="107334" y="-31739"/><use xlink:href="#e4kyK8dLdrKpe9Cm8FH-_pad-25" x="107334" y="-34279"/><use xlink:href="#e4kyK8dLdrKpe9Cm8FH-_pad-25" x="107334" y="-36819"/><use xlink:href="#e4kyK8dLdrKpe9Cm8FH-_pad-25" x="107334" y="-39359"/><use xlink:href="#e4kyK8dLdrKpe9Cm8FH-_pad-25" x="107334" y="-41899"/><use xlink:href="#e4kyK8dLdrKpe9Cm8FH-_pad-25" x="107334" y="-44439"/><use xlink:href="#e4kyK8dLdrKpe9Cm8FH-_pad-25" x="107334" y="-46979"/><use xlink:href="#e4kyK8dLdrKpe9Cm8FH-_pad-25" x="107334" y="-49519"/><use xlink:href="#e4kyK8dLdrKpe9Cm8FH-_pad-25" x="107334" y="-52059"/><use xlink:href="#e4kyK8dLdrKpe9Cm8FH-_pad-25" x="107334" y="-54599"/><use xlink:href="#e4kyK8dLdrKpe9Cm8FH-_pad-25" x="107334" y="-57139"/><use xlink:href="#e4kyK8dLdrKpe9Cm8FH-_pad-25" x="107334" y="-59679"/><use xlink:href="#e4kyK8dLdrKpe9Cm8FH-_pad-26" x="116986" y="-59679"/><use xlink:href="#e4kyK8dLdrKpe9Cm8FH-_pad-26" x="116986" y="-57139"/><use xlink:href="#e4kyK8dLdrKpe9Cm8FH-_pad-26" x="116986" y="-54599"/><use xlink:href="#e4kyK8dLdrKpe9Cm8FH-_pad-26" x="116986" y="-52059"/><use xlink:href="#e4kyK8dLdrKpe9Cm8FH-_pad-26" x="116986" y="-49519"/><use xlink:href="#e4kyK8dLdrKpe9Cm8FH-_pad-26" x="116986" y="-46979"/><use xlink:href="#e4kyK8dLdrKpe9Cm8FH-_pad-26" x="116986" y="-44439"/><use xlink:href="#e4kyK8dLdrKpe9Cm8FH-_pad-26" x="116986" y="-41899"/><use xlink:href="#e4kyK8dLdrKpe9Cm8FH-_pad-26" x="116986" y="-39359"/><use xlink:href="#e4kyK8dLdrKpe9Cm8FH-_pad-26" x="116986" y="-36819"/><use xlink:href="#e4kyK8dLdrKpe9Cm8FH-_pad-26" x="116986" y="-34279"/><use xlink:href="#e4kyK8dLdrKpe9Cm8FH-_pad-26" x="116986" y="-31739"/><use xlink:href="#e4kyK8dLdrKpe9Cm8FH-_pad-27" x="48631" y="-44393"/><use xlink:href="#e4kyK8dLdrKpe9Cm8FH-_pad-27" x="84731" y="-44393"/><use xlink:href="#e4kyK8dLdrKpe9Cm8FH-_pad-27" x="111810.8" y="-59283.6"/><use xlink:href="#e4kyK8dLdrKpe9Cm8FH-_pad-28" x="104551.4" y="-28941"/><use xlink:href="#e4kyK8dLdrKpe9Cm8FH-_pad-29" x="119768.6" y="-28941"/><use xlink:href="#e4kyK8dLdrKpe9Cm8FH-_pad-30" x="75934.848" y="-65114.383"/><use xlink:href="#e4kyK8dLdrKpe9Cm8FH-_pad-30" x="77515.939" y="-63533.293"/><use xlink:href="#e4kyK8dLdrKpe9Cm8FH-_pad-31" x="78192.64" y="-65826.44"/><use xlink:href="#e4kyK8dLdrKpe9Cm8FH-_pad-31" x="80313.96" y="-67947.76"/><use xlink:href="#e4kyK8dLdrKpe9Cm8FH-_pad-30" x="82607.107" y="-68624.461"/><use xlink:href="#e4kyK8dLdrKpe9Cm8FH-_pad-30" x="81026.017" y="-70205.552"/><use xlink:href="#e4kyK8dLdrKpe9Cm8FH-_pad-32" x="82258.504" y="-67063.877"/><use xlink:href="#e4kyK8dLdrKpe9Cm8FH-_pad-33" x="81197.844" y="-66003.217"/><use xlink:href="#e4kyK8dLdrKpe9Cm8FH-_pad-33" x="79076.523" y="-63881.896"/><use xlink:href="#e4kyK8dLdrKpe9Cm8FH-_pad-34" x="91156" y="-41268"/><use xlink:href="#e4kyK8dLdrKpe9Cm8FH-_pad-34" x="91156" y="-39868"/><use xlink:href="#e4kyK8dLdrKpe9Cm8FH-_pad-35" x="96356" y="-39868"/><use xlink:href="#e4kyK8dLdrKpe9Cm8FH-_pad-34" x="96356" y="-41268"/><use xlink:href="#e4kyK8dLdrKpe9Cm8FH-_pad-34" x="114406" y="-73968"/><use xlink:href="#e4kyK8dLdrKpe9Cm8FH-_pad-34" x="114406" y="-75368"/><use xlink:href="#e4kyK8dLdrKpe9Cm8FH-_pad-35" x="109206" y="-75368"/><use xlink:href="#e4kyK8dLdrKpe9Cm8FH-_pad-34" x="109206" y="-73968"/><use xlink:href="#e4kyK8dLdrKpe9Cm8FH-_pad-34" x="96356" y="-73968"/><use xlink:href="#e4kyK8dLdrKpe9Cm8FH-_pad-34" x="96356" y="-75368"/><use xlink:href="#e4kyK8dLdrKpe9Cm8FH-_pad-35" x="91156" y="-75368"/><use xlink:href="#e4kyK8dLdrKpe9Cm8FH-_pad-34" x="91156" y="-73968"/><use xlink:href="#e4kyK8dLdrKpe9Cm8FH-_pad-34" x="96356" y="-56918"/><use xlink:href="#e4kyK8dLdrKpe9Cm8FH-_pad-34" x="96356" y="-58318"/><use xlink:href="#e4kyK8dLdrKpe9Cm8FH-_pad-35" x="91156" y="-58318"/><use xlink:href="#e4kyK8dLdrKpe9Cm8FH-_pad-34" x="91156" y="-56918"/><use xlink:href="#e4kyK8dLdrKpe9Cm8FH-_pad-34" x="78306" y="-56918"/><use xlink:href="#e4kyK8dLdrKpe9Cm8FH-_pad-34" x="78306" y="-58318"/><use xlink:href="#e4kyK8dLdrKpe9Cm8FH-_pad-35" x="73106" y="-58318"/><use xlink:href="#e4kyK8dLdrKpe9Cm8FH-_pad-34" x="73106" y="-56918"/><use xlink:href="#e4kyK8dLdrKpe9Cm8FH-_pad-34" x="60256" y="-56918"/><use xlink:href="#e4kyK8dLdrKpe9Cm8FH-_pad-34" x="60256" y="-58318"/><use xlink:href="#e4kyK8dLdrKpe9Cm8FH-_pad-35" x="55056" y="-58318"/><use xlink:href="#e4kyK8dLdrKpe9Cm8FH-_pad-34" x="55056" y="-56918"/><use xlink:href="#e4kyK8dLdrKpe9Cm8FH-_pad-34" x="42206" y="-56918"/><use xlink:href="#e4kyK8dLdrKpe9Cm8FH-_pad-34" x="42206" y="-58318"/><use xlink:href="#e4kyK8dLdrKpe9Cm8FH-_pad-35" x="37006" y="-58318"/><use xlink:href="#e4kyK8dLdrKpe9Cm8FH-_pad-34" x="37006" y="-56918"/><use xlink:href="#e4kyK8dLdrKpe9Cm8FH-_pad-34" x="37006" y="-41268"/><use xlink:href="#e4kyK8dLdrKpe9Cm8FH-_pad-34" x="37006" y="-39868"/><use xlink:href="#e4kyK8dLdrKpe9Cm8FH-_pad-35" x="42206" y="-39868"/><use xlink:href="#e4kyK8dLdrKpe9Cm8FH-_pad-34" x="42206" y="-41268"/><use xlink:href="#e4kyK8dLdrKpe9Cm8FH-_pad-34" x="55056" y="-41268"/><use xlink:href="#e4kyK8dLdrKpe9Cm8FH-_pad-34" x="55056" y="-39868"/><use xlink:href="#e4kyK8dLdrKpe9Cm8FH-_pad-35" x="60256" y="-39868"/><use xlink:href="#e4kyK8dLdrKpe9Cm8FH-_pad-34" x="60256" y="-41268"/><use xlink:href="#e4kyK8dLdrKpe9Cm8FH-_pad-34" x="73106" y="-41268"/><use xlink:href="#e4kyK8dLdrKpe9Cm8FH-_pad-34" x="73106" y="-39868"/><use xlink:href="#e4kyK8dLdrKpe9Cm8FH-_pad-35" x="78306" y="-39868"/><use xlink:href="#e4kyK8dLdrKpe9Cm8FH-_pad-34" x="78306" y="-41268"/></g></mask><polygon points="-212.13203,-1060.66017 -1060.66017,-212.13203 212.13203,1060.66017 1060.66017,212.13203" id="fuv4Z9ovs4xx2OzzO0S__pad-10"/><circle cx="0" cy="0" r="1000" id="fuv4Z9ovs4xx2OzzO0S__pad-11"/><circle cx="0" cy="0" r="800" id="fuv4Z9ovs4xx2OzzO0S__pad-12"/><rect x="-800" y="-800" width="1600" height="1600" id="fuv4Z9ovs4xx2OzzO0S__pad-13"/><polygon points="500,125 500,-125 -500,-125 -500,125 500,125" id="fuv4Z9ovs4xx2OzzO0S__pad-14"/><polygon points="-200,600 400,0 -200,-600 -400,-600 -400,600 -200,600" id="fuv4Z9ovs4xx2OzzO0S__pad-15"/><polygon points="200,-600 -400,0 200,600 400,600 400,-600 200,-600" id="fuv4Z9ovs4xx2OzzO0S__pad-16"/><polygon points="-500,-125 -500,125 500,125 500,-125 -500,-125" id="fuv4Z9ovs4xx2OzzO0S__pad-17"/><polygon points="250,600 250,-600 -1000,-600 -400,0 -1000,600 250,600" id="fuv4Z9ovs4xx2OzzO0S__pad-18"/><polygon points="-250,-600 -250,600 1000,600 400,0 1000,-600 -250,-600" id="fuv4Z9ovs4xx2OzzO0S__pad-19"/><circle cx="0" cy="0" r="1200" id="fuv4Z9ovs4xx2OzzO0S__pad-20"/><circle cx="0" cy="0" r="762" id="fuv4Z9ovs4xx2OzzO0S__pad-21"/><g id="fuv4Z9ovs4xx2OzzO0S__pad-22"><polygon points="-381,-381 381,-381 381,381 -381,381"/><circle cx="-381" cy="-381" r="381"/><circle cx="381" cy="-381" r="381"/><circle cx="381" cy="381" r="381"/><circle cx="-381" cy="381" r="381"/><polygon points="-381,-762 381,-762 381,0 -381,0"/><polygon points="762,-381 762,381 0,381 0,-381"/><polygon points="381,0 -381,0 -381,762 381,762"/><polygon points="0,381 0,-381 -762,-381 -762,381"/></g><g id="fuv4Z9ovs4xx2OzzO0S__pad-23"><polygon points="283.126,-141.421 -141.421,283.126 -283.126,141.421 141.421,-283.126"/><circle cx="283.126" cy="-141.421" r="199.8"/><circle cx="-141.421" cy="283.126" r="199.8"/><circle cx="-283.126" cy="141.421" r="199.8"/><circle cx="141.421" cy="-283.126" r="199.8"/><polygon points="141.84607,-282.70093 -282.70093,141.84607 -0.14107,424.40593 424.40593,-0.14107"/><polygon points="-0.14107,141.84607 -141.84607,0.14107 -424.40593,282.70093 -282.70093,424.40593"/><polygon points="-424.40593,0.14107 0.14107,-424.40593 282.70093,-141.84607 -141.84607,282.70093"/><polygon points="282.70093,-424.40593 424.40593,-282.70093 141.84607,-0.14107 0.14107,-141.84607"/></g><g id="fuv4Z9ovs4xx2OzzO0S__pad-24"><polygon points="141.421,459.619 -459.619,-141.421 -141.421,-459.619 459.619,141.421"/><circle cx="141.421" cy="459.619" r="225"/><circle cx="-459.619" cy="-141.421" r="225"/><circle cx="-141.421" cy="-459.619" r="225"/><circle cx="459.619" cy="141.421" r="225"/><polygon points="300.52003,300.51997 -300.51997,-300.52003 -618.71803,17.67803 -17.67803,618.71803"/><polygon points="-618.71803,-300.52003 -300.52003,-618.71803 17.67803,-300.51997 -300.51997,17.67803"/><polygon points="17.67803,-618.71803 618.71803,-17.67803 300.51997,300.52003 -300.52003,-300.51997"/><polygon points="300.51997,-17.67803 -17.67803,300.51997 300.52003,618.71803 618.71803,300.52003"/></g><g id="fuv4Z9ovs4xx2OzzO0S__pad-25"><polygon points="141.421,353.978 -353.978,-141.421 -141.421,-353.978 353.978,141.421"/><circle cx="141.421" cy="353.978" r="299.7"/><circle cx="-353.978" cy="-141.421" r="299.7"/><circle cx="-141.421" cy="-353.978" r="299.7"/><circle cx="353.978" cy="141.421" r="299.7"/><polygon points="353.3409,142.0581 -142.0581,-353.3409 -565.8979,70.4989 -70.4989,565.8979"/><polygon points="-565.8979,-353.3409 -353.3409,-565.8979 70.4989,-142.0581 -142.0581,70.4989"/><polygon points="70.4989,-565.8979 565.8979,-70.4989 142.0581,353.3409 -353.3409,-142.0581"/><polygon points="142.0581,-70.4989 -70.4989,142.0581 353.3409,565.8979 565.8979,353.3409"/></g><g id="fuv4Z9ovs4xx2OzzO0S__pad-26"><polygon points="141.421,353.978 -353.978,-141.421 -141.421,-353.978 353.978,141.421"/><circle cx="141.421" cy="353.978" r="299.7"/><circle cx="-353.978" cy="-141.421" r="299.7"/><circle cx="-141.421" cy="-353.978" r="299.7"/><circle cx="353.978" cy="141.421" r="299.7"/><polygon points="353.3409,142.0581 -142.0581,-353.3409 -565.8979,70.4989 -70.4989,565.8979"/><polygon points="-565.8979,-353.3409 -353.3409,-565.8979 70.4989,-142.0581 -142.0581,70.4989"/><polygon points="70.4989,-565.8979 565.8979,-70.4989 142.0581,353.3409 -353.3409,-142.0581"/><polygon points="142.0581,-70.4989 -70.4989,142.0581 353.3409,565.8979 565.8979,353.3409"/></g><rect x="-650" y="-500" width="1300" height="1000" id="fuv4Z9ovs4xx2OzzO0S__pad-27"/><rect x="-700" y="-500" width="1400" height="1000" rx="500" ry="500" id="fuv4Z9ovs4xx2OzzO0S__pad-28"/><circle cx="0" cy="0" r="300" id="fuv4Z9ovs4xx2OzzO0S__pad-29"/><g id="hCz2nkqMA5-Lx8OsV3Ca_pad-10"><polygon points="141.421,353.978 -353.978,-141.421 -141.421,-353.978 353.978,141.421"/><circle cx="141.421" cy="353.978" r="299.7"/><circle cx="-353.978" cy="-141.421" r="299.7"/><circle cx="-141.421" cy="-353.978" r="299.7"/><circle cx="353.978" cy="141.421" r="299.7"/><polygon points="353.3409,142.0581 -142.0581,-353.3409 -565.8979,70.4989 -70.4989,565.8979"/><polygon points="-565.8979,-353.3409 -353.3409,-565.8979 70.4989,-142.0581 -142.0581,70.4989"/><polygon points="70.4989,-565.8979 565.8979,-70.4989 142.0581,353.3409 -353.3409,-142.0581"/><polygon points="142.0581,-70.4989 -70.4989,142.0581 353.3409,565.8979 565.8979,353.3409"/></g><rect x="-650" y="-500" width="1300" height="1000" id="hCz2nkqMA5-Lx8OsV3Ca_pad-11"/><rect x="-700" y="-500" width="1400" height="1000" rx="500" ry="500" id="hCz2nkqMA5-Lx8OsV3Ca_pad-12"/><circle cx="0" cy="0" r="325" id="eejEgZ1F8tvv7nS1GZo7_pad-1"/><circle cx="0" cy="0" r="850" id="eejEgZ1F8tvv7nS1GZo7_pad-2"/><circle cx="0" cy="0" r="1050" id="eejEgZ1F8tvv7nS1GZo7_pad-3"/><circle cx="0" cy="0" r="1700" id="eejEgZ1F8tvv7nS1GZo7_pad-4"/><circle cx="0" cy="0" r="150" id="tmb8dofds0aKBAQrrX5F_pad-1"/><circle cx="0" cy="0" r="200" id="tmb8dofds0aKBAQrrX5F_pad-2"/><circle cx="0" cy="0" r="500" id="tmb8dofds0aKBAQrrX5F_pad-3"/><circle cx="0" cy="0" r="550" id="tmb8dofds0aKBAQrrX5F_pad-4"/><circle cx="0" cy="0" r="600" id="tmb8dofds0aKBAQrrX5F_pad-5"/><g id="gFDqMs30wWBy8dtwwff__top_soldermask"><path d="M 107080 -32247 106064 -32247 106064 -31231 107080 -31231 107080 -32247" fill="none" stroke-width="100"/><path d="M 107080 -32247 106064 -32247 106064 -31231 107080 -31231 107080 -32247"/><path d="M 107080 -34787 106064 -34787 106064 -33771 107080 -33771 107080 -34787" fill="none" stroke-width="100"/><path d="M 107080 -34787 106064 -34787 106064 -33771 107080 -33771 107080 -34787"/><path d="M 107080 -37327 106064 -37327 106064 -36311 107080 -36311 107080 -37327" fill="none" stroke-width="100"/><path d="M 107080 -37327 106064 -37327 106064 -36311 107080 -36311 107080 -37327"/><path d="M 107080 -39867 106064 -39867 106064 -38851 107080 -38851 107080 -39867" fill="none" stroke-width="100"/><path d="M 107080 -39867 106064 -39867 106064 -38851 107080 -38851 107080 -39867"/><path d="M 107080 -42407 106064 -42407 106064 -41391 107080 -41391 107080 -42407" fill="none" stroke-width="100"/><path d="M 107080 -42407 106064 -42407 106064 -41391 107080 -41391 107080 -42407"/><path d="M 107080 -44947 106064 -44947 106064 -43931 107080 -43931 107080 -44947" fill="none" stroke-width="100"/><path d="M 107080 -44947 106064 -44947 106064 -43931 107080 -43931 107080 -44947"/><path d="M 107080 -47487 106064 -47487 106064 -46471 107080 -46471 107080 -47487" fill="none" stroke-width="100"/><path d="M 107080 -47487 106064 -47487 106064 -46471 107080 -46471 107080 -47487"/><path d="M 107080 -50027 106064 -50027 106064 -49011 107080 -49011 107080 -50027" fill="none" stroke-width="100"/><path d="M 107080 -50027 106064 -50027 106064 -49011 107080 -49011 107080 -50027"/><path d="M 107080 -52567 106064 -52567 106064 -51551 107080 -51551 107080 -52567" fill="none" stroke-width="100"/><path d="M 107080 -52567 106064 -52567 106064 -51551 107080 -51551 107080 -52567"/><path d="M 107080 -55107 106064 -55107 106064 -54091 107080 -54091 107080 -55107" fill="none" stroke-width="100"/><path d="M 107080 -55107 106064 -55107 106064 -54091 107080 -54091 107080 -55107"/><path d="M 107080 -57647 106064 -57647 106064 -56631 107080 -56631 107080 -57647" fill="none" stroke-width="100"/><path d="M 107080 -57647 106064 -57647 106064 -56631 107080 -56631 107080 -57647"/><path d="M 107080 -60187 106064 -60187 106064 -59171 107080 -59171 107080 -60187" fill="none" stroke-width="100"/><path d="M 107080 -60187 106064 -60187 106064 -59171 107080 -59171 107080 -60187"/><path d="M 118256 -32247 117240 -32247 117240 -31231 118256 -31231 118256 -32247" fill="none" stroke-width="100"/><path d="M 118256 -32247 117240 -32247 117240 -31231 118256 -31231 118256 -32247"/><path d="M 118256 -34787 117240 -34787 117240 -33771 118256 -33771 118256 -34787" fill="none" stroke-width="100"/><path d="M 118256 -34787 117240 -34787 117240 -33771 118256 -33771 118256 -34787"/><path d="M 118256 -37327 117240 -37327 117240 -36311 118256 -36311 118256 -37327" fill="none" stroke-width="100"/><path d="M 118256 -37327 117240 -37327 117240 -36311 118256 -36311 118256 -37327"/><path d="M 118256 -39867 117240 -39867 117240 -38851 118256 -38851 118256 -39867" fill="none" stroke-width="100"/><path d="M 118256 -39867 117240 -39867 117240 -38851 118256 -38851 118256 -39867"/><path d="M 118256 -42407 117240 -42407 117240 -41391 118256 -41391 118256 -42407" fill="none" stroke-width="100"/><path d="M 118256 -42407 117240 -42407 117240 -41391 118256 -41391 118256 -42407"/><path d="M 118256 -44947 117240 -44947 117240 -43931 118256 -43931 118256 -44947" fill="none" stroke-width="100"/><path d="M 118256 -44947 117240 -44947 117240 -43931 118256 -43931 118256 -44947"/><path d="M 118256 -47487 117240 -47487 117240 -46471 118256 -46471 118256 -47487" fill="none" stroke-width="100"/><path d="M 118256 -47487 117240 -47487 117240 -46471 118256 -46471 118256 -47487"/><path d="M 118256 -50027 117240 -50027 117240 -49011 118256 -49011 118256 -50027" fill="none" stroke-width="100"/><path d="M 118256 -50027 117240 -50027 117240 -49011 118256 -49011 118256 -50027"/><path d="M 118256 -52567 117240 -52567 117240 -51551 118256 -51551 118256 -52567" fill="none" stroke-width="100"/><path d="M 118256 -52567 117240 -52567 117240 -51551 118256 -51551 118256 -52567"/><path d="M 118256 -55107 117240 -55107 117240 -54091 118256 -54091 118256 -55107" fill="none" stroke-width="100"/><path d="M 118256 -55107 117240 -55107 117240 -54091 118256 -54091 118256 -55107"/><path d="M 118256 -57647 117240 -57647 117240 -56631 118256 -56631 118256 -57647" fill="none" stroke-width="100"/><path d="M 118256 -57647 117240 -57647 117240 -56631 118256 -56631 118256 -57647"/><path d="M 118256 -60187 117240 -60187 117240 -59171 118256 -59171 118256 -60187" fill="none" stroke-width="100"/><path d="M 118256 -60187 117240 -60187 117240 -59171 118256 -59171 118256 -60187"/><use xlink:href="#Fd5C15SM7FQ8FFDbtW0r_pad-11" x="84729.656" y="-64866.856"/><use xlink:href="#Fd5C15SM7FQ8FFDbtW0r_pad-11" x="81335.544" y="-61472.744"/><use xlink:href="#Fd5C15SM7FQ8FFDbtW0r_pad-12" x="70206" y="-52918"/><use xlink:href="#Fd5C15SM7FQ8FFDbtW0r_pad-13" x="75706" y="-52918"/><use xlink:href="#Fd5C15SM7FQ8FFDbtW0r_pad-12" x="81206" y="-52918"/><use xlink:href="#Fd5C15SM7FQ8FFDbtW0r_pad-14" x="75706" y="-47018"/><use xlink:href="#Fd5C15SM7FQ8FFDbtW0r_pad-14" x="70706" y="-49118"/><use xlink:href="#Fd5C15SM7FQ8FFDbtW0r_pad-14" x="80706" y="-49118"/><use xlink:href="#Fd5C15SM7FQ8FFDbtW0r_pad-12" x="106306" y="-69968"/><use xlink:href="#Fd5C15SM7FQ8FFDbtW0r_pad-13" x="111806" y="-69968"/><use xlink:href="#Fd5C15SM7FQ8FFDbtW0r_pad-12" x="117306" y="-69968"/><use xlink:href="#Fd5C15SM7FQ8FFDbtW0r_pad-14" x="111806" y="-64068"/><use xlink:href="#Fd5C15SM7FQ8FFDbtW0r_pad-14" x="106806" y="-66168"/><use xlink:href="#Fd5C15SM7FQ8FFDbtW0r_pad-14" x="116806" y="-66168"/><use xlink:href="#Fd5C15SM7FQ8FFDbtW0r_pad-12" x="88256" y="-69968"/><use xlink:href="#Fd5C15SM7FQ8FFDbtW0r_pad-13" x="93756" y="-69968"/><use xlink:href="#Fd5C15SM7FQ8FFDbtW0r_pad-12" x="99256" y="-69968"/><use xlink:href="#Fd5C15SM7FQ8FFDbtW0r_pad-14" x="93756" y="-64068"/><use xlink:href="#Fd5C15SM7FQ8FFDbtW0r_pad-14" x="88756" y="-66168"/><use xlink:href="#Fd5C15SM7FQ8FFDbtW0r_pad-14" x="98756" y="-66168"/><use xlink:href="#Fd5C15SM7FQ8FFDbtW0r_pad-12" x="88256" y="-52918"/><use xlink:href="#Fd5C15SM7FQ8FFDbtW0r_pad-13" x="93756" y="-52918"/><use xlink:href="#Fd5C15SM7FQ8FFDbtW0r_pad-12" x="99256" y="-52918"/><use xlink:href="#Fd5C15SM7FQ8FFDbtW0r_pad-14" x="93756" y="-47018"/><use xlink:href="#Fd5C15SM7FQ8FFDbtW0r_pad-14" x="88756" y="-49118"/><use xlink:href="#Fd5C15SM7FQ8FFDbtW0r_pad-14" x="98756" y="-49118"/><use xlink:href="#Fd5C15SM7FQ8FFDbtW0r_pad-12" x="88256" y="-35868"/><use xlink:href="#Fd5C15SM7FQ8FFDbtW0r_pad-13" x="93756" y="-35868"/><use xlink:href="#Fd5C15SM7FQ8FFDbtW0r_pad-12" x="99256" y="-35868"/><use xlink:href="#Fd5C15SM7FQ8FFDbtW0r_pad-14" x="93756" y="-29968"/><use xlink:href="#Fd5C15SM7FQ8FFDbtW0r_pad-14" x="88756" y="-32068"/><use xlink:href="#Fd5C15SM7FQ8FFDbtW0r_pad-14" x="98756" y="-32068"/><use xlink:href="#Fd5C15SM7FQ8FFDbtW0r_pad-12" x="70206" y="-35868"/><use xlink:href="#Fd5C15SM7FQ8FFDbtW0r_pad-13" x="75706" y="-35868"/><use xlink:href="#Fd5C15SM7FQ8FFDbtW0r_pad-12" x="81206" y="-35868"/><use xlink:href="#Fd5C15SM7FQ8FFDbtW0r_pad-14" x="75706" y="-29968"/><use xlink:href="#Fd5C15SM7FQ8FFDbtW0r_pad-14" x="70706" y="-32068"/><use xlink:href="#Fd5C15SM7FQ8FFDbtW0r_pad-14" x="80706" y="-32068"/><use xlink:href="#Fd5C15SM7FQ8FFDbtW0r_pad-12" x="34106" y="-52918"/><use xlink:href="#Fd5C15SM7FQ8FFDbtW0r_pad-13" x="39606" y="-52918"/><use xlink:href="#Fd5C15SM7FQ8FFDbtW0r_pad-12" x="45106" y="-52918"/><use xlink:href="#Fd5C15SM7FQ8FFDbtW0r_pad-14" x="39606" y="-47018"/><use xlink:href="#Fd5C15SM7FQ8FFDbtW0r_pad-14" x="34606" y="-49118"/><use xlink:href="#Fd5C15SM7FQ8FFDbtW0r_pad-14" x="44606" y="-49118"/><use xlink:href="#Fd5C15SM7FQ8FFDbtW0r_pad-12" x="34106" y="-35868"/><use xlink:href="#Fd5C15SM7FQ8FFDbtW0r_pad-13" x="39606" y="-35868"/><use xlink:href="#Fd5C15SM7FQ8FFDbtW0r_pad-12" x="45106" y="-35868"/><use xlink:href="#Fd5C15SM7FQ8FFDbtW0r_pad-14" x="39606" y="-29968"/><use xlink:href="#Fd5C15SM7FQ8FFDbtW0r_pad-14" x="34606" y="-32068"/><use xlink:href="#Fd5C15SM7FQ8FFDbtW0r_pad-14" x="44606" y="-32068"/><use xlink:href="#Fd5C15SM7FQ8FFDbtW0r_pad-12" x="52156" y="-35868"/><use xlink:href="#Fd5C15SM7FQ8FFDbtW0r_pad-13" x="57656" y="-35868"/><use xlink:href="#Fd5C15SM7FQ8FFDbtW0r_pad-12" x="63156" y="-35868"/><use xlink:href="#Fd5C15SM7FQ8FFDbtW0r_pad-14" x="57656" y="-29968"/><use xlink:href="#Fd5C15SM7FQ8FFDbtW0r_pad-14" x="52656" y="-32068"/><use xlink:href="#Fd5C15SM7FQ8FFDbtW0r_pad-14" x="62656" y="-32068"/><use xlink:href="#Fd5C15SM7FQ8FFDbtW0r_pad-12" x="52156" y="-52918"/><use xlink:href="#Fd5C15SM7FQ8FFDbtW0r_pad-13" x="57656" y="-52918"/><use xlink:href="#Fd5C15SM7FQ8FFDbtW0r_pad-12" x="63156" y="-52918"/><use xlink:href="#Fd5C15SM7FQ8FFDbtW0r_pad-14" x="57656" y="-47018"/><use xlink:href="#Fd5C15SM7FQ8FFDbtW0r_pad-14" x="52656" y="-49118"/><use xlink:href="#Fd5C15SM7FQ8FFDbtW0r_pad-14" x="62656" y="-49118"/><use xlink:href="#Fd5C15SM7FQ8FFDbtW0r_pad-15" x="104540" y="-31739"/><use xlink:href="#Fd5C15SM7FQ8FFDbtW0r_pad-16" x="104540" y="-31739"/><use xlink:href="#Fd5C15SM7FQ8FFDbtW0r_pad-15" x="104540" y="-34279"/><use xlink:href="#Fd5C15SM7FQ8FFDbtW0r_pad-15" x="104540" y="-36819"/><use xlink:href="#Fd5C15SM7FQ8FFDbtW0r_pad-15" x="104540" y="-39359"/><use xlink:href="#Fd5C15SM7FQ8FFDbtW0r_pad-15" x="104540" y="-41899"/><use xlink:href="#Fd5C15SM7FQ8FFDbtW0r_pad-15" x="104540" y="-44439"/><use xlink:href="#Fd5C15SM7FQ8FFDbtW0r_pad-15" x="104540" y="-46979"/><use xlink:href="#Fd5C15SM7FQ8FFDbtW0r_pad-15" x="104540" y="-49519"/><use xlink:href="#Fd5C15SM7FQ8FFDbtW0r_pad-15" x="104540" y="-52059"/><use xlink:href="#Fd5C15SM7FQ8FFDbtW0r_pad-15" x="104540" y="-54599"/><use xlink:href="#Fd5C15SM7FQ8FFDbtW0r_pad-15" x="104540" y="-57139"/><use xlink:href="#Fd5C15SM7FQ8FFDbtW0r_pad-15" x="104540" y="-59679"/><use xlink:href="#Fd5C15SM7FQ8FFDbtW0r_pad-17" x="106318" y="-31739"/><use xlink:href="#Fd5C15SM7FQ8FFDbtW0r_pad-17" x="106318" y="-34279"/><use xlink:href="#Fd5C15SM7FQ8FFDbtW0r_pad-17" x="106318" y="-36819"/><use xlink:href="#Fd5C15SM7FQ8FFDbtW0r_pad-17" x="106318" y="-39359"/><use xlink:href="#Fd5C15SM7FQ8FFDbtW0r_pad-17" x="106318" y="-41899"/><use xlink:href="#Fd5C15SM7FQ8FFDbtW0r_pad-17" x="106318" y="-44439"/><use xlink:href="#Fd5C15SM7FQ8FFDbtW0r_pad-17" x="106318" y="-46979"/><use xlink:href="#Fd5C15SM7FQ8FFDbtW0r_pad-17" x="106318" y="-49519"/><use xlink:href="#Fd5C15SM7FQ8FFDbtW0r_pad-17" x="106318" y="-52059"/><use xlink:href="#Fd5C15SM7FQ8FFDbtW0r_pad-17" x="106318" y="-54599"/><use xlink:href="#Fd5C15SM7FQ8FFDbtW0r_pad-17" x="106318" y="-57139"/><use xlink:href="#Fd5C15SM7FQ8FFDbtW0r_pad-17" x="106318" y="-59679"/><use xlink:href="#Fd5C15SM7FQ8FFDbtW0r_pad-18" x="118002" y="-31739"/><use xlink:href="#Fd5C15SM7FQ8FFDbtW0r_pad-18" x="118002" y="-34279"/><use xlink:href="#Fd5C15SM7FQ8FFDbtW0r_pad-18" x="118002" y="-36819"/><use xlink:href="#Fd5C15SM7FQ8FFDbtW0r_pad-18" x="118002" y="-39359"/><use xlink:href="#Fd5C15SM7FQ8FFDbtW0r_pad-18" x="118002" y="-41899"/><use xlink:href="#Fd5C15SM7FQ8FFDbtW0r_pad-18" x="118002" y="-44439"/><use xlink:href="#Fd5C15SM7FQ8FFDbtW0r_pad-18" x="118002" y="-46979"/><use xlink:href="#Fd5C15SM7FQ8FFDbtW0r_pad-18" x="118002" y="-49519"/><use xlink:href="#Fd5C15SM7FQ8FFDbtW0r_pad-18" x="118002" y="-52059"/><use xlink:href="#Fd5C15SM7FQ8FFDbtW0r_pad-18" x="118002" y="-54599"/><use xlink:href="#Fd5C15SM7FQ8FFDbtW0r_pad-18" x="118002" y="-57139"/><use xlink:href="#Fd5C15SM7FQ8FFDbtW0r_pad-18" x="118002" y="-59679"/><use xlink:href="#Fd5C15SM7FQ8FFDbtW0r_pad-15" x="119780" y="-31739"/><use xlink:href="#Fd5C15SM7FQ8FFDbtW0r_pad-15" x="119780" y="-34279"/><use xlink:href="#Fd5C15SM7FQ8FFDbtW0r_pad-15" x="119780" y="-36819"/><use xlink:href="#Fd5C15SM7FQ8FFDbtW0r_pad-15" x="119780" y="-39359"/><use xlink:href="#Fd5C15SM7FQ8FFDbtW0r_pad-15" x="119780" y="-41899"/><use xlink:href="#Fd5C15SM7FQ8FFDbtW0r_pad-15" x="119780" y="-44439"/><use xlink:href="#Fd5C15SM7FQ8FFDbtW0r_pad-15" x="119780" y="-46979"/><use xlink:href="#Fd5C15SM7FQ8FFDbtW0r_pad-15" x="119780" y="-49519"/><use xlink:href="#Fd5C15SM7FQ8FFDbtW0r_pad-15" x="119780" y="-52059"/><use xlink:href="#Fd5C15SM7FQ8FFDbtW0r_pad-15" x="119780" y="-54599"/><use xlink:href="#Fd5C15SM7FQ8FFDbtW0r_pad-15" x="119780" y="-57139"/><use xlink:href="#Fd5C15SM7FQ8FFDbtW0r_pad-15" x="119780" y="-59679"/><use xlink:href="#Fd5C15SM7FQ8FFDbtW0r_pad-19" x="107334" y="-31739"/><use xlink:href="#Fd5C15SM7FQ8FFDbtW0r_pad-19" x="107334" y="-34279"/><use xlink:href="#Fd5C15SM7FQ8FFDbtW0r_pad-19" x="107334" y="-36819"/><use xlink:href="#Fd5C15SM7FQ8FFDbtW0r_pad-19" x="107334" y="-39359"/><use xlink:href="#Fd5C15SM7FQ8FFDbtW0r_pad-19" x="107334" y="-41899"/><use xlink:href="#Fd5C15SM7FQ8FFDbtW0r_pad-19" x="107334" y="-44439"/><use xlink:href="#Fd5C15SM7FQ8FFDbtW0r_pad-19" x="107334" y="-46979"/><use xlink:href="#Fd5C15SM7FQ8FFDbtW0r_pad-19" x="107334" y="-49519"/><use xlink:href="#Fd5C15SM7FQ8FFDbtW0r_pad-19" x="107334" y="-52059"/><use xlink:href="#Fd5C15SM7FQ8FFDbtW0r_pad-19" x="107334" y="-54599"/><use xlink:href="#Fd5C15SM7FQ8FFDbtW0r_pad-19" x="107334" y="-57139"/><use xlink:href="#Fd5C15SM7FQ8FFDbtW0r_pad-19" x="107334" y="-59679"/><use xlink:href="#Fd5C15SM7FQ8FFDbtW0r_pad-20" x="116986" y="-59679"/><use xlink:href="#Fd5C15SM7FQ8FFDbtW0r_pad-20" x="116986" y="-57139"/><use xlink:href="#Fd5C15SM7FQ8FFDbtW0r_pad-20" x="116986" y="-54599"/><use xlink:href="#Fd5C15SM7FQ8FFDbtW0r_pad-20" x="116986" y="-52059"/><use xlink:href="#Fd5C15SM7FQ8FFDbtW0r_pad-20" x="116986" y="-49519"/><use xlink:href="#Fd5C15SM7FQ8FFDbtW0r_pad-20" x="116986" y="-46979"/><use xlink:href="#Fd5C15SM7FQ8FFDbtW0r_pad-20" x="116986" y="-44439"/><use xlink:href="#Fd5C15SM7FQ8FFDbtW0r_pad-20" x="116986" y="-41899"/><use xlink:href="#Fd5C15SM7FQ8FFDbtW0r_pad-20" x="116986" y="-39359"/><use xlink:href="#Fd5C15SM7FQ8FFDbtW0r_pad-20" x="116986" y="-36819"/><use xlink:href="#Fd5C15SM7FQ8FFDbtW0r_pad-20" x="116986" y="-34279"/><use xlink:href="#Fd5C15SM7FQ8FFDbtW0r_pad-20" x="116986" y="-31739"/><use xlink:href="#Fd5C15SM7FQ8FFDbtW0r_pad-21" x="48631" y="-44393"/><use xlink:href="#Fd5C15SM7FQ8FFDbtW0r_pad-21" x="84731" y="-44393"/><use xlink:href="#Fd5C15SM7FQ8FFDbtW0r_pad-21" x="111810.8" y="-59283.6"/><use xlink:href="#Fd5C15SM7FQ8FFDbtW0r_pad-22" x="104551.4" y="-28941"/><use xlink:href="#Fd5C15SM7FQ8FFDbtW0r_pad-23" x="119768.6" y="-28941"/><use xlink:href="#Fd5C15SM7FQ8FFDbtW0r_pad-24" x="75934.848" y="-65114.383"/><use xlink:href="#Fd5C15SM7FQ8FFDbtW0r_pad-24" x="77515.939" y="-63533.293"/><use xlink:href="#Fd5C15SM7FQ8FFDbtW0r_pad-25" x="78192.64" y="-65826.44"/><use xlink:href="#Fd5C15SM7FQ8FFDbtW0r_pad-25" x="80313.96" y="-67947.76"/><use xlink:href="#Fd5C15SM7FQ8FFDbtW0r_pad-24" x="82607.107" y="-68624.461"/><use xlink:href="#Fd5C15SM7FQ8FFDbtW0r_pad-24" x="81026.017" y="-70205.552"/><use xlink:href="#Fd5C15SM7FQ8FFDbtW0r_pad-26" x="82258.504" y="-67063.877"/><use xlink:href="#Fd5C15SM7FQ8FFDbtW0r_pad-27" x="81197.844" y="-66003.217"/><use xlink:href="#Fd5C15SM7FQ8FFDbtW0r_pad-27" x="79076.523" y="-63881.896"/><use xlink:href="#Fd5C15SM7FQ8FFDbtW0r_pad-28" x="91156" y="-41268"/><use xlink:href="#Fd5C15SM7FQ8FFDbtW0r_pad-28" x="91156" y="-39868"/><use xlink:href="#Fd5C15SM7FQ8FFDbtW0r_pad-29" x="96356" y="-39868"/><use xlink:href="#Fd5C15SM7FQ8FFDbtW0r_pad-28" x="96356" y="-41268"/><use xlink:href="#Fd5C15SM7FQ8FFDbtW0r_pad-28" x="114406" y="-73968"/><use xlink:href="#Fd5C15SM7FQ8FFDbtW0r_pad-28" x="114406" y="-75368"/><use xlink:href="#Fd5C15SM7FQ8FFDbtW0r_pad-29" x="109206" y="-75368"/><use xlink:href="#Fd5C15SM7FQ8FFDbtW0r_pad-28" x="109206" y="-73968"/><use xlink:href="#Fd5C15SM7FQ8FFDbtW0r_pad-28" x="96356" y="-73968"/><use xlink:href="#Fd5C15SM7FQ8FFDbtW0r_pad-28" x="96356" y="-75368"/><use xlink:href="#Fd5C15SM7FQ8FFDbtW0r_pad-29" x="91156" y="-75368"/><use xlink:href="#Fd5C15SM7FQ8FFDbtW0r_pad-28" x="91156" y="-73968"/><use xlink:href="#Fd5C15SM7FQ8FFDbtW0r_pad-28" x="96356" y="-56918"/><use xlink:href="#Fd5C15SM7FQ8FFDbtW0r_pad-28" x="96356" y="-58318"/><use xlink:href="#Fd5C15SM7FQ8FFDbtW0r_pad-29" x="91156" y="-58318"/><use xlink:href="#Fd5C15SM7FQ8FFDbtW0r_pad-28" x="91156" y="-56918"/><use xlink:href="#Fd5C15SM7FQ8FFDbtW0r_pad-28" x="78306" y="-56918"/><use xlink:href="#Fd5C15SM7FQ8FFDbtW0r_pad-28" x="78306" y="-58318"/><use xlink:href="#Fd5C15SM7FQ8FFDbtW0r_pad-29" x="73106" y="-58318"/><use xlink:href="#Fd5C15SM7FQ8FFDbtW0r_pad-28" x="73106" y="-56918"/><use xlink:href="#Fd5C15SM7FQ8FFDbtW0r_pad-28" x="60256" y="-56918"/><use xlink:href="#Fd5C15SM7FQ8FFDbtW0r_pad-28" x="60256" y="-58318"/><use xlink:href="#Fd5C15SM7FQ8FFDbtW0r_pad-29" x="55056" y="-58318"/><use xlink:href="#Fd5C15SM7FQ8FFDbtW0r_pad-28" x="55056" y="-56918"/><use xlink:href="#Fd5C15SM7FQ8FFDbtW0r_pad-28" x="42206" y="-56918"/><use xlink:href="#Fd5C15SM7FQ8FFDbtW0r_pad-28" x="42206" y="-58318"/><use xlink:href="#Fd5C15SM7FQ8FFDbtW0r_pad-29" x="37006" y="-58318"/><use xlink:href="#Fd5C15SM7FQ8FFDbtW0r_pad-28" x="37006" y="-56918"/><use xlink:href="#Fd5C15SM7FQ8FFDbtW0r_pad-28" x="37006" y="-41268"/><use xlink:href="#Fd5C15SM7FQ8FFDbtW0r_pad-28" x="37006" y="-39868"/><use xlink:href="#Fd5C15SM7FQ8FFDbtW0r_pad-29" x="42206" y="-39868"/><use xlink:href="#Fd5C15SM7FQ8FFDbtW0r_pad-28" x="42206" y="-41268"/><use xlink:href="#Fd5C15SM7FQ8FFDbtW0r_pad-28" x="55056" y="-41268"/><use xlink:href="#Fd5C15SM7FQ8FFDbtW0r_pad-28" x="55056" y="-39868"/><use xlink:href="#Fd5C15SM7FQ8FFDbtW0r_pad-29" x="60256" y="-39868"/><use xlink:href="#Fd5C15SM7FQ8FFDbtW0r_pad-28" x="60256" y="-41268"/><use xlink:href="#Fd5C15SM7FQ8FFDbtW0r_pad-28" x="73106" y="-41268"/><use xlink:href="#Fd5C15SM7FQ8FFDbtW0r_pad-28" x="73106" y="-39868"/><use xlink:href="#Fd5C15SM7FQ8FFDbtW0r_pad-29" x="78306" y="-39868"/><use xlink:href="#Fd5C15SM7FQ8FFDbtW0r_pad-28" x="78306" y="-41268"/></g><g id="gFDqMs30wWBy8dtwwff__top_silkscreen"><g mask="url(#e4kyK8dLdrKpe9Cm8FH-_clear-1)"><path d="M 108564.762 -35519.875 108564.762 -34519.875 108945.714 -34519.875 109040.952 -34567.494 109088.571 -34615.113 109136.19 -34710.351 109136.19 -34853.208 109088.571 -34948.446 109040.952 -34996.065 108945.714 -35043.684 108564.762 -35043.684 M 109564.762 -34519.875 109564.762 -35519.875 110136.19 -34519.875 110136.19 -35519.875 M 111183.809 -35424.636 111136.19 -35472.256 110993.333 -35519.875 110898.095 -35519.875 110755.238 -35472.256 110660 -35377.017 110612.381 -35281.779 110564.762 -35091.303 110564.762 -34948.446 110612.381 -34757.97 110660 -34662.732 110755.238 -34567.494 110898.095 -34519.875 110993.333 -34519.875 111136.19 -34567.494 111183.809 -34615.113 M 111564.762 -35234.16 112040.952 -35234.16 M 111469.524 -35519.875 111802.857 -34519.875 112136.19 -35519.875 M 112326.667 -34519.875 112898.095 -34519.875 M 112612.381 -35519.875 112612.381 -34519.875 M 113231.429 -34996.065 113564.762 -34996.065 M 113707.619 -35519.875 113231.429 -35519.875 113231.429 -34519.875 113707.619 -34519.875 M 114136.191 -35519.875 114136.191 -34519.875 M 114136.191 -34996.065 114707.619 -34996.065 M 114707.619 -35519.875 114707.619 -34519.875 M 115374.286 -34519.875 115564.762 -34519.875 115660 -34567.494 115755.238 -34662.732 115802.857 -34853.208 115802.857 -35186.541 115755.238 -35377.017 115660 -35472.256 115564.762 -35519.875 115374.286 -35519.875 115279.048 -35472.256 115183.81 -35377.017 115136.191 -35186.541 115136.191 -34853.208 115183.81 -34662.732 115279.048 -34567.494 115374.286 -34519.875 M 111469.523 -37129.819 111136.19 -36653.628 M 110898.095 -37129.819 110898.095 -36129.819 111279.047 -36129.819 111374.285 -36177.438 111421.904 -36225.057 111469.523 -36320.295 111469.523 -36463.152 111421.904 -36558.39 111374.285 -36606.009 111279.047 -36653.628 110898.095 -36653.628 M 112421.904 -36177.438 112326.666 -36129.819 112183.809 -36129.819 112040.952 -36177.438 111945.714 -36272.676 111898.095 -36367.914 111850.476 -36558.39 111850.476 -36701.247 111898.095 -36891.723 111945.714 -36986.961 112040.952 -37082.2 112183.809 -37129.819 112279.047 -37129.819 112421.904 -37082.2 112469.523 -37034.58 112469.523 -36701.247 112279.047 -36701.247 M 113231.428 -36606.009 113374.285 -36653.628 113421.904 -36701.247 113469.523 -36796.485 113469.523 -36939.342 113421.904 -37034.58 113374.285 -37082.2 113279.047 -37129.819 112898.095 -37129.819 112898.095 -36129.819 113231.428 -36129.819 113326.666 -36177.438 113374.285 -36225.057 113421.904 -36320.295 113421.904 -36415.533 113374.285 -36510.771 113326.666 -36558.39 113231.428 -36606.009 112898.095 -36606.009 M 110255.238 -37739.763 110588.571 -38739.763 110921.904 -37739.763 M 112207.619 -37739.763 112302.857 -37739.763 112398.095 -37787.382 112445.714 -37835.001 112493.333 -37930.239 112540.952 -38120.715 112540.952 -38358.81 112493.333 -38549.286 112445.714 -38644.524 112398.095 -38692.144 112302.857 -38739.763 112207.619 -38739.763 112112.381 -38692.144 112064.762 -38644.524 112017.143 -38549.286 111969.524 -38358.81 111969.524 -38120.715 112017.143 -37930.239 112064.762 -37835.001 112112.381 -37787.382 112207.619 -37739.763 M 112969.524 -38644.524 113017.143 -38692.144 112969.524 -38739.763 112921.905 -38692.144 112969.524 -38644.524 112969.524 -38739.763 M 113874.285 -38073.096 113874.285 -38739.763 M 113636.19 -37692.144 113398.095 -38406.429 114017.142 -38406.429" fill="none" stroke-width="200"/><path d="M 109902.143 -30801.326 110373.572 -30801.326 M 109807.857 -31115.611 110137.857 -30015.611 110467.857 -31115.611 M 110797.857 -31115.611 110797.857 -30382.278 M 110797.857 -30591.802 110845 -30487.04 110892.143 -30434.659 110986.428 -30382.278 111080.714 -30382.278 M 111552.142 -31115.611 111457.857 -31063.231 111410.714 -31010.85 111363.571 -30906.088 111363.571 -30591.802 111410.714 -30487.04 111457.857 -30434.659 111552.142 -30382.278 111693.571 -30382.278 111787.857 -30434.659 111835 -30487.04 111882.142 -30591.802 111882.142 -30906.088 111835 -31010.85 111787.857 -31063.231 111693.571 -31115.611 111552.142 -31115.611 M 112730.714 -30382.278 112730.714 -31115.611 M 112306.428 -30382.278 112306.428 -30958.469 112353.571 -31063.231 112447.856 -31115.611 112589.285 -31115.611 112683.571 -31063.231 112730.714 -31010.85 M 113202.142 -31115.611 113202.142 -30382.278 M 113202.142 -30487.04 113249.285 -30434.659 113343.57 -30382.278 113484.999 -30382.278 113579.285 -30434.659 113626.428 -30539.421 113626.428 -31115.611 M 113626.428 -30539.421 113673.57 -30434.659 113767.856 -30382.278 113909.285 -30382.278 114003.57 -30434.659 114050.713 -30539.421 114050.713 -31115.611 M 110302.857 -31891.311 110350 -31838.93 110444.286 -31786.549 110680 -31786.549 110774.286 -31838.93 110821.428 -31891.311 110868.571 -31996.073 110868.571 -32100.835 110821.428 -32257.978 110255.714 -32886.549 110868.571 -32886.549 M 111481.428 -31786.549 111575.714 -31786.549 111670 -31838.93 111717.143 -31891.311 111764.285 -31996.073 111811.428 -32205.597 111811.428 -32467.502 111764.285 -32677.026 111717.143 -32781.788 111670 -32834.169 111575.714 -32886.549 111481.428 -32886.549 111387.143 -32834.169 111340 -32781.788 111292.857 -32677.026 111245.714 -32467.502 111245.714 -32205.597 111292.857 -31996.073 111340 -31891.311 111387.143 -31838.93 111481.428 -31786.549 M 112188.571 -31891.311 112235.714 -31838.93 112330 -31786.549 112565.714 -31786.549 112660 -31838.93 112707.142 -31891.311 112754.285 -31996.073 112754.285 -32100.835 112707.142 -32257.978 112141.428 -32886.549 112754.285 -32886.549 M 113649.999 -31786.549 113178.571 -31786.549 113131.428 -32310.359 113178.571 -32257.978 113272.857 -32205.597 113508.571 -32205.597 113602.857 -32257.978 113649.999 -32310.359 113697.142 -32415.121 113697.142 -32677.026 113649.999 -32781.788 113602.857 -32834.169 113508.571 -32886.549 113272.857 -32886.549 113178.571 -32834.169 113131.428 -32781.788" fill="none" stroke-width="150"/><path d="M 87778.547 -38693.395 88540.452 -38693.395 88921.404 -38931.49 89302.357 -39407.68 89492.833 -40360.061 89492.833 -42026.728 89302.357 -42979.109 88921.404 -43455.3 88540.452 -43693.395 87778.547 -43693.395 87397.595 -43455.3 87016.642 -42979.109 86826.166 -42026.728 86826.166 -40360.061 87016.642 -39407.68 87397.595 -38931.49 87778.547 -38693.395 M 87029.342 -60730.695 87029.342 -55730.695 M 87029.342 -58111.647 89315.057 -58111.647 M 89315.057 -60730.695 89315.057 -55730.695 M 68973.243 -55730.695 71258.957 -55730.695 M 70116.1 -60730.695 70116.1 -55730.695 M 52764.695 -60267.204 52574.219 -60505.3 52002.79 -60743.395 51621.838 -60743.395 51050.409 -60505.3 50669.457 -60029.109 50478.98 -59552.919 50288.504 -58600.538 50288.504 -57886.252 50478.98 -56933.871 50669.457 -56457.68 51050.409 -55981.49 51621.838 -55743.395 52002.79 -55743.395 52574.219 -55981.49 52764.695 -56219.585 M 69086.456 -41064.847 70419.79 -41064.847 M 70991.218 -43683.895 69086.456 -43683.895 69086.456 -38683.895 70991.218 -38683.895 M 51133.019 -42252.123 53037.781 -42252.123 M 50752.067 -43680.695 52085.4 -38680.695 53418.734 -43680.695 M 32899.142 -38667.995 32899.142 -43667.995 35184.857 -38667.995 35184.857 -43667.995 M 32791.18 -60730.695 32791.18 -55730.695 34314.99 -55730.695 34695.942 -55968.79 34886.419 -56206.885 35076.895 -56683.076 35076.895 -57397.361 34886.419 -57873.552 34695.942 -58111.647 34314.99 -58349.742 32791.18 -58349.742" fill="none" stroke-width="600"/><path d="M 115696.914 -32270.019 115125.486 -32270.019 M 115411.2 -32270.019 115411.2 -31270.019 115315.962 -31412.876 115220.724 -31508.114 115125.486 -31555.733" fill="none" stroke-width="150"/><path d="M 118393.333 -28391.666 118926.667 -28391.666 M 105393.333 -28391.666 105926.667 -28391.666 M 105660 -28658.333 105660 -28125" fill="none" stroke-width="125"/><path d="M 83932.6 -63169.8 A 900 900 0 0 0 82132.6 -63169.8 900 900 0 0 0 83932.6 -63169.8" fill="none" stroke-width="120"/><path d="M 83084.702 -69702.502 82068.066 -70717.865 M 76648.318 -63563.698 A 718.42 718.42 0 0 0 75211.478 -63563.698 718.42 718.42 0 0 0 76648.318 -63563.698" fill="none" stroke-width="300"/></g></g><g id="gFDqMs30wWBy8dtwwff__top_copper"><use xlink:href="#fuv4Z9ovs4xx2OzzO0S__pad-10" x="84729.656" y="-64866.856"/><use xlink:href="#fuv4Z9ovs4xx2OzzO0S__pad-10" x="81335.544" y="-61472.744"/><use xlink:href="#fuv4Z9ovs4xx2OzzO0S__pad-11" x="75706" y="-47018"/><use xlink:href="#fuv4Z9ovs4xx2OzzO0S__pad-11" x="70706" y="-49118"/><use xlink:href="#fuv4Z9ovs4xx2OzzO0S__pad-11" x="80706" y="-49118"/><use xlink:href="#fuv4Z9ovs4xx2OzzO0S__pad-11" x="111806" y="-64068"/><use xlink:href="#fuv4Z9ovs4xx2OzzO0S__pad-11" x="106806" y="-66168"/><use xlink:href="#fuv4Z9ovs4xx2OzzO0S__pad-11" x="116806" y="-66168"/><use xlink:href="#fuv4Z9ovs4xx2OzzO0S__pad-11" x="93756" y="-64068"/><use xlink:href="#fuv4Z9ovs4xx2OzzO0S__pad-11" x="88756" y="-66168"/><use xlink:href="#fuv4Z9ovs4xx2OzzO0S__pad-11" x="98756" y="-66168"/><use xlink:href="#fuv4Z9ovs4xx2OzzO0S__pad-11" x="93756" y="-47018"/><use xlink:href="#fuv4Z9ovs4xx2OzzO0S__pad-11" x="88756" y="-49118"/><use xlink:href="#fuv4Z9ovs4xx2OzzO0S__pad-11" x="98756" y="-49118"/><use xlink:href="#fuv4Z9ovs4xx2OzzO0S__pad-11" x="93756" y="-29968"/><use xlink:href="#fuv4Z9ovs4xx2OzzO0S__pad-11" x="88756" y="-32068"/><use xlink:href="#fuv4Z9ovs4xx2OzzO0S__pad-11" x="98756" y="-32068"/><use xlink:href="#fuv4Z9ovs4xx2OzzO0S__pad-11" x="75706" y="-29968"/><use xlink:href="#fuv4Z9ovs4xx2OzzO0S__pad-11" x="70706" y="-32068"/><use xlink:href="#fuv4Z9ovs4xx2OzzO0S__pad-11" x="80706" y="-32068"/><use xlink:href="#fuv4Z9ovs4xx2OzzO0S__pad-11" x="39606" y="-47018"/><use xlink:href="#fuv4Z9ovs4xx2OzzO0S__pad-11" x="34606" y="-49118"/><use xlink:href="#fuv4Z9ovs4xx2OzzO0S__pad-11" x="44606" y="-49118"/><use xlink:href="#fuv4Z9ovs4xx2OzzO0S__pad-11" x="39606" y="-29968"/><use xlink:href="#fuv4Z9ovs4xx2OzzO0S__pad-11" x="34606" y="-32068"/><use xlink:href="#fuv4Z9ovs4xx2OzzO0S__pad-11" x="44606" y="-32068"/><use xlink:href="#fuv4Z9ovs4xx2OzzO0S__pad-11" x="57656" y="-29968"/><use xlink:href="#fuv4Z9ovs4xx2OzzO0S__pad-11" x="52656" y="-32068"/><use xlink:href="#fuv4Z9ovs4xx2OzzO0S__pad-11" x="62656" y="-32068"/><use xlink:href="#fuv4Z9ovs4xx2OzzO0S__pad-11" x="57656" y="-47018"/><use xlink:href="#fuv4Z9ovs4xx2OzzO0S__pad-11" x="52656" y="-49118"/><use xlink:href="#fuv4Z9ovs4xx2OzzO0S__pad-11" x="62656" y="-49118"/><use xlink:href="#fuv4Z9ovs4xx2OzzO0S__pad-12" x="104540" y="-31739"/><use xlink:href="#fuv4Z9ovs4xx2OzzO0S__pad-13" x="104540" y="-31739"/><use xlink:href="#fuv4Z9ovs4xx2OzzO0S__pad-12" x="104540" y="-34279"/><use xlink:href="#fuv4Z9ovs4xx2OzzO0S__pad-12" x="104540" y="-36819"/><use xlink:href="#fuv4Z9ovs4xx2OzzO0S__pad-12" x="104540" y="-39359"/><use xlink:href="#fuv4Z9ovs4xx2OzzO0S__pad-12" x="104540" y="-41899"/><use xlink:href="#fuv4Z9ovs4xx2OzzO0S__pad-12" x="104540" y="-44439"/><use xlink:href="#fuv4Z9ovs4xx2OzzO0S__pad-12" x="104540" y="-46979"/><use xlink:href="#fuv4Z9ovs4xx2OzzO0S__pad-12" x="104540" y="-49519"/><use xlink:href="#fuv4Z9ovs4xx2OzzO0S__pad-12" x="104540" y="-52059"/><use xlink:href="#fuv4Z9ovs4xx2OzzO0S__pad-12" x="104540" y="-54599"/><use xlink:href="#fuv4Z9ovs4xx2OzzO0S__pad-12" x="104540" y="-57139"/><use xlink:href="#fuv4Z9ovs4xx2OzzO0S__pad-12" x="104540" y="-59679"/><use xlink:href="#fuv4Z9ovs4xx2OzzO0S__pad-14" x="105810" y="-31739"/><use xlink:href="#fuv4Z9ovs4xx2OzzO0S__pad-14" x="105810" y="-34279"/><use xlink:href="#fuv4Z9ovs4xx2OzzO0S__pad-14" x="105810" y="-36819"/><use xlink:href="#fuv4Z9ovs4xx2OzzO0S__pad-14" x="105810" y="-39359"/><use xlink:href="#fuv4Z9ovs4xx2OzzO0S__pad-14" x="105810" y="-41899"/><use xlink:href="#fuv4Z9ovs4xx2OzzO0S__pad-14" x="105810" y="-44439"/><use xlink:href="#fuv4Z9ovs4xx2OzzO0S__pad-14" x="105810" y="-46979"/><use xlink:href="#fuv4Z9ovs4xx2OzzO0S__pad-14" x="105810" y="-49519"/><use xlink:href="#fuv4Z9ovs4xx2OzzO0S__pad-14" x="105810" y="-52059"/><use xlink:href="#fuv4Z9ovs4xx2OzzO0S__pad-14" x="105810" y="-54599"/><use xlink:href="#fuv4Z9ovs4xx2OzzO0S__pad-14" x="105810" y="-57139"/><use xlink:href="#fuv4Z9ovs4xx2OzzO0S__pad-14" x="105810" y="-59679"/><use xlink:href="#fuv4Z9ovs4xx2OzzO0S__pad-15" x="106318" y="-31739"/><use xlink:href="#fuv4Z9ovs4xx2OzzO0S__pad-15" x="106318" y="-34279"/><use xlink:href="#fuv4Z9ovs4xx2OzzO0S__pad-15" x="106318" y="-36819"/><use xlink:href="#fuv4Z9ovs4xx2OzzO0S__pad-15" x="106318" y="-39359"/><use xlink:href="#fuv4Z9ovs4xx2OzzO0S__pad-15" x="106318" y="-41899"/><use xlink:href="#fuv4Z9ovs4xx2OzzO0S__pad-15" x="106318" y="-44439"/><use xlink:href="#fuv4Z9ovs4xx2OzzO0S__pad-15" x="106318" y="-46979"/><use xlink:href="#fuv4Z9ovs4xx2OzzO0S__pad-15" x="106318" y="-49519"/><use xlink:href="#fuv4Z9ovs4xx2OzzO0S__pad-15" x="106318" y="-52059"/><use xlink:href="#fuv4Z9ovs4xx2OzzO0S__pad-15" x="106318" y="-54599"/><use xlink:href="#fuv4Z9ovs4xx2OzzO0S__pad-15" x="106318" y="-57139"/><use xlink:href="#fuv4Z9ovs4xx2OzzO0S__pad-15" x="106318" y="-59679"/><use xlink:href="#fuv4Z9ovs4xx2OzzO0S__pad-16" x="118002" y="-31739"/><use xlink:href="#fuv4Z9ovs4xx2OzzO0S__pad-16" x="118002" y="-34279"/><use xlink:href="#fuv4Z9ovs4xx2OzzO0S__pad-16" x="118002" y="-36819"/><use xlink:href="#fuv4Z9ovs4xx2OzzO0S__pad-16" x="118002" y="-39359"/><use xlink:href="#fuv4Z9ovs4xx2OzzO0S__pad-16" x="118002" y="-41899"/><use xlink:href="#fuv4Z9ovs4xx2OzzO0S__pad-16" x="118002" y="-44439"/><use xlink:href="#fuv4Z9ovs4xx2OzzO0S__pad-16" x="118002" y="-46979"/><use xlink:href="#fuv4Z9ovs4xx2OzzO0S__pad-16" x="118002" y="-49519"/><use xlink:href="#fuv4Z9ovs4xx2OzzO0S__pad-16" x="118002" y="-52059"/><use xlink:href="#fuv4Z9ovs4xx2OzzO0S__pad-16" x="118002" y="-54599"/><use xlink:href="#fuv4Z9ovs4xx2OzzO0S__pad-16" x="118002" y="-57139"/><use xlink:href="#fuv4Z9ovs4xx2OzzO0S__pad-16" x="118002" y="-59679"/><use xlink:href="#fuv4Z9ovs4xx2OzzO0S__pad-17" x="118510" y="-31739"/><use xlink:href="#fuv4Z9ovs4xx2OzzO0S__pad-17" x="118510" y="-34279"/><use xlink:href="#fuv4Z9ovs4xx2OzzO0S__pad-17" x="118510" y="-36819"/><use xlink:href="#fuv4Z9ovs4xx2OzzO0S__pad-17" x="118510" y="-39359"/><use xlink:href="#fuv4Z9ovs4xx2OzzO0S__pad-17" x="118510" y="-41899"/><use xlink:href="#fuv4Z9ovs4xx2OzzO0S__pad-17" x="118510" y="-44439"/><use xlink:href="#fuv4Z9ovs4xx2OzzO0S__pad-17" x="118510" y="-46979"/><use xlink:href="#fuv4Z9ovs4xx2OzzO0S__pad-17" x="118510" y="-49519"/><use xlink:href="#fuv4Z9ovs4xx2OzzO0S__pad-17" x="118510" y="-52059"/><use xlink:href="#fuv4Z9ovs4xx2OzzO0S__pad-17" x="118510" y="-54599"/><use xlink:href="#fuv4Z9ovs4xx2OzzO0S__pad-17" x="118510" y="-57139"/><use xlink:href="#fuv4Z9ovs4xx2OzzO0S__pad-17" x="118510" y="-59679"/><use xlink:href="#fuv4Z9ovs4xx2OzzO0S__pad-12" x="119780" y="-31739"/><use xlink:href="#fuv4Z9ovs4xx2OzzO0S__pad-13" x="119780" y="-31739"/><use xlink:href="#fuv4Z9ovs4xx2OzzO0S__pad-12" x="119780" y="-34279"/><use xlink:href="#fuv4Z9ovs4xx2OzzO0S__pad-12" x="119780" y="-36819"/><use xlink:href="#fuv4Z9ovs4xx2OzzO0S__pad-12" x="119780" y="-39359"/><use xlink:href="#fuv4Z9ovs4xx2OzzO0S__pad-12" x="119780" y="-41899"/><use xlink:href="#fuv4Z9ovs4xx2OzzO0S__pad-12" x="119780" y="-44439"/><use xlink:href="#fuv4Z9ovs4xx2OzzO0S__pad-12" x="119780" y="-46979"/><use xlink:href="#fuv4Z9ovs4xx2OzzO0S__pad-12" x="119780" y="-49519"/><use xlink:href="#fuv4Z9ovs4xx2OzzO0S__pad-12" x="119780" y="-52059"/><use xlink:href="#fuv4Z9ovs4xx2OzzO0S__pad-12" x="119780" y="-54599"/><use xlink:href="#fuv4Z9ovs4xx2OzzO0S__pad-12" x="119780" y="-57139"/><use xlink:href="#fuv4Z9ovs4xx2OzzO0S__pad-12" x="119780" y="-59679"/><use xlink:href="#fuv4Z9ovs4xx2OzzO0S__pad-18" x="107334" y="-31739"/><use xlink:href="#fuv4Z9ovs4xx2OzzO0S__pad-18" x="107334" y="-34279"/><use xlink:href="#fuv4Z9ovs4xx2OzzO0S__pad-18" x="107334" y="-36819"/><use xlink:href="#fuv4Z9ovs4xx2OzzO0S__pad-18" x="107334" y="-39359"/><use xlink:href="#fuv4Z9ovs4xx2OzzO0S__pad-18" x="107334" y="-41899"/><use xlink:href="#fuv4Z9ovs4xx2OzzO0S__pad-18" x="107334" y="-44439"/><use xlink:href="#fuv4Z9ovs4xx2OzzO0S__pad-18" x="107334" y="-46979"/><use xlink:href="#fuv4Z9ovs4xx2OzzO0S__pad-18" x="107334" y="-49519"/><use xlink:href="#fuv4Z9ovs4xx2OzzO0S__pad-18" x="107334" y="-52059"/><use xlink:href="#fuv4Z9ovs4xx2OzzO0S__pad-18" x="107334" y="-54599"/><use xlink:href="#fuv4Z9ovs4xx2OzzO0S__pad-18" x="107334" y="-57139"/><use xlink:href="#fuv4Z9ovs4xx2OzzO0S__pad-18" x="107334" y="-59679"/><use xlink:href="#fuv4Z9ovs4xx2OzzO0S__pad-19" x="116986" y="-59679"/><use xlink:href="#fuv4Z9ovs4xx2OzzO0S__pad-19" x="116986" y="-57139"/><use xlink:href="#fuv4Z9ovs4xx2OzzO0S__pad-19" x="116986" y="-54599"/><use xlink:href="#fuv4Z9ovs4xx2OzzO0S__pad-19" x="116986" y="-52059"/><use xlink:href="#fuv4Z9ovs4xx2OzzO0S__pad-19" x="116986" y="-49519"/><use xlink:href="#fuv4Z9ovs4xx2OzzO0S__pad-19" x="116986" y="-46979"/><use xlink:href="#fuv4Z9ovs4xx2OzzO0S__pad-19" x="116986" y="-44439"/><use xlink:href="#fuv4Z9ovs4xx2OzzO0S__pad-19" x="116986" y="-41899"/><use xlink:href="#fuv4Z9ovs4xx2OzzO0S__pad-19" x="116986" y="-39359"/><use xlink:href="#fuv4Z9ovs4xx2OzzO0S__pad-19" x="116986" y="-36819"/><use xlink:href="#fuv4Z9ovs4xx2OzzO0S__pad-19" x="116986" y="-34279"/><use xlink:href="#fuv4Z9ovs4xx2OzzO0S__pad-19" x="116986" y="-31739"/><use xlink:href="#fuv4Z9ovs4xx2OzzO0S__pad-20" x="48631" y="-44393"/><use xlink:href="#fuv4Z9ovs4xx2OzzO0S__pad-20" x="84731" y="-44393"/><use xlink:href="#fuv4Z9ovs4xx2OzzO0S__pad-20" x="111810.8" y="-59283.6"/><use xlink:href="#fuv4Z9ovs4xx2OzzO0S__pad-21" x="104551.4" y="-28941"/><use xlink:href="#fuv4Z9ovs4xx2OzzO0S__pad-22" x="119768.6" y="-28941"/><use xlink:href="#fuv4Z9ovs4xx2OzzO0S__pad-23" x="75934.848" y="-65114.383"/><use xlink:href="#fuv4Z9ovs4xx2OzzO0S__pad-23" x="77515.939" y="-63533.293"/><use xlink:href="#fuv4Z9ovs4xx2OzzO0S__pad-23" x="82607.107" y="-68624.461"/><use xlink:href="#fuv4Z9ovs4xx2OzzO0S__pad-23" x="81026.017" y="-70205.552"/><use xlink:href="#fuv4Z9ovs4xx2OzzO0S__pad-24" x="82258.504" y="-67063.877"/><use xlink:href="#fuv4Z9ovs4xx2OzzO0S__pad-25" x="81197.844" y="-66003.217"/><use xlink:href="#fuv4Z9ovs4xx2OzzO0S__pad-26" x="79076.523" y="-63881.896"/><use xlink:href="#fuv4Z9ovs4xx2OzzO0S__pad-27" x="91156" y="-41268"/><use xlink:href="#fuv4Z9ovs4xx2OzzO0S__pad-27" x="91156" y="-39868"/><use xlink:href="#fuv4Z9ovs4xx2OzzO0S__pad-28" x="96356" y="-39868"/><use xlink:href="#fuv4Z9ovs4xx2OzzO0S__pad-27" x="96356" y="-41268"/><use xlink:href="#fuv4Z9ovs4xx2OzzO0S__pad-27" x="114406" y="-73968"/><use xlink:href="#fuv4Z9ovs4xx2OzzO0S__pad-27" x="114406" y="-75368"/><use xlink:href="#fuv4Z9ovs4xx2OzzO0S__pad-28" x="109206" y="-75368"/><use xlink:href="#fuv4Z9ovs4xx2OzzO0S__pad-27" x="109206" y="-73968"/><use xlink:href="#fuv4Z9ovs4xx2OzzO0S__pad-27" x="96356" y="-73968"/><use xlink:href="#fuv4Z9ovs4xx2OzzO0S__pad-27" x="96356" y="-75368"/><use xlink:href="#fuv4Z9ovs4xx2OzzO0S__pad-28" x="91156" y="-75368"/><use xlink:href="#fuv4Z9ovs4xx2OzzO0S__pad-27" x="91156" y="-73968"/><use xlink:href="#fuv4Z9ovs4xx2OzzO0S__pad-27" x="96356" y="-56918"/><use xlink:href="#fuv4Z9ovs4xx2OzzO0S__pad-27" x="96356" y="-58318"/><use xlink:href="#fuv4Z9ovs4xx2OzzO0S__pad-28" x="91156" y="-58318"/><use xlink:href="#fuv4Z9ovs4xx2OzzO0S__pad-27" x="91156" y="-56918"/><use xlink:href="#fuv4Z9ovs4xx2OzzO0S__pad-27" x="78306" y="-56918"/><use xlink:href="#fuv4Z9ovs4xx2OzzO0S__pad-27" x="78306" y="-58318"/><use xlink:href="#fuv4Z9ovs4xx2OzzO0S__pad-28" x="73106" y="-58318"/><use xlink:href="#fuv4Z9ovs4xx2OzzO0S__pad-27" x="73106" y="-56918"/><use xlink:href="#fuv4Z9ovs4xx2OzzO0S__pad-27" x="60256" y="-56918"/><use xlink:href="#fuv4Z9ovs4xx2OzzO0S__pad-27" x="60256" y="-58318"/><use xlink:href="#fuv4Z9ovs4xx2OzzO0S__pad-28" x="55056" y="-58318"/><use xlink:href="#fuv4Z9ovs4xx2OzzO0S__pad-27" x="55056" y="-56918"/><use xlink:href="#fuv4Z9ovs4xx2OzzO0S__pad-27" x="42206" y="-56918"/><use xlink:href="#fuv4Z9ovs4xx2OzzO0S__pad-27" x="42206" y="-58318"/><use xlink:href="#fuv4Z9ovs4xx2OzzO0S__pad-28" x="37006" y="-58318"/><use xlink:href="#fuv4Z9ovs4xx2OzzO0S__pad-27" x="37006" y="-56918"/><use xlink:href="#fuv4Z9ovs4xx2OzzO0S__pad-27" x="37006" y="-41268"/><use xlink:href="#fuv4Z9ovs4xx2OzzO0S__pad-27" x="37006" y="-39868"/><use xlink:href="#fuv4Z9ovs4xx2OzzO0S__pad-28" x="42206" y="-39868"/><use xlink:href="#fuv4Z9ovs4xx2OzzO0S__pad-27" x="42206" y="-41268"/><use xlink:href="#fuv4Z9ovs4xx2OzzO0S__pad-27" x="55056" y="-41268"/><use xlink:href="#fuv4Z9ovs4xx2OzzO0S__pad-27" x="55056" y="-39868"/><use xlink:href="#fuv4Z9ovs4xx2OzzO0S__pad-28" x="60256" y="-39868"/><use xlink:href="#fuv4Z9ovs4xx2OzzO0S__pad-27" x="60256" y="-41268"/><use xlink:href="#fuv4Z9ovs4xx2OzzO0S__pad-27" x="73106" y="-41268"/><use xlink:href="#fuv4Z9ovs4xx2OzzO0S__pad-27" x="73106" y="-39868"/><use xlink:href="#fuv4Z9ovs4xx2OzzO0S__pad-28" x="78306" y="-39868"/><use xlink:href="#fuv4Z9ovs4xx2OzzO0S__pad-27" x="78306" y="-41268"/><use xlink:href="#fuv4Z9ovs4xx2OzzO0S__pad-29" x="115036.6" y="-35922.7"/><use xlink:href="#fuv4Z9ovs4xx2OzzO0S__pad-29" x="109492.8" y="-50056.7"/><use xlink:href="#fuv4Z9ovs4xx2OzzO0S__pad-29" x="115310.2" y="-47196.1"/><use xlink:href="#fuv4Z9ovs4xx2OzzO0S__pad-29" x="109492.8" y="-44335.5"/><use xlink:href="#fuv4Z9ovs4xx2OzzO0S__pad-29" x="108086.6" y="-41842.1"/><use xlink:href="#fuv4Z9ovs4xx2OzzO0S__pad-29" x="106256.9" y="-35549"/><use xlink:href="#fuv4Z9ovs4xx2OzzO0S__pad-29" x="108173.6" y="-59087.7"/><use xlink:href="#fuv4Z9ovs4xx2OzzO0S__pad-29" x="108266.8" y="-56638.6"/><use xlink:href="#fuv4Z9ovs4xx2OzzO0S__pad-29" x="113272.5" y="-54599"/><use xlink:href="#fuv4Z9ovs4xx2OzzO0S__pad-29" x="80659.7" y="-46895.5"/><use xlink:href="#fuv4Z9ovs4xx2OzzO0S__pad-29" x="108707" y="-50825.7"/><use xlink:href="#fuv4Z9ovs4xx2OzzO0S__pad-29" x="106607.9" y="-40629"/><use xlink:href="#fuv4Z9ovs4xx2OzzO0S__pad-29" x="98233.5" y="-42355.7"/><use xlink:href="#fuv4Z9ovs4xx2OzzO0S__pad-29" x="89897.1" y="-52039.1"/><use xlink:href="#fuv4Z9ovs4xx2OzzO0S__pad-29" x="97752.4" y="-56586.7"/><use xlink:href="#fuv4Z9ovs4xx2OzzO0S__pad-29" x="42258.2" y="-44438"/><use xlink:href="#fuv4Z9ovs4xx2OzzO0S__pad-29" x="88005.2" y="-40756.3"/><use xlink:href="#fuv4Z9ovs4xx2OzzO0S__pad-29" x="114406" y="-72489.6"/><use xlink:href="#fuv4Z9ovs4xx2OzzO0S__pad-29" x="116774" y="-61604.2"/><use xlink:href="#fuv4Z9ovs4xx2OzzO0S__pad-29" x="108106.6" y="-32383.1"/><use xlink:href="#fuv4Z9ovs4xx2OzzO0S__pad-29" x="79657.9" y="-66581.4"/><use xlink:href="#fuv4Z9ovs4xx2OzzO0S__pad-29" x="109092.5" y="-76961.9"/><use xlink:href="#fuv4Z9ovs4xx2OzzO0S__pad-29" x="71308.6" y="-56589.3"/><use xlink:href="#fuv4Z9ovs4xx2OzzO0S__pad-29" x="92169.7" y="-59555.9"/><use xlink:href="#fuv4Z9ovs4xx2OzzO0S__pad-29" x="74890.4" y="-59884.9"/><use xlink:href="#fuv4Z9ovs4xx2OzzO0S__pad-29" x="59693.1" y="-55678.4"/><use xlink:href="#fuv4Z9ovs4xx2OzzO0S__pad-29" x="50938.8" y="-58638.5"/><use xlink:href="#fuv4Z9ovs4xx2OzzO0S__pad-29" x="39229.6" y="-44335.5"/><use xlink:href="#fuv4Z9ovs4xx2OzzO0S__pad-29" x="42410.3" y="-59443.4"/><use xlink:href="#fuv4Z9ovs4xx2OzzO0S__pad-29" x="37841.9" y="-38318.6"/><use xlink:href="#fuv4Z9ovs4xx2OzzO0S__pad-29" x="63190.1" y="-38844.7"/><use xlink:href="#fuv4Z9ovs4xx2OzzO0S__pad-29" x="72659.5" y="-42726.7"/><use xlink:href="#fuv4Z9ovs4xx2OzzO0S__pad-29" x="61508.5" y="-38615.5"/><use xlink:href="#fuv4Z9ovs4xx2OzzO0S__pad-29" x="74084.3" y="-38319.7"/><use xlink:href="#fuv4Z9ovs4xx2OzzO0S__pad-29" x="89008.4" y="-41135.1"/><use xlink:href="#fuv4Z9ovs4xx2OzzO0S__pad-29" x="97494.5" y="-55779.3"/><path d="M 115036.6 -35922.7 115932.9 -36819 116986 -36819 M 114001.8 -33009 102455.5 -33009 M 115896.6 -50056.7 116434.3 -49519 M 109492.8 -50056.7 115896.6 -50056.7 M 116986 -48617.3 117421.3 -48182 M 94277.1 -28648.1 40925.9 -28648.1 39606 -29968 M 116986 -49519 116986 -48617.3 M 95057.7 -29428.7 94277.1 -28648.1 M 120904.9 -36380.6 120158.3 -35634 M 120904.9 -47440.9 120904.9 -36380.6 M 117421.3 -48182 120163.8 -48182 M 95057.7 -29428.8 95057.7 -29428.7 M 98875.3 -29428.8 95057.7 -29428.8 M 102455.5 -33009 98875.3 -29428.8 M 120158.3 -35634 116626.8 -35634 114001.8 -33009 M 120163.8 -48182 120904.9 -47440.9 M 116986 -49519 116434.3 -49519 M 116434.3 -46979 116217.2 -47196.1 M 113823.1 -45709 86387.6 -45709 M 75042.5 -38392 72791 -36140.5 M 115310.2 -47196.1 113823.1 -45709 M 116986 -46979 116434.3 -46979 M 86387.6 -45709 86152 -45944.6 M 70481.2 -29968 57656 -29968 M 86152 -45944.6 84097.3 -45944.6 M 116217.2 -47196.1 115310.2 -47196.1 M 78175.4 -38392 75042.5 -38392 M 79890.2 -41737.5 79890.2 -40106.8 M 84097.3 -45944.6 79890.2 -41737.5 M 79890.2 -40106.8 78175.4 -38392 M 72791 -36140.5 72791 -32277.8 70481.2 -29968 M 86449.9 -43169 108326.3 -43169 M 75706 -32425.1 86449.9 -43169 M 75706 -29968 75706 -32425.1 M 116330.8 -44335.5 116434.3 -44439 M 109492.8 -44335.5 116330.8 -44335.5 M 108326.3 -43169 109492.8 -44335.5 M 116986 -44439 116434.3 -44439 M 116986 -41899 108143.5 -41899 M 104078 -35549 98497 -29968 93756 -29968 M 106256.9 -35549 104078 -35549 M 108143.5 -41899 108086.6 -41842.1 M 102558.7 -58507.5 107593.4 -58507.5 M 34861.3 -47018 32701.3 -49178 32701.3 -55714.9 M 39606 -47018 34861.3 -47018 M 113978.7 -63783.9 112379.6 -65383 M 84567.2 -67899.5 89485.3 -67899.5 M 93566.9 -67499.3 102558.7 -58507.5 M 108421.9 -62592.1 108421.9 -59336 M 113978.7 -62134.6 113978.7 -63783.9 M 89885.5 -67499.3 93566.9 -67499.3 M 112379.6 -65383 111212.8 -65383 M 107593.4 -58507.5 108173.6 -59087.7 M 32701.3 -55714.9 39372.4 -62386 M 79053.7 -62386 84567.2 -67899.5 M 108421.9 -59336 108173.6 -59087.7 M 89485.3 -67899.5 89720.7 -67664.1 M 111212.8 -65383 108421.9 -62592.1 M 89720.7 -67664.1 89885.5 -67499.3 M 39372.4 -62386 79053.7 -62386 M 89720.7 -67664.1 89885.5 -67499.3 M 116434.3 -59679 113978.7 -62134.6 M 116986 -59679 116434.3 -59679 M 108266.8 -56638.6 115933.9 -56638.6 M 77513.3 -50666.2 100618 -50666.2 M 107391.4 -53329 108266.8 -54204.4 M 103280.8 -53329 107391.4 -53329 M 57656 -47018 73865.1 -47018 77513.3 -50666.2 M 115933.9 -56638.6 116434.3 -57139 M 116986 -57139 116434.3 -57139 M 108266.8 -54204.4 108266.8 -56638.6 M 100618 -50666.2 103280.8 -53329 M 80537.2 -47018 80659.7 -46895.5 M 113272.5 -54597.7 113272.5 -54599 113272.5 -54597.7 M 80659.7 -46895.5 80537.2 -47018 M 90066.2 -48328.2 88633.5 -46895.5 M 111164.2 -54599 107354.2 -50789 M 102268 -50789 99295.3 -47816.3 M 94545.8 -48328.2 90066.2 -48328.2 M 107354.2 -50789 102268 -50789 M 88633.5 -46895.5 80659.7 -46895.5 M 99295.3 -47816.3 95057.7 -47816.3 M 113272.5 -54599 111164.2 -54599 M 95057.7 -47816.3 94545.8 -48328.2 M 116986 -54599 113272.5 -54599 M 99193.2 -47018 93756 -47018 M 109940.3 -52059 108707 -50825.7 M 100424.2 -48249 99193.2 -47018 M 116986 -52059 109940.3 -52059 M 107364.3 -48249 100424.2 -48249 M 108707 -49591.7 107364.3 -48249 M 108707 -50825.7 108707 -49591.7 M 107334 -54599 107334 -55500.7 106856.8 -55977.9 101846.1 -55977.9 93756 -64068 M 107334 -57139 107885.7 -57139 M 107885.7 -57690.7 111806 -61611 111806 -64068 M 107885.7 -57139 107885.7 -57690.7" fill="none" stroke-width="200"/><path d="M 97521.9 -41644.1 98233.5 -42355.7 M 98147.3 -55418.9 97849.9 -55121.5 M 88005.2 -40756.3 88320.8 -40440.7 M 42258.2 -44438 41656.8 -45039.4 M 72007.8 -42456.9 55056 -42456.9 M 88320.8 -40440.7 89872 -40440.7 M 60445.4 -59833.9 47665.3 -59833.9 M 89897.1 -55273.5 79098.8 -55273.5 M 116986 -39359 116384.3 -39359 M 96117.4 -55273.5 89897.1 -55273.5 M 55056 -42456.9 44239.3 -42456.9 M 78060.1 -55820.4 78306 -56066.3 M 98233.5 -42355.7 97521.9 -41644.1 M 37006 -43067.1 37006 -41268 M 99960.2 -40629 98233.5 -42355.7 M 98147.3 -56191.8 98147.3 -55418.9 M 96356 -56918 97421.1 -56918 M 61515.4 -55820.4 78060.1 -55820.4 M 61269.5 -56066.3 61269.5 -59009.8 M 60256 -56918 60256 -56066.3 M 90699.3 -41268 91156 -41268 M 72974.1 -42119.7 72929.4 -42075 M 44749.4 -56918 42206 -56918 M 97849.9 -55121.5 96269.4 -55121.5 M 61269.5 -56066.3 61515.4 -55820.4 M 72389.7 -42075 72007.8 -42456.9 M 60256 -56066.3 61269.5 -56066.3 M 47665.3 -59833.9 44749.4 -56918 M 89897.1 -55273.5 89897.1 -52039.1 M 72929.4 -42075 72389.7 -42075 M 116384.3 -39359 115114.3 -40629 M 73106 -41268 73106 -42119.7 M 106607.9 -40629 99960.2 -40629 M 73106 -42119.7 72974.1 -42119.7 M 79098.8 -55273.5 78306 -56066.3 M 55056 -41268 55056 -42119.7 M 97421.1 -56918 97752.4 -56586.7 M 61269.5 -59009.8 60445.4 -59833.9 M 55056 -42456.9 55056 -42119.7 M 41656.8 -45039.4 38978.3 -45039.4 M 44239.3 -42456.9 42258.2 -44438 M 78306 -56918 78306 -56066.3 M 96269.4 -55121.5 96117.4 -55273.5 M 115114.3 -40629 106607.9 -40629 M 89872 -40440.7 90699.3 -41268 M 38978.3 -45039.4 37006 -43067.1 M 97752.4 -56586.7 98147.3 -56191.8" fill="none" stroke-width="300"/><path d="M 107885.7 -59679 107885.7 -64464.4 M 107334 -59679 107885.7 -59679 M 109206 -72489.6 114406 -72489.6 M 109206 -65784.7 112593.5 -65784.7 116774 -61604.2 M 109206 -65784.7 109206 -72489.6 109206 -73968 M 107885.7 -64464.4 109206 -65784.7" fill="none" stroke-width="200"/><path d="M 115740.2 -32383.1 108106.6 -32383.1 M 116384.3 -31739 115740.2 -32383.1 M 116986 -31739 116384.3 -31739 M 116986 -34279 116986 -33327.3 M 120931.7 -32758.6 120681.3 -33009 M 119768.6 -28941 120931.7 -30104.1 120931.7 -32758.6 M 120681.3 -33009 117304.3 -33009 116986 -33327.3 M 79657.9 -66581.4 80017.4 -66221.9 M 79657.9 -66581.4 80619.6 -66581.4 M 80017.4 -66221.9 79657.9 -66581.4 M 80619.6 -66581.4 81197.8 -66003.2" fill="none" stroke-width="300"/><path d="M 90145.2 -75943.6 91163.5 -76961.9 M 114406 -75368 114406 -76169.7 M 109092.5 -76961.9 113613.8 -76961.9 M 90145.2 -74978.8 90145.2 -75943.6 M 91156 -73968 90145.2 -74978.8 M 113613.8 -76961.9 114406 -76169.7 M 91163.5 -76961.9 109092.5 -76961.9 M 92169.7 -64647.1 92169.7 -59555.9 M 74690.6 -61393.1 78892.6 -61393.1 M 71404.8 -56493.1 71308.6 -56589.3 M 84997.3 -67497.8 89319 -67497.8 M 72085 -56987.3 72085 -58787.5 M 89319 -67497.8 92169.7 -64647.1 M 95919.8 -59555.9 96356 -59119.7 M 71687 -56589.3 72085 -56987.3 M 71308.6 -56589.3 71687 -56589.3 M 72085 -58787.5 74690.6 -61393.1 M 73106 -56918 72230.2 -56918 M 72154.3 -56918 72085 -56987.3 M 96356 -58318 96356 -59119.7 M 72230.2 -56918 72154.3 -56918 M 78892.6 -61393.1 84997.3 -67497.8 M 92169.7 -59555.9 95919.8 -59555.9 M 71308.6 -56589.3 71404.8 -56493.1 M 78306 -59119.7 77540.8 -59884.9 M 74763.5 -59884.9 74890.4 -59884.9 74763.5 -59884.9 M 55056 -56116.3 55493.9 -55678.4 M 78306 -58318 78306 -59119.7 M 77540.8 -59884.9 74890.4 -59884.9 M 55493.9 -55678.4 59693.1 -55678.4 M 55056 -56918 55056 -56116.3 M 37006 -56918 37006 -56116.3 M 60256 -59119.7 60015.9 -59359.8 M 60256 -58318 60256 -59119.7 M 51660.1 -59359.8 50938.8 -58638.5 M 48182.1 -55881.8 50938.8 -58638.5 M 37006 -56116.3 37240.5 -55881.8 48182.1 -55881.8 M 60015.9 -59359.8 51660.1 -59359.8 M 41593.1 -59443.4 42410.3 -59443.4 M 42206 -59239.1 42206 -58318 M 42410.3 -59443.4 41593.1 -59443.4 M 39940.2 -44335.5 39229.6 -44335.5 M 42206 -41268 42206 -42069.7 M 42410.3 -59443.4 42206 -59239.1 M 42206 -42069.7 39940.2 -44335.5 M 37841.9 -38318.6 37753.7 -38318.6 M 60256 -41268 61207.7 -41268 61207.7 -40827.1 63190.1 -38844.7 M 37753.7 -38318.6 37006 -39066.3 M 37006 -39868 37006 -39066.3 M 55506.8 -38615.5 61508.5 -38615.5 M 55056 -39868 55056 -39066.3 M 77649 -42726.7 72659.5 -42726.7 M 78306 -41268 78306 -42069.7 77649 -42726.7 M 55056 -39066.3 55506.8 -38615.5 M 96356 -41268 96356 -42069.7 M 89979.2 -41667.9 89979.2 -41667.8 89541.1 -41667.8 M 73337.7 -39066.3 74084.3 -38319.7 M 73106 -39066.3 73337.7 -39066.3 M 96087.3 -42338.4 90649.7 -42338.4 89979.2 -41667.9 M 89541.1 -41667.8 89008.4 -41135.1 M 73106 -39868 73106 -39066.3 M 96356 -42069.7 96087.3 -42338.4 M 91493 -55779.3 97494.5 -55779.3 M 91156 -56116.3 91493 -55779.3 M 91156 -56918 91156 -56116.3" fill="none" stroke-width="200"/><path d="M 34606 -32068 34606 -34154.8 M 61307.7 -50466.3 54004.3 -50466.3 M 87328.3 -64740.3 88756 -66168 M 88840.1 -49118 88756 -49118 M 98756 -32068 88756 -32068 M 98304.3 -38009.6 97833.5 -37538.8 M 79397 -40694 79397 -47809 M 38743.7 -38292.5 41482.2 -38292.5 M 79397 -47809 80706 -49118 M 82008.5 -62145.7 87328.3 -62145.7 M 37006 -58318 35954.3 -58318 M 52656 -49118 44606 -49118 M 96356 -39868 96356 -39016.3 M 81335.5 -61472.7 82008.5 -62145.7 M 41482.2 -38292.5 43106.2 -36668.5 M 60256 -39868 61307.7 -39868 M 96356 -73968 96356 -68568 M 73106 -58318 73106 -59169.7 M 97833.5 -37538.8 96356 -39016.3 M 61307.7 -39805.6 61307.7 -39868 M 64649.4 -32068 70706 -32068 M 62656 -32068 64649.4 -32068 M 109206 -75368 96356 -75368 M 64649.4 -36463.9 61307.7 -39805.6 M 43106.2 -36668.5 43106.2 -33567.8 44606 -32068 M 96356 -76219.7 96117.7 -76458 M 98756 -49118 88840.1 -49118 M 96117.7 -76458 91394.3 -76458 M 42206 -39016.3 41482.2 -38292.5 M 88840.1 -49118 80706 -49118 M 97781 -33043 98756 -32068 M 107334 -39359 107334 -38009.6 M 52656 -32068 44606 -32068 M 62656 -32068 52656 -32068 M 87328.3 -62145.7 87328.3 -64740.3 M 55056 -58318 54004.3 -58318 M 78306 -39868 78571 -39868 M 107334 -38009.6 98304.3 -38009.6 M 81335.5 -61472.7 80662.6 -60799.8 M 96356 -68568 98756 -66168 M 96356 -75368 96356 -76219.7 M 90304.3 -59169.7 91156 -59169.7 M 44606 -49118 43257.7 -50466.3 35954.3 -50466.3 M 96356 -75368 96356 -73968 M 87328.3 -62145.7 90304.3 -59169.7 M 115234.2 -73139.8 114406 -73968 M 80662.6 -60799.8 74736.1 -60799.8 M 35954.3 -50466.3 34606 -49118 M 116806 -66168 115234.2 -67739.8 M 74736.1 -60799.8 73106 -59169.7 M 91156 -75368 91156 -76219.7 M 64649.4 -32068 64649.4 -36463.9 M 97833.5 -37538.8 97781 -37486.3 M 91394.3 -76458 91156 -76219.7 M 70706 -49118 62656 -49118 M 80706 -32068 88756 -32068 M 34606 -34154.8 38743.7 -38292.5 M 78571 -39868 79397 -40694 M 107334 -38009.6 107334 -36819 M 115234.2 -67739.8 115234.2 -73139.8 M 91156 -58318 91156 -59169.7 M 97781 -37486.3 97781 -33043 M 54004.3 -58318 54004.3 -50466.3 M 42206 -39868 42206 -39016.3 M 62656 -49118 61307.7 -50466.3 M 54004.3 -50466.3 52656 -49118 M 35954.3 -58318 35954.3 -50466.3" fill="none" stroke-width="300"/></g><g id="gFDqMs30wWBy8dtwwff__top_solderpaste"><use xlink:href="#hCz2nkqMA5-Lx8OsV3Ca_pad-10" x="81197.844" y="-66003.217"/><use xlink:href="#hCz2nkqMA5-Lx8OsV3Ca_pad-11" x="91156" y="-41268"/><use xlink:href="#hCz2nkqMA5-Lx8OsV3Ca_pad-11" x="91156" y="-39868"/><use xlink:href="#hCz2nkqMA5-Lx8OsV3Ca_pad-12" x="96356" y="-39868"/><use xlink:href="#hCz2nkqMA5-Lx8OsV3Ca_pad-11" x="96356" y="-41268"/><use xlink:href="#hCz2nkqMA5-Lx8OsV3Ca_pad-11" x="114406" y="-73968"/><use xlink:href="#hCz2nkqMA5-Lx8OsV3Ca_pad-11" x="114406" y="-75368"/><use xlink:href="#hCz2nkqMA5-Lx8OsV3Ca_pad-12" x="109206" y="-75368"/><use xlink:href="#hCz2nkqMA5-Lx8OsV3Ca_pad-11" x="109206" y="-73968"/><use xlink:href="#hCz2nkqMA5-Lx8OsV3Ca_pad-11" x="96356" y="-73968"/><use xlink:href="#hCz2nkqMA5-Lx8OsV3Ca_pad-11" x="96356" y="-75368"/><use xlink:href="#hCz2nkqMA5-Lx8OsV3Ca_pad-12" x="91156" y="-75368"/><use xlink:href="#hCz2nkqMA5-Lx8OsV3Ca_pad-11" x="91156" y="-73968"/><use xlink:href="#hCz2nkqMA5-Lx8OsV3Ca_pad-11" x="96356" y="-56918"/><use xlink:href="#hCz2nkqMA5-Lx8OsV3Ca_pad-11" x="96356" y="-58318"/><use xlink:href="#hCz2nkqMA5-Lx8OsV3Ca_pad-12" x="91156" y="-58318"/><use xlink:href="#hCz2nkqMA5-Lx8OsV3Ca_pad-11" x="91156" y="-56918"/><use xlink:href="#hCz2nkqMA5-Lx8OsV3Ca_pad-11" x="78306" y="-56918"/><use xlink:href="#hCz2nkqMA5-Lx8OsV3Ca_pad-11" x="78306" y="-58318"/><use xlink:href="#hCz2nkqMA5-Lx8OsV3Ca_pad-12" x="73106" y="-58318"/><use xlink:href="#hCz2nkqMA5-Lx8OsV3Ca_pad-11" x="73106" y="-56918"/><use xlink:href="#hCz2nkqMA5-Lx8OsV3Ca_pad-11" x="60256" y="-56918"/><use xlink:href="#hCz2nkqMA5-Lx8OsV3Ca_pad-11" x="60256" y="-58318"/><use xlink:href="#hCz2nkqMA5-Lx8OsV3Ca_pad-12" x="55056" y="-58318"/><use xlink:href="#hCz2nkqMA5-Lx8OsV3Ca_pad-11" x="55056" y="-56918"/><use xlink:href="#hCz2nkqMA5-Lx8OsV3Ca_pad-11" x="42206" y="-56918"/><use xlink:href="#hCz2nkqMA5-Lx8OsV3Ca_pad-11" x="42206" y="-58318"/><use xlink:href="#hCz2nkqMA5-Lx8OsV3Ca_pad-12" x="37006" y="-58318"/><use xlink:href="#hCz2nkqMA5-Lx8OsV3Ca_pad-11" x="37006" y="-56918"/><use xlink:href="#hCz2nkqMA5-Lx8OsV3Ca_pad-11" x="37006" y="-41268"/><use xlink:href="#hCz2nkqMA5-Lx8OsV3Ca_pad-11" x="37006" y="-39868"/><use xlink:href="#hCz2nkqMA5-Lx8OsV3Ca_pad-12" x="42206" y="-39868"/><use xlink:href="#hCz2nkqMA5-Lx8OsV3Ca_pad-11" x="42206" y="-41268"/><use xlink:href="#hCz2nkqMA5-Lx8OsV3Ca_pad-11" x="55056" y="-41268"/><use xlink:href="#hCz2nkqMA5-Lx8OsV3Ca_pad-11" x="55056" y="-39868"/><use xlink:href="#hCz2nkqMA5-Lx8OsV3Ca_pad-12" x="60256" y="-39868"/><use xlink:href="#hCz2nkqMA5-Lx8OsV3Ca_pad-11" x="60256" y="-41268"/><use xlink:href="#hCz2nkqMA5-Lx8OsV3Ca_pad-11" x="73106" y="-41268"/><use xlink:href="#hCz2nkqMA5-Lx8OsV3Ca_pad-11" x="73106" y="-39868"/><use xlink:href="#hCz2nkqMA5-Lx8OsV3Ca_pad-12" x="78306" y="-39868"/><use xlink:href="#hCz2nkqMA5-Lx8OsV3Ca_pad-11" x="78306" y="-41268"/></g><g id="gFDqMs30wWBy8dtwwff__top_drill1"><use xlink:href="#eejEgZ1F8tvv7nS1GZo7_pad-1" x="78193" y="-65826"/><use xlink:href="#eejEgZ1F8tvv7nS1GZo7_pad-1" x="80314" y="-67948"/><use xlink:href="#eejEgZ1F8tvv7nS1GZo7_pad-2" x="34106" y="-35868"/><use xlink:href="#eejEgZ1F8tvv7nS1GZo7_pad-2" x="34106" y="-52918"/><use xlink:href="#eejEgZ1F8tvv7nS1GZo7_pad-2" x="45106" y="-35868"/><use xlink:href="#eejEgZ1F8tvv7nS1GZo7_pad-2" x="45106" y="-52918"/><use xlink:href="#eejEgZ1F8tvv7nS1GZo7_pad-2" x="52156" y="-35868"/><use xlink:href="#eejEgZ1F8tvv7nS1GZo7_pad-2" x="52156" y="-52918"/><use xlink:href="#eejEgZ1F8tvv7nS1GZo7_pad-2" x="63156" y="-35868"/><use xlink:href="#eejEgZ1F8tvv7nS1GZo7_pad-2" x="63156" y="-52918"/><use xlink:href="#eejEgZ1F8tvv7nS1GZo7_pad-2" x="70206" y="-35868"/><use xlink:href="#eejEgZ1F8tvv7nS1GZo7_pad-2" x="70206" y="-52918"/><use xlink:href="#eejEgZ1F8tvv7nS1GZo7_pad-2" x="81206" y="-35868"/><use xlink:href="#eejEgZ1F8tvv7nS1GZo7_pad-2" x="81206" y="-52918"/><use xlink:href="#eejEgZ1F8tvv7nS1GZo7_pad-2" x="88256" y="-35868"/><use xlink:href="#eejEgZ1F8tvv7nS1GZo7_pad-2" x="88256" y="-52918"/><use xlink:href="#eejEgZ1F8tvv7nS1GZo7_pad-2" x="88256" y="-69968"/><use xlink:href="#eejEgZ1F8tvv7nS1GZo7_pad-2" x="99256" y="-35868"/><use xlink:href="#eejEgZ1F8tvv7nS1GZo7_pad-2" x="99256" y="-52918"/><use xlink:href="#eejEgZ1F8tvv7nS1GZo7_pad-2" x="99256" y="-69968"/><use xlink:href="#eejEgZ1F8tvv7nS1GZo7_pad-2" x="106306" y="-69968"/><use xlink:href="#eejEgZ1F8tvv7nS1GZo7_pad-2" x="117306" y="-69968"/><use xlink:href="#eejEgZ1F8tvv7nS1GZo7_pad-3" x="48631" y="-44393"/><use xlink:href="#eejEgZ1F8tvv7nS1GZo7_pad-3" x="84731" y="-44393"/><use xlink:href="#eejEgZ1F8tvv7nS1GZo7_pad-3" x="111811" y="-59284"/><use xlink:href="#eejEgZ1F8tvv7nS1GZo7_pad-4" x="39606" y="-35868"/><use xlink:href="#eejEgZ1F8tvv7nS1GZo7_pad-4" x="39606" y="-52918"/><use xlink:href="#eejEgZ1F8tvv7nS1GZo7_pad-4" x="57656" y="-35868"/><use xlink:href="#eejEgZ1F8tvv7nS1GZo7_pad-4" x="57656" y="-52918"/><use xlink:href="#eejEgZ1F8tvv7nS1GZo7_pad-4" x="75706" y="-35868"/><use xlink:href="#eejEgZ1F8tvv7nS1GZo7_pad-4" x="75706" y="-52918"/><use xlink:href="#eejEgZ1F8tvv7nS1GZo7_pad-4" x="93756" y="-35868"/><use xlink:href="#eejEgZ1F8tvv7nS1GZo7_pad-4" x="93756" y="-52918"/><use xlink:href="#eejEgZ1F8tvv7nS1GZo7_pad-4" x="93756" y="-69968"/><use xlink:href="#eejEgZ1F8tvv7nS1GZo7_pad-4" x="111806" y="-69968"/></g><g id="gFDqMs30wWBy8dtwwff__top_drill2"><use xlink:href="#tmb8dofds0aKBAQrrX5F_pad-1" x="37842" y="-38319"/><use xlink:href="#tmb8dofds0aKBAQrrX5F_pad-1" x="39230" y="-44335"/><use xlink:href="#tmb8dofds0aKBAQrrX5F_pad-1" x="42258" y="-44438"/><use xlink:href="#tmb8dofds0aKBAQrrX5F_pad-1" x="42410" y="-59443"/><use xlink:href="#tmb8dofds0aKBAQrrX5F_pad-1" x="50939" y="-58639"/><use xlink:href="#tmb8dofds0aKBAQrrX5F_pad-1" x="59693" y="-55678"/><use xlink:href="#tmb8dofds0aKBAQrrX5F_pad-1" x="61508" y="-38615"/><use xlink:href="#tmb8dofds0aKBAQrrX5F_pad-1" x="63190" y="-38845"/><use xlink:href="#tmb8dofds0aKBAQrrX5F_pad-1" x="71309" y="-56589"/><use xlink:href="#tmb8dofds0aKBAQrrX5F_pad-1" x="72659" y="-42727"/><use xlink:href="#tmb8dofds0aKBAQrrX5F_pad-1" x="74084" y="-38320"/><use xlink:href="#tmb8dofds0aKBAQrrX5F_pad-1" x="74890" y="-59885"/><use xlink:href="#tmb8dofds0aKBAQrrX5F_pad-1" x="79658" y="-66581"/><use xlink:href="#tmb8dofds0aKBAQrrX5F_pad-1" x="80660" y="-46895"/><use xlink:href="#tmb8dofds0aKBAQrrX5F_pad-1" x="88005" y="-40756"/><use xlink:href="#tmb8dofds0aKBAQrrX5F_pad-1" x="89008" y="-41135"/><use xlink:href="#tmb8dofds0aKBAQrrX5F_pad-1" x="89897" y="-52039"/><use xlink:href="#tmb8dofds0aKBAQrrX5F_pad-1" x="92170" y="-59556"/><use xlink:href="#tmb8dofds0aKBAQrrX5F_pad-1" x="97495" y="-55779"/><use xlink:href="#tmb8dofds0aKBAQrrX5F_pad-1" x="97752" y="-56587"/><use xlink:href="#tmb8dofds0aKBAQrrX5F_pad-1" x="98233" y="-42356"/><use xlink:href="#tmb8dofds0aKBAQrrX5F_pad-1" x="106257" y="-35549"/><use xlink:href="#tmb8dofds0aKBAQrrX5F_pad-1" x="106608" y="-40629"/><use xlink:href="#tmb8dofds0aKBAQrrX5F_pad-1" x="108087" y="-41842"/><use xlink:href="#tmb8dofds0aKBAQrrX5F_pad-1" x="108107" y="-32383"/><use xlink:href="#tmb8dofds0aKBAQrrX5F_pad-1" x="108174" y="-59088"/><use xlink:href="#tmb8dofds0aKBAQrrX5F_pad-1" x="108267" y="-56639"/><use xlink:href="#tmb8dofds0aKBAQrrX5F_pad-1" x="108707" y="-50826"/><use xlink:href="#tmb8dofds0aKBAQrrX5F_pad-1" x="109093" y="-76962"/><use xlink:href="#tmb8dofds0aKBAQrrX5F_pad-1" x="109493" y="-44335"/><use xlink:href="#tmb8dofds0aKBAQrrX5F_pad-1" x="109493" y="-50057"/><use xlink:href="#tmb8dofds0aKBAQrrX5F_pad-1" x="113272" y="-54599"/><use xlink:href="#tmb8dofds0aKBAQrrX5F_pad-1" x="114406" y="-72490"/><use xlink:href="#tmb8dofds0aKBAQrrX5F_pad-1" x="115037" y="-35923"/><use xlink:href="#tmb8dofds0aKBAQrrX5F_pad-1" x="115310" y="-47196"/><use xlink:href="#tmb8dofds0aKBAQrrX5F_pad-1" x="116774" y="-61604"/><use xlink:href="#tmb8dofds0aKBAQrrX5F_pad-2" x="75935" y="-65114"/><use xlink:href="#tmb8dofds0aKBAQrrX5F_pad-2" x="77516" y="-63533"/><use xlink:href="#tmb8dofds0aKBAQrrX5F_pad-2" x="79077" y="-63882"/><use xlink:href="#tmb8dofds0aKBAQrrX5F_pad-2" x="81026" y="-70206"/><use xlink:href="#tmb8dofds0aKBAQrrX5F_pad-2" x="81336" y="-61473"/><use xlink:href="#tmb8dofds0aKBAQrrX5F_pad-2" x="82259" y="-67064"/><use xlink:href="#tmb8dofds0aKBAQrrX5F_pad-2" x="82607" y="-68624"/><use xlink:href="#tmb8dofds0aKBAQrrX5F_pad-2" x="84730" y="-64867"/><use xlink:href="#tmb8dofds0aKBAQrrX5F_pad-3" x="104551" y="-28941"/><use xlink:href="#tmb8dofds0aKBAQrrX5F_pad-3" x="119769" y="-28941"/><use xlink:href="#tmb8dofds0aKBAQrrX5F_pad-4" x="104540" y="-31739"/><use xlink:href="#tmb8dofds0aKBAQrrX5F_pad-4" x="104540" y="-31739"/><use xlink:href="#tmb8dofds0aKBAQrrX5F_pad-4" x="104540" y="-34279"/><use xlink:href="#tmb8dofds0aKBAQrrX5F_pad-4" x="104540" y="-36819"/><use xlink:href="#tmb8dofds0aKBAQrrX5F_pad-4" x="104540" y="-39359"/><use xlink:href="#tmb8dofds0aKBAQrrX5F_pad-4" x="104540" y="-41899"/><use xlink:href="#tmb8dofds0aKBAQrrX5F_pad-4" x="104540" y="-44439"/><use xlink:href="#tmb8dofds0aKBAQrrX5F_pad-4" x="104540" y="-46979"/><use xlink:href="#tmb8dofds0aKBAQrrX5F_pad-4" x="104540" y="-49519"/><use xlink:href="#tmb8dofds0aKBAQrrX5F_pad-4" x="104540" y="-52059"/><use xlink:href="#tmb8dofds0aKBAQrrX5F_pad-4" x="104540" y="-54599"/><use xlink:href="#tmb8dofds0aKBAQrrX5F_pad-4" x="104540" y="-57139"/><use xlink:href="#tmb8dofds0aKBAQrrX5F_pad-4" x="104540" y="-59679"/><use xlink:href="#tmb8dofds0aKBAQrrX5F_pad-4" x="119780" y="-31739"/><use xlink:href="#tmb8dofds0aKBAQrrX5F_pad-4" x="119780" y="-31739"/><use xlink:href="#tmb8dofds0aKBAQrrX5F_pad-4" x="119780" y="-34279"/><use xlink:href="#tmb8dofds0aKBAQrrX5F_pad-4" x="119780" y="-36819"/><use xlink:href="#tmb8dofds0aKBAQrrX5F_pad-4" x="119780" y="-39359"/><use xlink:href="#tmb8dofds0aKBAQrrX5F_pad-4" x="119780" y="-41899"/><use xlink:href="#tmb8dofds0aKBAQrrX5F_pad-4" x="119780" y="-44439"/><use xlink:href="#tmb8dofds0aKBAQrrX5F_pad-4" x="119780" y="-46979"/><use xlink:href="#tmb8dofds0aKBAQrrX5F_pad-4" x="119780" y="-49519"/><use xlink:href="#tmb8dofds0aKBAQrrX5F_pad-4" x="119780" y="-52059"/><use xlink:href="#tmb8dofds0aKBAQrrX5F_pad-4" x="119780" y="-54599"/><use xlink:href="#tmb8dofds0aKBAQrrX5F_pad-4" x="119780" y="-57139"/><use xlink:href="#tmb8dofds0aKBAQrrX5F_pad-4" x="119780" y="-59679"/><use xlink:href="#tmb8dofds0aKBAQrrX5F_pad-5" x="34606" y="-32068"/><use xlink:href="#tmb8dofds0aKBAQrrX5F_pad-5" x="34606" y="-49118"/><use xlink:href="#tmb8dofds0aKBAQrrX5F_pad-5" x="39606" y="-29968"/><use xlink:href="#tmb8dofds0aKBAQrrX5F_pad-5" x="39606" y="-47018"/><use xlink:href="#tmb8dofds0aKBAQrrX5F_pad-5" x="44606" y="-32068"/><use xlink:href="#tmb8dofds0aKBAQrrX5F_pad-5" x="44606" y="-49118"/><use xlink:href="#tmb8dofds0aKBAQrrX5F_pad-5" x="52656" y="-32068"/><use xlink:href="#tmb8dofds0aKBAQrrX5F_pad-5" x="52656" y="-49118"/><use xlink:href="#tmb8dofds0aKBAQrrX5F_pad-5" x="57656" y="-29968"/><use xlink:href="#tmb8dofds0aKBAQrrX5F_pad-5" x="57656" y="-47018"/><use xlink:href="#tmb8dofds0aKBAQrrX5F_pad-5" x="62656" y="-32068"/><use xlink:href="#tmb8dofds0aKBAQrrX5F_pad-5" x="62656" y="-49118"/><use xlink:href="#tmb8dofds0aKBAQrrX5F_pad-5" x="70706" y="-32068"/><use xlink:href="#tmb8dofds0aKBAQrrX5F_pad-5" x="70706" y="-49118"/><use xlink:href="#tmb8dofds0aKBAQrrX5F_pad-5" x="75706" y="-29968"/><use xlink:href="#tmb8dofds0aKBAQrrX5F_pad-5" x="75706" y="-47018"/><use xlink:href="#tmb8dofds0aKBAQrrX5F_pad-5" x="80706" y="-32068"/><use xlink:href="#tmb8dofds0aKBAQrrX5F_pad-5" x="80706" y="-49118"/><use xlink:href="#tmb8dofds0aKBAQrrX5F_pad-5" x="88756" y="-32068"/><use xlink:href="#tmb8dofds0aKBAQrrX5F_pad-5" x="88756" y="-49118"/><use xlink:href="#tmb8dofds0aKBAQrrX5F_pad-5" x="88756" y="-66168"/><use xlink:href="#tmb8dofds0aKBAQrrX5F_pad-5" x="93756" y="-29968"/><use xlink:href="#tmb8dofds0aKBAQrrX5F_pad-5" x="93756" y="-47018"/><use xlink:href="#tmb8dofds0aKBAQrrX5F_pad-5" x="93756" y="-64068"/><use xlink:href="#tmb8dofds0aKBAQrrX5F_pad-5" x="98756" y="-32068"/><use xlink:href="#tmb8dofds0aKBAQrrX5F_pad-5" x="98756" y="-49118"/><use xlink:href="#tmb8dofds0aKBAQrrX5F_pad-5" x="98756" y="-66168"/><use xlink:href="#tmb8dofds0aKBAQrrX5F_pad-5" x="106806" y="-66168"/><use xlink:href="#tmb8dofds0aKBAQrrX5F_pad-5" x="111806" y="-64068"/><use xlink:href="#tmb8dofds0aKBAQrrX5F_pad-5" x="116806" y="-66168"/></g><clipPath id="gFDqMs30wWBy8dtwwff__top_outline"><path d="M 122566.009 -77992.999 122566.009 -61151.251 122566 -27843 A 2000 2000 0 0 1 120566.009 -25843 L 31081 -25843 A 2000 2000 0 0 1 29081 -27843 L 29081 -44393 29081.001 -60942.999 A 1999.999 1999.999 0 0 1 31081 -62942.999 L 48631 -62942.999 66231 -62942.998 A 17000.002 17000.002 0 0 0 83141.263 -78198.259 1999.9980002 1999.9980002 0 0 1 85130.669 -79992.998 L 102780.999 -79992.999 120566.009 -79993.009 A 2000.009 2000.009 0 0 1 122566.009 -77992.999 M 92106 -39143 95406 -39143 95406 -41993 92106 -41993 92106 -39143 M 110156 -73243 113456 -73243 113456 -76093 110156 -76093 110156 -73243 M 92106 -73243 95406 -73243 95406 -76093 92106 -76093 92106 -73243 M 92106 -56193 95406 -56193 95406 -59043 92106 -59043 92106 -56193 M 74056 -56193 77356 -56193 77356 -59043 74056 -59043 74056 -56193 M 56006 -56193 59306 -56193 59306 -59043 56006 -59043 56006 -56193 M 37956 -56193 41256 -56193 41256 -59043 37956 -59043 37956 -56193 M 37956 -39143 41256 -39143 41256 -41993 37956 -41993 37956 -39143 M 56006 -39143 59306 -39143 59306 -41993 56006 -41993 56006 -39143 M 74056 -39143 77356 -39143 77356 -41993 74056 -41993 74056 -39143" fill="none" stroke-width="200"/></clipPath><mask id="gFDqMs30wWBy8dtwwff__top_mech-mask"><g fill="#000" stroke="#000"><rect x="29081" y="-79993.009" width="93485.009" height="54150.009" fill="#fff"/><use xlink:href="#gFDqMs30wWBy8dtwwff__top_drill1"/><use xlink:href="#gFDqMs30wWBy8dtwwff__top_drill2"/></g></mask><mask id="gFDqMs30wWBy8dtwwff__top_cf-mask"><g fill="#fff" stroke="#fff"><use xlink:href="#gFDqMs30wWBy8dtwwff__top_soldermask"/></g></mask><mask id="gFDqMs30wWBy8dtwwff__top_sm-mask"><g fill="#000" stroke="#000"><rect x="29081" y="-79993.009" width="93485.009" height="54150.009" fill="#fff"/><use xlink:href="#gFDqMs30wWBy8dtwwff__top_soldermask"/></g></mask></defs><g transform="translate(0,-105836.00900000002) scale(1,-1)"><g mask="url(#gFDqMs30wWBy8dtwwff__top_mech-mask)" clip-path="url(#gFDqMs30wWBy8dtwwff__top_outline)"><rect x="29081" y="-79993.009" width="93485.009" height="54150.009" fill="currentColor" class="gFDqMs30wWBy8dtwwff__fr4"/><use xlink:href="#gFDqMs30wWBy8dtwwff__top_copper" fill="currentColor" stroke="currentColor" class="gFDqMs30wWBy8dtwwff__cu"/><use xlink:href="#gFDqMs30wWBy8dtwwff__top_copper" fill="currentColor" stroke="currentColor" class="gFDqMs30wWBy8dtwwff__cf" mask="url(#gFDqMs30wWBy8dtwwff__top_cf-mask)"/><g mask="url(#gFDqMs30wWBy8dtwwff__top_sm-mask)"><rect x="29081" y="-79993.009" width="93485.009" height="54150.009" fill="currentColor" class="gFDqMs30wWBy8dtwwff__sm"/><use xlink:href="#gFDqMs30wWBy8dtwwff__top_silkscreen" fill="currentColor" stroke="currentColor" class="gFDqMs30wWBy8dtwwff__ss"/></g><use xlink:href="#gFDqMs30wWBy8dtwwff__top_solderpaste" fill="currentColor" stroke="currentColor" class="gFDqMs30wWBy8dtwwff__sp"/></g></g></svg>